<?xml version="1.0" encoding="utf-8"?>
<!-- Generator: Adobe Illustrator 18.1.1, SVG Export Plug-In . SVG Version: 6.00 Build 0)  -->
<svg version="1.1" id="Layer_1" xmlns="http://www.w3.org/2000/svg" xmlns:xlink="http://www.w3.org/1999/xlink" x="0px" y="0px"
	 viewBox="0 0 368.9 100.9" enable-background="new 0 0 368.9 100.9" xml:space="preserve">
<g>
	<path fill="#FFFFFF" d="M10.3,100l-0.1-65.2L0,40V25.7l10.3-6.2l-0.1-3.1L0,22.4v-15l9.4-5.9h13.9V100H10.3z M26.3,100V1.5h13V100
		H26.3z"/>
	<path fill="#FFFFFF" d="M47.2,38.7c0-5.3,1-10.3,2.9-15c1.9-4.6,4.6-8.7,8.1-12.2c3.4-3.5,7.5-6.2,12.2-8.3c4.7-2,9.7-3,15-3
		c5.3,0,10.3,1,15,3c4.7,2,8.8,4.7,12.4,8.1c3.6,3.4,6.4,7.5,8.4,12.1c2.1,4.6,3.1,9.6,3.1,15c0,4.2-0.5,8.1-1.5,11.5
		c-1,3.5-2.9,7.2-5.5,11.2L90.2,100h-16L104,58.1c1.7-2.4,3-4.6,4-6.6c0.9-2,1.6-3.7,2.1-5.3c0.4-1.5,0.7-2.9,0.8-4.2
		c0.1-1.2,0.1-2.3,0.1-3.3c0-3.5-0.7-6.8-2.1-9.9c-1.4-3-3.2-5.7-5.5-8c-2.3-2.3-5-4.1-8.1-5.4c-3.1-1.3-6.4-2-9.9-2
		c-3.4,0-6.7,0.6-9.8,1.9c-3.1,1.3-5.8,3.1-8.1,5.4c-2.3,2.3-4.1,5-5.5,8.1c-1.4,3.1-2.1,6.4-2.1,9.9c0,3,0.5,5.9,1.5,8.6
		c1,2.8,2.4,5.2,4.3,7.3c1.8,2.1,3.9,4,6.4,5.5c2.4,1.5,5.1,2.6,7.9,3.2c0.4-0.4,0.8-0.9,1.2-1.3c0.4-0.4,0.7-0.8,1-1.2
		c-2.7-0.4-5.2-1.3-7.5-2.6c-2.4-1.3-4.4-2.9-6.1-4.8c-1.7-1.9-3.1-4.2-4.1-6.7c-1-2.5-1.5-5.2-1.5-8.1c0-3.1,0.6-6,1.7-8.7
		c1.2-2.7,2.7-5.1,4.8-7.1c2-2,4.4-3.6,7.1-4.8c2.7-1.2,5.6-1.8,8.7-1.8c3.1,0,6,0.6,8.8,1.8c2.8,1.2,5.2,2.8,7.2,4.9
		c2.1,2.1,3.7,4.4,4.9,7.2c1.2,2.7,1.8,5.6,1.8,8.6c0,2.3-0.3,4.4-0.8,6.3c-0.5,1.9-1.1,3.6-1.8,5.1c-0.7,1.5-1.4,2.9-2.3,4.1
		c-0.8,1.2-1.5,2.2-2.1,3.1c-3.3,4.6-6.7,9.5-10.2,14.4c-3.6,5-6.9,9.6-9.9,13.8c-3.4,4.9-6.9,9.7-10.3,14.4H54.9l17.5-25.5
		c-3.7-1.4-7.1-3.2-10.1-5.6c-3.1-2.4-5.7-5.1-7.9-8.2c-2.2-3.1-4-6.6-5.3-10.3C47.8,46.6,47.2,42.7,47.2,38.7z M75.5,38.8
		c0.1,2.8,1.1,5.1,3,7c1.9,1.9,4.3,2.9,7,2.9c3,0,5.4-1,7.2-3c1.8-2,2.7-4.3,2.7-7.1c0-1.5-0.3-2.8-0.8-4c-0.6-1.2-1.3-2.3-2.2-3.2
		s-2-1.6-3.2-2.1c-1.2-0.5-2.6-0.7-3.9-0.7c-1.4,0-2.7,0.3-3.9,0.8c-1.2,0.5-2.3,1.2-3.2,2.1s-1.6,2-2.1,3.2
		C75.8,36.1,75.5,37.4,75.5,38.8z"/>
	<path fill="#FFFFFF" d="M128.3,38.7c0-5.3,1-10.3,2.9-15c1.9-4.6,4.6-8.7,8.1-12.2c3.4-3.5,7.5-6.2,12.2-8.3c4.7-2,9.7-3,15-3
		c5.3,0,10.3,1,15,3c4.7,2,8.8,4.7,12.4,8.1c3.6,3.4,6.4,7.5,8.4,12.1c2.1,4.6,3.1,9.6,3.1,15c0,4.2-0.5,8.1-1.5,11.5
		c-1,3.5-2.9,7.2-5.5,11.2L171.3,100h-16l29.8-41.9c1.7-2.4,3-4.6,4-6.6c0.9-2,1.6-3.7,2.1-5.3c0.4-1.5,0.7-2.9,0.8-4.2
		c0.1-1.2,0.1-2.3,0.1-3.3c0-3.5-0.7-6.8-2.1-9.9c-1.4-3-3.2-5.7-5.5-8c-2.3-2.3-5-4.1-8.1-5.4c-3.1-1.3-6.4-2-9.9-2
		c-3.4,0-6.7,0.6-9.8,1.9c-3.1,1.3-5.8,3.1-8.1,5.4c-2.3,2.3-4.1,5-5.5,8.1c-1.4,3.1-2.1,6.4-2.1,9.9c0,3,0.5,5.9,1.5,8.6
		c1,2.8,2.4,5.2,4.3,7.3c1.8,2.1,3.9,4,6.4,5.5c2.4,1.5,5.1,2.6,7.9,3.2c0.4-0.4,0.8-0.9,1.2-1.3c0.4-0.4,0.7-0.8,1-1.2
		c-2.7-0.4-5.2-1.3-7.5-2.6c-2.4-1.3-4.4-2.9-6.1-4.8c-1.7-1.9-3.1-4.2-4.1-6.7c-1-2.5-1.5-5.2-1.5-8.1c0-3.1,0.6-6,1.7-8.7
		c1.2-2.7,2.7-5.1,4.8-7.1c2-2,4.4-3.6,7.1-4.8c2.7-1.2,5.6-1.8,8.7-1.8c3.1,0,6,0.6,8.8,1.8c2.8,1.2,5.2,2.8,7.2,4.9
		c2.1,2.1,3.7,4.4,4.9,7.2c1.2,2.7,1.8,5.6,1.8,8.6c0,2.3-0.3,4.4-0.8,6.3c-0.5,1.9-1.1,3.6-1.8,5.1c-0.7,1.5-1.4,2.9-2.3,4.1
		c-0.8,1.2-1.5,2.2-2.1,3.1c-3.3,4.6-6.7,9.5-10.2,14.4c-3.6,5-6.9,9.6-9.9,13.8c-3.4,4.9-6.9,9.7-10.3,14.4H136l17.5-25.5
		c-3.7-1.4-7.1-3.2-10.1-5.6c-3.1-2.4-5.7-5.1-7.9-8.2c-2.2-3.1-4-6.6-5.3-10.3C128.9,46.6,128.3,42.7,128.3,38.7z M156.6,38.8
		c0.1,2.8,1.1,5.1,3,7c1.9,1.9,4.3,2.9,7,2.9c3,0,5.4-1,7.2-3c1.8-2,2.7-4.3,2.7-7.1c0-1.5-0.3-2.8-0.8-4c-0.6-1.2-1.3-2.3-2.2-3.2
		s-2-1.6-3.2-2.1c-1.2-0.5-2.6-0.7-3.9-0.7c-1.4,0-2.7,0.3-3.9,0.8c-1.2,0.5-2.3,1.2-3.2,2.1s-1.6,2-2.1,3.2
		C156.9,36.1,156.6,37.4,156.6,38.8z"/>
	<path fill="#FFFFFF" d="M310.3,50.5c0,7-1.3,13.5-4,19.6c-2.7,6.1-6.3,11.5-10.8,16.1c-4.6,4.6-9.9,8.2-16.1,10.8
		c-6.1,2.6-12.7,3.9-19.7,3.9c-7,0-13.5-1.3-19.7-4c-6.1-2.7-11.5-6.3-16-10.8c-4.6-4.6-8.2-9.9-10.8-16.1c-2.7-6.1-4-12.7-4-19.7
		c0-7,1.3-13.5,4-19.7c2.7-6.1,6.3-11.5,10.8-16.1c4.6-4.6,9.9-8.1,16-10.8c6.1-2.6,12.7-3.9,19.7-3.9c7,0,13.5,1.3,19.7,3.9
		c6.1,2.6,11.5,6.2,16.1,10.8c4.6,4.6,8.2,10,10.8,16.1C309,37,310.3,43.6,310.3,50.5z M297.5,50.5c0-5.2-1-10.2-3-14.8
		c-2-4.6-4.7-8.6-8.1-12.1c-3.4-3.4-7.4-6.2-12-8.1c-4.6-2-9.5-3-14.8-3c-5.2,0-10.1,1-14.7,3c-4.6,2-8.5,4.7-11.9,8.1
		c-3.4,3.4-6.1,7.5-8,12.1c-1.9,4.6-2.9,9.5-2.9,14.8c0,5.2,1,10,2.9,14.6s4.6,8.5,8,11.9c3.4,3.4,7.4,6.1,11.9,8
		c4.6,1.9,9.5,2.9,14.7,2.9c5.2,0,10.2-1,14.8-2.9c4.6-1.9,8.6-4.6,12-8c3.4-3.4,6.1-7.4,8.1-11.9C296.5,60.5,297.5,55.6,297.5,50.5
		z M294.3,50.4c0,4.7-0.9,9.2-2.7,13.3c-1.8,4.2-4.3,7.8-7.4,11c-3.1,3.1-6.8,5.6-11,7.4c-4.2,1.8-8.7,2.7-13.5,2.7
		c-4.7,0-9.2-0.9-13.4-2.7c-4.2-1.8-7.9-4.3-11-7.4c-3.1-3.1-5.6-6.8-7.4-11c-1.8-4.2-2.7-8.7-2.7-13.4c0-4.8,0.9-9.3,2.7-13.5
		c1.8-4.2,4.3-7.8,7.4-11c3.1-3.1,6.8-5.6,11-7.4c4.2-1.8,8.7-2.7,13.4-2.7c4.7,0,9.2,0.9,13.4,2.7c4.2,1.8,7.9,4.3,11,7.5
		c3.1,3.2,5.6,6.9,7.4,11C293.4,41.1,294.3,45.6,294.3,50.4z M281.7,50.4c0-3-0.6-5.8-1.7-8.4c-1.2-2.6-2.7-4.9-4.7-7
		c-2-2-4.3-3.6-6.9-4.8c-2.6-1.2-5.4-1.7-8.4-1.7c-2.9,0-5.7,0.6-8.4,1.7c-2.7,1.2-5,2.8-6.9,4.8c-1.9,2-3.5,4.3-4.6,7
		c-1.2,2.6-1.7,5.4-1.7,8.4c0,2.9,0.6,5.7,1.7,8.4c1.2,2.7,2.7,5,4.6,6.9c1.9,1.9,4.2,3.5,6.9,4.6c2.7,1.2,5.5,1.7,8.4,1.7
		c3,0,5.8-0.6,8.4-1.7c2.6-1.2,4.9-2.7,6.9-4.6c2-1.9,3.5-4.2,4.7-6.9C281.1,56.1,281.7,53.3,281.7,50.4z"/>
</g>
<g>
	<path fill="#FFFFFF" d="M368.9,77.8c0,3.2-0.7,6.1-1.9,8.8c-1.3,2.7-3,5.1-5.2,7.1c-2.2,2-4.7,3.5-7.5,4.7
		c-2.8,1.1-5.8,1.7-8.8,1.7c-3,0-5.9-0.5-8.7-1.4c-2.8-0.9-5.3-2.2-7.6-3.8c-2.3-1.6-4.2-3.6-5.7-6c-1.6-2.3-2.6-4.9-3.2-7.8
		l9.3-2.7c0.2,1.9,0.7,3.6,1.7,5.1c0.9,1.5,2.1,2.8,3.6,3.9c1.4,1.1,3,1.9,4.9,2.5c1.8,0.6,3.7,0.9,5.6,0.9c2,0,3.8-0.3,5.5-1
		c1.7-0.7,3.2-1.6,4.6-2.8c1.3-1.2,2.4-2.6,3.2-4.2c0.8-1.6,1.1-3.4,1.1-5.4c0-2.9-0.6-5.3-1.9-7.1c-1.3-1.8-2.9-3.3-4.8-4.4
		c-1.9-1.1-4-2.1-6.2-2.9c-2.2-0.8-4.3-1.7-6.2-2.7c-1.9-1-3.5-2.2-4.8-3.7c-1.3-1.5-1.9-3.4-1.9-5.9c0-1.6,0.3-3.1,0.9-4.4
		c0.6-1.4,1.4-2.6,2.5-3.6c1.1-1,2.3-1.8,3.8-2.3c1.4-0.5,3-0.8,4.6-0.8c1.5,0,2.9,0.3,4.2,0.8c1.3,0.5,2.5,1.2,3.5,2.2
		c1,0.9,1.9,2,2.6,3.2c0.7,1.2,1.1,2.5,1.3,3.9l-8.2,2.7c-0.1-0.9-0.5-1.7-1.1-2.4c-0.6-0.7-1.3-1-2.2-1c-0.7,0-1.3,0.2-1.8,0.6
		c-0.5,0.4-0.8,0.9-0.8,1.6c0,1.1,0.6,2,1.9,2.7c1.3,0.7,2.9,1.4,4.8,2.1c1.9,0.7,4,1.5,6.2,2.5c2.2,0.9,4.3,2.2,6.2,3.8
		c1.9,1.6,3.5,3.7,4.8,6.1C368.2,70.9,368.9,74,368.9,77.8z M358.8,49.2c-0.5-3.3-2-6-4.6-8.1c-2.6-2.1-5.6-3.1-9.2-3.1
		c-1.8,0-3.5,0.3-5.1,1c-1.6,0.6-3,1.5-4.1,2.7c-1.2,1.1-2.1,2.5-2.7,4c-0.7,1.6-1,3.2-1,5.1c0,2.7,0.6,4.8,1.9,6.4
		c1.3,1.6,2.9,2.9,4.8,4c1.9,1.1,4,2,6.2,2.8c2.2,0.8,4.3,1.7,6.2,2.8c1.9,1.1,3.5,2.5,4.8,4.1c1.3,1.6,1.9,3.8,1.9,6.5
		c0,1.7-0.4,3.3-1.1,4.7c-0.7,1.4-1.6,2.7-2.8,3.7c-1.2,1-2.5,1.8-4,2.4c-1.5,0.6-3.1,0.9-4.8,0.9c-1.8,0-3.5-0.3-5.1-0.8
		c-1.6-0.5-3.1-1.3-4.3-2.2c-1.3-1-2.3-2.2-3.2-3.6c-0.8-1.4-1.3-3-1.4-4.8l8.5-2.5c-0.1,1.6,0.5,2.9,1.6,3.7
		c1.1,0.8,2.3,1.2,3.7,1.2c1,0,1.9-0.3,2.7-0.8c0.9-0.5,1.3-1.3,1.3-2.4c0-1.2-0.6-2.2-1.9-3.1s-2.9-1.6-4.9-2.4
		c-2-0.8-4-1.7-6.3-2.7c-2.2-1-4.3-2.3-6.3-3.8c-2-1.6-3.6-3.5-4.9-5.8c-1.3-2.3-1.9-5.2-1.9-8.7c0-3,0.5-5.8,1.6-8.5
		c1.1-2.7,2.6-5,4.5-7c1.9-2,4.2-3.6,7-4.8c2.7-1.2,5.7-1.7,9-1.7c2.9,0,5.6,0.4,8.1,1.3c2.6,0.9,4.9,2.1,6.9,3.7
		c2,1.6,3.8,3.4,5.2,5.6c1.4,2.2,2.4,4.5,3,7.1L358.8,49.2z"/>
</g>
</svg>
