<?xml version="1.0" encoding="utf-8"?>
<!-- Generator: Adobe Illustrator 18.1.1, SVG Export Plug-In . SVG Version: 6.00 Build 0)  -->
<svg version="1.1" id="Layer_1" xmlns="http://www.w3.org/2000/svg" xmlns:xlink="http://www.w3.org/1999/xlink" x="0px" y="0px"
	 viewBox="0 0 189.9 12.9" enable-background="new 0 0 189.9 12.9" xml:space="preserve">
<g>
	<path fill="#FFFFFF" d="M0,0.2h1.7v12.6H0V0.2z M10.6,6.5c0,0.7-0.1,1.4-0.3,2c-0.2,0.6-0.5,1.1-0.8,1.6c-0.3,0.5-0.7,0.9-1.2,1.2
		c-0.5,0.3-0.9,0.6-1.5,0.8c-0.5,0.2-1,0.4-1.6,0.5s-1,0.2-1.5,0.2H2V0.2h1.7c0.5,0,1,0.1,1.6,0.2c0.5,0.1,1.1,0.3,1.6,0.5
		s1,0.5,1.4,0.9C8.8,2.1,9.2,2.5,9.5,3c0.3,0.5,0.6,1,0.8,1.6C10.5,5.2,10.6,5.8,10.6,6.5z M8.8,6.5c0-0.7-0.1-1.3-0.4-1.9
		S7.7,3.6,7.2,3.2c-0.5-0.4-1-0.8-1.6-1C5,1.9,4.4,1.8,3.7,1.8v0.3c0.7,0,1.4,0.1,1.9,0.4c0.6,0.3,1.1,0.6,1.5,1
		C7.5,4,7.9,4.5,8.1,5s0.3,1,0.3,1.5c0,0.5-0.1,1-0.3,1.5C7.9,8.6,7.6,9,7.2,9.5c-0.4,0.4-0.9,0.8-1.5,1c-0.6,0.3-1.3,0.4-2,0.4v0.3
		c0.7,0,1.4-0.1,2-0.4c0.6-0.2,1.2-0.6,1.6-1C7.7,9.5,8.1,9,8.4,8.4C8.7,7.8,8.8,7.2,8.8,6.5z M6.7,6.5c0-0.5-0.1-0.9-0.3-1.3
		C6.2,4.9,6,4.6,5.7,4.4C5.4,4.2,5.1,4.1,4.7,4C4.4,3.9,4,3.9,3.7,3.9v5.3c0.3,0,0.7,0,1-0.1c0.4-0.1,0.7-0.2,1-0.4
		C6,8.4,6.2,8.1,6.4,7.8C6.6,7.5,6.7,7,6.7,6.5z"/>
	<path fill="#FFFFFF" d="M24.4,6.5c0,0.9-0.2,1.7-0.5,2.5c-0.3,0.8-0.8,1.5-1.4,2.1s-1.3,1.1-2.1,1.4c-0.8,0.3-1.6,0.5-2.5,0.5
		c-0.9,0-1.7-0.2-2.5-0.5c-0.8-0.3-1.5-0.8-2.1-1.4c-0.6-0.6-1-1.3-1.4-2.1s-0.5-1.6-0.5-2.5c0-0.9,0.2-1.7,0.5-2.5
		c0.3-0.8,0.8-1.5,1.4-2.1c0.6-0.6,1.3-1,2.1-1.4C16.2,0.2,17,0,17.9,0c0.9,0,1.7,0.2,2.5,0.5c0.8,0.3,1.5,0.8,2.1,1.4
		s1,1.3,1.4,2.1C24.2,4.7,24.4,5.6,24.4,6.5z M22.7,6.5c0-0.7-0.1-1.3-0.4-1.9c-0.3-0.6-0.6-1.1-1-1.5s-0.9-0.8-1.5-1
		s-1.2-0.4-1.9-0.4c-0.7,0-1.3,0.1-1.9,0.4s-1.1,0.6-1.5,1s-0.8,1-1,1.5c-0.2,0.6-0.4,1.2-0.4,1.9c0,0.7,0.1,1.3,0.4,1.9
		c0.2,0.6,0.6,1.1,1,1.5s0.9,0.8,1.5,1s1.2,0.4,1.9,0.4c0.7,0,1.3-0.1,1.9-0.4s1.1-0.6,1.5-1s0.8-0.9,1-1.5
		C22.6,7.8,22.7,7.1,22.7,6.5z M22.3,6.4c0,0.6-0.1,1.2-0.3,1.7c-0.2,0.5-0.5,1-0.9,1.4s-0.9,0.7-1.4,1c-0.5,0.2-1.1,0.3-1.7,0.3
		c-0.6,0-1.2-0.1-1.7-0.3c-0.5-0.2-1-0.5-1.4-1S14,8.7,13.8,8.2c-0.2-0.5-0.3-1.1-0.3-1.7c0-0.6,0.1-1.2,0.3-1.7
		c0.2-0.5,0.5-1,0.9-1.4s0.9-0.7,1.4-1S17.3,2,17.9,2s1.2,0.1,1.7,0.4c0.5,0.2,1,0.6,1.4,1c0.4,0.4,0.7,0.9,0.9,1.4
		C22.2,5.3,22.3,5.8,22.3,6.4z M20.7,6.5c0-0.4-0.1-0.7-0.2-1.1c-0.1-0.3-0.3-0.6-0.6-0.9C19.6,4.2,19.3,4,19,3.9
		c-0.3-0.1-0.7-0.2-1.1-0.2c-0.4,0-0.7,0.1-1.1,0.2c-0.3,0.1-0.6,0.4-0.9,0.6c-0.2,0.3-0.4,0.6-0.6,0.9c-0.1,0.3-0.2,0.7-0.2,1.1
		c0,0.4,0.1,0.7,0.2,1.1c0.1,0.3,0.3,0.6,0.6,0.9c0.2,0.2,0.5,0.4,0.9,0.6c0.3,0.1,0.7,0.2,1.1,0.2c0.4,0,0.7-0.1,1.1-0.2
		c0.3-0.1,0.6-0.3,0.9-0.6c0.3-0.2,0.5-0.5,0.6-0.9C20.6,7.2,20.7,6.8,20.7,6.5z"/>
	<path fill="#FFFFFF" d="M27.6,12.8L24.4,0.2h1.7l3.2,12.6H27.6z M39.2,12.8h-1.7l-3-9.5l-0.2,0.6l2.8,8.9h-1.6l-2.1-6.3l-2,6.3
		h-1.8L26.5,0.2h1.6l1.5,5.9l1.8-5.9h1.7l-2.7,9.1l0.2,0.7l2.9-9.8h1.8l1.8,6.1l1.5-6.1h1.7L38,9.1l0.2,0.7l2.4-9.6h1.7L39.2,12.8z"
		/>
	<path fill="#FFFFFF" d="M49.4,12.8l-2.7-5.3v5.3h-1.7V4.1l-0.4-0.6v9.3H43V0.2h1.8l6.5,12.6H49.4z M51.7,12.8L45.3,0.2h1.8l2.9,5.4
		V0.2h1.7v8.9L52,9.7V0.2h1.7v12.6H51.7z"/>
	<path fill="#FFFFFF" d="M55.3,12.8V0.2H57v12.6H55.3z M57.4,12.8V0.2H59v8.9h3.7v1.7H59v0.3h3.7v1.7L57.4,12.8z"/>
	<path fill="#FFFFFF" d="M75.6,6.5c0,0.9-0.2,1.7-0.5,2.5c-0.3,0.8-0.8,1.5-1.4,2.1s-1.3,1.1-2.1,1.4c-0.8,0.3-1.6,0.5-2.5,0.5
		c-0.9,0-1.7-0.2-2.5-0.5c-0.8-0.3-1.5-0.8-2.1-1.4c-0.6-0.6-1-1.3-1.4-2.1s-0.5-1.6-0.5-2.5c0-0.9,0.2-1.7,0.5-2.5
		c0.3-0.8,0.8-1.5,1.4-2.1c0.6-0.6,1.3-1,2.1-1.4C67.4,0.2,68.3,0,69.2,0c0.9,0,1.7,0.2,2.5,0.5c0.8,0.3,1.5,0.8,2.1,1.4
		s1,1.3,1.4,2.1C75.5,4.7,75.6,5.6,75.6,6.5z M74,6.5c0-0.7-0.1-1.3-0.4-1.9C73.4,4,73,3.5,72.6,3s-0.9-0.8-1.5-1s-1.2-0.4-1.9-0.4
		c-0.7,0-1.3,0.1-1.9,0.4s-1.1,0.6-1.5,1s-0.8,1-1,1.5c-0.2,0.6-0.4,1.2-0.4,1.9c0,0.7,0.1,1.3,0.4,1.9c0.2,0.6,0.6,1.1,1,1.5
		s0.9,0.8,1.5,1s1.2,0.4,1.9,0.4c0.7,0,1.3-0.1,1.9-0.4s1.1-0.6,1.5-1s0.8-0.9,1-1.5C73.9,7.8,74,7.1,74,6.5z M73.6,6.4
		c0,0.6-0.1,1.2-0.3,1.7c-0.2,0.5-0.5,1-0.9,1.4s-0.9,0.7-1.4,1c-0.5,0.2-1.1,0.3-1.7,0.3c-0.6,0-1.2-0.1-1.7-0.3
		c-0.5-0.2-1-0.5-1.4-1s-0.7-0.9-0.9-1.4c-0.2-0.5-0.3-1.1-0.3-1.7c0-0.6,0.1-1.2,0.3-1.7c0.2-0.5,0.5-1,0.9-1.4s0.9-0.7,1.4-1
		S68.6,2,69.2,2s1.2,0.1,1.7,0.4c0.5,0.2,1,0.6,1.4,1c0.4,0.4,0.7,0.9,0.9,1.4C73.5,5.3,73.6,5.8,73.6,6.4z M72,6.5
		c0-0.4-0.1-0.7-0.2-1.1c-0.1-0.3-0.3-0.6-0.6-0.9c-0.3-0.3-0.5-0.5-0.9-0.6c-0.3-0.1-0.7-0.2-1.1-0.2c-0.4,0-0.7,0.1-1.1,0.2
		c-0.3,0.1-0.6,0.4-0.9,0.6C67,4.7,66.8,5,66.6,5.4c-0.1,0.3-0.2,0.7-0.2,1.1c0,0.4,0.1,0.7,0.2,1.1c0.1,0.3,0.3,0.6,0.6,0.9
		c0.2,0.2,0.5,0.4,0.9,0.6c0.3,0.1,0.7,0.2,1.1,0.2c0.4,0,0.7-0.1,1.1-0.2c0.3-0.1,0.6-0.3,0.9-0.6c0.3-0.2,0.5-0.5,0.6-0.9
		C71.9,7.2,72,6.8,72,6.5z"/>
	<path fill="#FFFFFF" d="M76.9,12.8h-1.7l4.4-12.6h1.7L76.9,12.8z M86.1,12.8l-3.5-9.9l-0.2,0.5l3.3,9.4h-1.8l-0.5-1.4h-3.8
		l-0.5,1.4h-1.8l4.4-12.6h1.8l4.3,12.6H86.1z M82.7,9.4h-2.5l-0.1,0.4h2.7L82.7,9.4z M81.5,6l-0.6,1.8h1.2L81.5,6z"/>
	<path fill="#FFFFFF" d="M88.3,0.2H90v12.6h-1.7V0.2z M98.9,6.5c0,0.7-0.1,1.4-0.3,2c-0.2,0.6-0.5,1.1-0.8,1.6
		c-0.3,0.5-0.7,0.9-1.2,1.2c-0.5,0.3-0.9,0.6-1.5,0.8c-0.5,0.2-1,0.4-1.6,0.5s-1,0.2-1.5,0.2h-1.7V0.2h1.7c0.5,0,1,0.1,1.6,0.2
		c0.5,0.1,1.1,0.3,1.6,0.5s1,0.5,1.4,0.9c0.4,0.4,0.8,0.8,1.2,1.2c0.3,0.5,0.6,1,0.8,1.6C98.8,5.2,98.9,5.8,98.9,6.5z M97.1,6.5
		c0-0.7-0.1-1.3-0.4-1.9S96,3.6,95.5,3.2c-0.5-0.4-1-0.8-1.6-1c-0.6-0.2-1.2-0.4-1.9-0.4v0.3c0.7,0,1.4,0.1,1.9,0.4
		c0.6,0.3,1.1,0.6,1.5,1C95.8,4,96.2,4.5,96.4,5s0.3,1,0.3,1.5c0,0.5-0.1,1-0.3,1.5c-0.2,0.5-0.5,1-0.9,1.4c-0.4,0.4-0.9,0.8-1.5,1
		c-0.6,0.3-1.3,0.4-2,0.4v0.3c0.7,0,1.4-0.1,2-0.4c0.6-0.2,1.2-0.6,1.6-1C96,9.5,96.4,9,96.7,8.4C96.9,7.8,97.1,7.2,97.1,6.5z
		 M95,6.5c0-0.5-0.1-0.9-0.3-1.3c-0.2-0.3-0.4-0.6-0.7-0.8c-0.3-0.2-0.6-0.3-1-0.4c-0.4-0.1-0.7-0.1-1-0.1v5.3c0.3,0,0.7,0,1-0.1
		c0.4-0.1,0.7-0.2,1-0.4c0.3-0.2,0.5-0.5,0.7-0.8C94.9,7.5,95,7,95,6.5z"/>
	<path fill="#FFFFFF" d="M104.3,1.8V0.2h9.9v1.7H104.3z M111.1,3.8v9h-1.7v-9H109v9h-1.7v-9h-3.1V2.2h9.9v1.6H111.1z"/>
	<path fill="#FFFFFF" d="M115,12.8V0.2h1.7v12.6H115z M121.3,12.8V8.3h-2.6v4.5H117V0.2h1.7v4.4h2.6V0.2h1.7v12.6H121.3z M121.3,6.2
		h-2.6v0.4h2.6V6.2z M123.3,12.8V0.2h1.7v12.6H123.3z"/>
	<path fill="#FFFFFF" d="M126.6,12.8V0.2h1.7v12.6H126.6z M128.7,12.8V0.2h7.2v1.7h-5.5v0.4h5.5v1.7h-5.5v0.8h5.5v1.7h-5.5v0.4h5.5
		v1.7h-5.5v0.8h5.5v1.7h-5.5v0.4h5.5v1.7L128.7,12.8z"/>
	<path fill="#FFFFFF" d="M150.6,8.9c0,0.6-0.1,1.1-0.4,1.6c-0.2,0.5-0.5,0.9-0.9,1.3c-0.4,0.4-0.8,0.6-1.4,0.8
		c-0.5,0.2-1,0.3-1.6,0.3c-0.5,0-1.1-0.1-1.6-0.2c-0.5-0.2-1-0.4-1.4-0.7s-0.8-0.7-1-1.1s-0.5-0.9-0.6-1.4l1.7-0.5
		c0,0.3,0.1,0.6,0.3,0.9s0.4,0.5,0.6,0.7s0.6,0.3,0.9,0.5c0.3,0.1,0.7,0.2,1,0.2c0.4,0,0.7-0.1,1-0.2s0.6-0.3,0.8-0.5
		s0.4-0.5,0.6-0.8c0.1-0.3,0.2-0.6,0.2-1c0-0.5-0.1-1-0.3-1.3c-0.2-0.3-0.5-0.6-0.9-0.8c-0.3-0.2-0.7-0.4-1.1-0.5
		c-0.4-0.1-0.8-0.3-1.1-0.5c-0.3-0.2-0.6-0.4-0.9-0.7c-0.2-0.3-0.3-0.6-0.3-1.1c0-0.3,0.1-0.6,0.2-0.8c0.1-0.2,0.3-0.5,0.5-0.6
		c0.2-0.2,0.4-0.3,0.7-0.4c0.3-0.1,0.5-0.1,0.8-0.1c0.3,0,0.5,0,0.8,0.1c0.2,0.1,0.4,0.2,0.6,0.4c0.2,0.2,0.3,0.4,0.5,0.6
		c0.1,0.2,0.2,0.5,0.2,0.7l-1.5,0.5c0-0.2-0.1-0.3-0.2-0.4c-0.1-0.1-0.2-0.2-0.4-0.2c-0.1,0-0.2,0-0.3,0.1c-0.1,0.1-0.1,0.2-0.1,0.3
		c0,0.2,0.1,0.4,0.3,0.5s0.5,0.3,0.9,0.4s0.7,0.3,1.1,0.4c0.4,0.2,0.8,0.4,1.1,0.7s0.6,0.7,0.9,1.1S150.6,8.2,150.6,8.9z M148.7,3.7
		c-0.1-0.6-0.4-1.1-0.8-1.5c-0.5-0.4-1-0.6-1.7-0.6c-0.3,0-0.6,0.1-0.9,0.2c-0.3,0.1-0.5,0.3-0.7,0.5c-0.2,0.2-0.4,0.4-0.5,0.7
		c-0.1,0.3-0.2,0.6-0.2,0.9c0,0.5,0.1,0.9,0.3,1.2c0.2,0.3,0.5,0.5,0.9,0.7s0.7,0.4,1.1,0.5c0.4,0.1,0.8,0.3,1.1,0.5
		s0.6,0.4,0.9,0.7s0.3,0.7,0.3,1.2c0,0.3-0.1,0.6-0.2,0.9c-0.1,0.3-0.3,0.5-0.5,0.7s-0.5,0.3-0.7,0.4c-0.3,0.1-0.6,0.2-0.9,0.2
		c-0.3,0-0.6,0-0.9-0.1c-0.3-0.1-0.6-0.2-0.8-0.4c-0.2-0.2-0.4-0.4-0.6-0.6c-0.1-0.3-0.2-0.5-0.3-0.9l1.5-0.4c0,0.3,0.1,0.5,0.3,0.7
		s0.4,0.2,0.7,0.2c0.2,0,0.3,0,0.5-0.1c0.2-0.1,0.2-0.2,0.2-0.4c0-0.2-0.1-0.4-0.3-0.6s-0.5-0.3-0.9-0.4c-0.4-0.1-0.7-0.3-1.1-0.5
		s-0.8-0.4-1.1-0.7c-0.4-0.3-0.6-0.6-0.9-1c-0.2-0.4-0.3-0.9-0.3-1.6c0-0.5,0.1-1,0.3-1.5c0.2-0.5,0.5-0.9,0.8-1.3
		c0.3-0.4,0.8-0.6,1.3-0.9s1-0.3,1.6-0.3c0.5,0,1,0.1,1.5,0.2c0.5,0.2,0.9,0.4,1.2,0.7c0.4,0.3,0.7,0.6,0.9,1
		c0.3,0.4,0.4,0.8,0.5,1.3L148.7,3.7z"/>
	<path fill="#FFFFFF" d="M164.2,6.5c0,0.9-0.2,1.7-0.5,2.5c-0.3,0.8-0.8,1.5-1.4,2.1c-0.6,0.6-1.3,1.1-2.1,1.4s-1.6,0.5-2.5,0.5
		c-0.9,0-1.7-0.2-2.5-0.5c-0.8-0.3-1.5-0.8-2.1-1.4c-0.6-0.6-1-1.3-1.4-2.1s-0.5-1.6-0.5-2.5c0-0.9,0.2-1.7,0.5-2.5
		c0.3-0.8,0.8-1.5,1.4-2.1c0.6-0.6,1.3-1,2.1-1.4c0.8-0.3,1.6-0.5,2.5-0.5c0.9,0,1.7,0.2,2.5,0.5c0.8,0.3,1.5,0.8,2.1,1.4
		c0.6,0.6,1,1.3,1.4,2.1C164,4.7,164.2,5.6,164.2,6.5z M162.6,6.5c0-0.7-0.1-1.3-0.4-1.9c-0.3-0.6-0.6-1.1-1-1.5s-0.9-0.8-1.5-1
		s-1.2-0.4-1.9-0.4c-0.7,0-1.3,0.1-1.9,0.4c-0.6,0.3-1.1,0.6-1.5,1s-0.8,1-1,1.5c-0.2,0.6-0.4,1.2-0.4,1.9c0,0.7,0.1,1.3,0.4,1.9
		c0.2,0.6,0.6,1.1,1,1.5s0.9,0.8,1.5,1c0.6,0.2,1.2,0.4,1.9,0.4c0.7,0,1.3-0.1,1.9-0.4s1.1-0.6,1.5-1s0.8-0.9,1-1.5
		C162.4,7.8,162.6,7.1,162.6,6.5z M162.1,6.4c0,0.6-0.1,1.2-0.3,1.7s-0.5,1-0.9,1.4c-0.4,0.4-0.9,0.7-1.4,1
		c-0.5,0.2-1.1,0.3-1.7,0.3c-0.6,0-1.2-0.1-1.7-0.3c-0.5-0.2-1-0.5-1.4-1c-0.4-0.4-0.7-0.9-1-1.4c-0.2-0.5-0.3-1.1-0.3-1.7
		c0-0.6,0.1-1.2,0.3-1.7c0.2-0.5,0.5-1,1-1.4c0.4-0.4,0.9-0.7,1.4-1c0.5-0.2,1.1-0.3,1.7-0.3c0.6,0,1.2,0.1,1.7,0.4
		c0.5,0.2,1,0.6,1.4,1c0.4,0.4,0.7,0.9,0.9,1.4C162,5.3,162.1,5.8,162.1,6.4z M160.5,6.5c0-0.4-0.1-0.7-0.2-1.1
		c-0.1-0.3-0.4-0.6-0.6-0.9c-0.3-0.3-0.5-0.5-0.9-0.6c-0.3-0.1-0.7-0.2-1.1-0.2c-0.4,0-0.7,0.1-1.1,0.2c-0.3,0.1-0.6,0.4-0.9,0.6
		c-0.2,0.3-0.4,0.6-0.6,0.9C155,5.7,155,6.1,155,6.5c0,0.4,0.1,0.7,0.2,1.1c0.1,0.3,0.3,0.6,0.6,0.9c0.2,0.2,0.5,0.4,0.9,0.6
		c0.3,0.1,0.7,0.2,1.1,0.2c0.4,0,0.7-0.1,1.1-0.2c0.3-0.1,0.6-0.3,0.9-0.6c0.3-0.2,0.5-0.5,0.6-0.9C160.4,7.2,160.5,6.8,160.5,6.5z"
		/>
	<path fill="#FFFFFF" d="M171.8,12.8l-2.7-5.3v5.3h-1.7V4.1l-0.4-0.6v9.3h-1.7V0.2h1.8l6.5,12.6H171.8z M174.1,12.8l-6.5-12.6h1.8
		l2.9,5.4V0.2h1.7v8.9l0.4,0.6V0.2h1.7v12.6H174.1z"/>
	<path fill="#FFFFFF" d="M189.9,7.4c0,0.8-0.2,1.5-0.5,2.2c-0.3,0.7-0.8,1.3-1.3,1.8c-0.6,0.5-1.2,0.9-1.9,1.2
		c-0.7,0.3-1.5,0.4-2.3,0.4c-0.9,0-1.7-0.2-2.5-0.5c-0.8-0.3-1.5-0.8-2.1-1.4c-0.6-0.6-1-1.3-1.4-2.1c-0.3-0.8-0.5-1.6-0.5-2.5
		c0-0.9,0.2-1.7,0.5-2.5c0.3-0.8,0.8-1.5,1.4-2.1c0.6-0.6,1.3-1,2.1-1.4c0.8-0.3,1.6-0.5,2.5-0.5c0.8,0,1.5,0.1,2.2,0.4
		c0.7,0.3,1.3,0.6,1.9,1.1c-0.1,0.1-0.1,0.1-0.3,0.3c-0.1,0.1-0.2,0.3-0.4,0.4c-0.1,0.2-0.3,0.3-0.5,0.5c-0.4-0.3-0.9-0.6-1.4-0.8
		c-0.5-0.2-1-0.3-1.6-0.3c-0.7,0-1.3,0.1-1.9,0.4c-0.6,0.3-1.1,0.6-1.5,1c-0.4,0.4-0.8,1-1,1.5c-0.3,0.6-0.4,1.2-0.4,1.9
		c0,0.7,0.1,1.3,0.4,1.9s0.6,1.1,1,1.5s0.9,0.8,1.5,1c0.6,0.2,1.2,0.4,1.9,0.4c0.5,0,1-0.1,1.4-0.2c0.5-0.1,0.9-0.3,1.3-0.6
		c0.4-0.3,0.7-0.6,1-0.9c0.3-0.4,0.5-0.8,0.7-1.2h-0.4c-0.2,0.4-0.4,0.7-0.7,1s-0.6,0.6-0.9,0.8c-0.3,0.2-0.7,0.4-1.1,0.5
		s-0.8,0.2-1.3,0.2c-0.6,0-1.2-0.1-1.7-0.3c-0.5-0.2-1-0.5-1.4-0.9c-0.4-0.4-0.7-0.9-1-1.4c-0.2-0.5-0.3-1.1-0.3-1.7
		c0-0.6,0.1-1.2,0.3-1.7s0.5-1,1-1.4c0.4-0.4,0.9-0.7,1.4-1c0.5-0.2,1.1-0.3,1.7-0.3c1.1,0,2,0.3,2.8,1c-0.1,0.2-0.3,0.3-0.4,0.5
		c-0.1,0.1-0.2,0.3-0.3,0.4c-0.1,0.1-0.2,0.3-0.3,0.4c-0.5-0.4-1.1-0.6-1.7-0.6c-0.4,0-0.7,0.1-1.1,0.2c-0.3,0.1-0.6,0.4-0.9,0.6
		c-0.2,0.3-0.4,0.6-0.6,0.9c-0.1,0.3-0.2,0.7-0.2,1.1c0,0.4,0.1,0.7,0.2,1.1c0.1,0.3,0.3,0.6,0.6,0.9c0.2,0.3,0.5,0.5,0.9,0.6
		c0.3,0.1,0.7,0.2,1.1,0.2c0.4,0,0.8-0.1,1.2-0.3c0.4-0.2,0.7-0.4,0.9-0.7h-3.3V6.6h7.3V7.4z M182.6,6.3V4.7h7.3v1.6H182.6z"/>
</g>
</svg>
