<?xml version="1.0" encoding="UTF-8"?><!DOCTYPE svg PUBLIC "-//W3C//DTD SVG 1.1//EN" "http://www.w3.org/Graphics/SVG/1.1/DTD/svg11.dtd"><svg xmlns="http://www.w3.org/2000/svg"><symbol id="cool-summer-classics" viewBox="0 0 160.5 143">
<path d="M70.7,66.9c0-0.2,0-0.4,0-0.6c0-5.3,4.3-9.5,9.5-9.5c5.3,0,9.5,4.3,9.5,9.5c0,0.1,0,0.3,0,0.4c0.6,0,1.3,0.1,1.9,0.1
	c0,0,0,0,0,0c0.1-0.3,0.2-0.5,0.2-0.5s0.1,0.2,0.1,0.5c0,0,0,0,0,0c0.5,0,1.1,0.1,1.6,0.1c0-0.1,0-0.2,0.1-0.3
	c0-0.2,0.1-0.4,0.1-0.5c0-0.1,0-0.2,0-0.2s0,0.1,0,0.2c0,0,0,0.1,0,0.1c0,0,0,0.1,0,0.1c0,0.1,0,0.2,0,0.3c0,0.1,0,0.2,0.1,0.3
	c0.6,0.1,1.3,0.1,1.9,0.2c0,0,0,0,0-0.1c0-0.1,0.1-0.3,0.1-0.4c0-0.2,0.1-0.4,0.1-0.5c0-0.1,0-0.2,0-0.2s0,0.1,0,0.2
	c0,0,0,0.1,0,0.1c0,0,0,0.1,0,0.1c0,0.1,0,0.2,0.1,0.3c0,0.1,0,0.2,0.1,0.4c0,0,0,0.1,0,0.1c0.6,0.1,1.1,0.1,1.7,0.2
	c0-0.1,0-0.1,0-0.2c0-0.2,0.1-0.3,0.1-0.4c0-0.3,0.1-0.5,0.1-0.6c0-0.1,0-0.2,0-0.2s0,0.1,0,0.2c0,0,0,0.1,0,0.1c0,0,0,0.1,0,0.1
	c0,0.1,0,0.2,0.1,0.4c0,0.1,0,0.3,0,0.4c0,0.1,0,0.1,0,0.2c0.5,0.1,1.1,0.1,1.6,0.2c0,0,0,0,0,0c0-0.1,0-0.2,0-0.3
	c0-0.2,0.1-0.3,0.1-0.5c0-0.3,0.1-0.5,0.1-0.7c0-0.2,0-0.2,0-0.2s0,0.1,0,0.2c0,0,0,0.1,0,0.1c0,0,0,0.1,0,0.2c0,0.1,0,0.2,0.1,0.4
	c0,0.1,0,0.3,0,0.5c0,0.1,0,0.2,0,0.3c0.5,0.1,1.1,0.1,1.6,0.2c0-0.1,0-0.1,0-0.2c0-0.1,0-0.2,0.1-0.3c0-0.2,0.1-0.4,0.1-0.5
	c0-0.3,0.1-0.6,0.1-0.7c0-0.2,0-0.3,0-0.3s0,0.1,0,0.3c0,0,0,0.1,0,0.1c0,0.1,0,0.1,0,0.2c0,0.1,0,0.3,0.1,0.4c0,0.2,0,0.3,0,0.5
	c0,0.2,0,0.3,0,0.5c0.5,0.1,1,0.2,1.6,0.2c0-0.1,0-0.2,0.1-0.3c0-0.1,0-0.2,0.1-0.3c0-0.2,0.1-0.4,0.1-0.6c0.1-0.7,0.2-1.1,0.2-1.1
	s0,0.1,0,0.3c0,0,0,0.1,0,0.2c0,0.1,0,0.1,0,0.2c0,0.1,0,0.3,0.1,0.5c0,0.2,0,0.4,0,0.6c0,0.2,0,0.5,0,0.7c0,0,0,0,0,0
	c0.6,0.1,1.1,0.2,1.7,0.3c0.1-0.8,0.1-1.5,0.1-2.3c0-14.6-11.9-26.5-26.5-26.5c-14.6,0-26.5,11.9-26.5,26.5c0,0.9,0,1.8,0.1,2.7
	C59.2,68,64.9,67.3,70.7,66.9z M73.5,56.6c0.3-0.1,0.5-0.2,0.5-0.2s-0.1,0.2-0.3,0.4c-0.1,0.1-0.1,0.1-0.2,0.2
	c-0.1,0.1-0.1,0.2-0.2,0.2c-0.1,0.1-0.2,0.2-0.2,0.3c-0.1,0.1-0.2,0.2-0.2,0.3c-0.2,0.2-0.3,0.4-0.5,0.7c0,0,0,0.1-0.1,0.1
	c0,0,0,0.1-0.1,0.1c0,0.1-0.1,0.1-0.1,0.2c-0.1,0.1-0.2,0.3-0.3,0.4c-0.1,0.1-0.2,0.3-0.3,0.4c-0.1,0.1-0.2,0.3-0.3,0.4
	c-0.1,0.1-0.2,0.3-0.3,0.4l-0.1,0.2c0,0.1-0.1,0.2-0.1,0.2c-0.1,0.2-0.2,0.3-0.2,0.5c-0.1,0.2-0.1,0.3-0.2,0.5l-0.1,0.1l-0.1,0.1
	c0,0.1-0.1,0.2-0.1,0.2c0,0.1-0.1,0.2-0.1,0.2c0,0.1-0.1,0.2-0.1,0.2c-0.1,0.2-0.1,0.3-0.2,0.5c-0.1,0.2-0.1,0.3-0.2,0.4
	c0,0.1-0.1,0.1-0.1,0.2c0,0.1,0,0.1-0.1,0.2c0,0.1-0.1,0.3-0.1,0.4c0,0,0,0.1,0,0.1c0,0,0,0.1,0,0.1c0,0.1,0,0.1-0.1,0.2
	c0,0.1-0.1,0.2-0.1,0.3c0,0.1-0.1,0.2-0.1,0.3c0,0.1-0.1,0.2-0.1,0.3c0,0.1,0,0.2-0.1,0.2c0,0,0,0,0,0c0,0,0,0,0,0c0,0,0,0,0,0
	c0,0,0,0.1,0,0.1c0,0.1,0,0.1,0,0.1s0,0,0-0.1c0,0,0,0,0-0.1c0,0,0,0,0,0c0,0,0,0,0,0c0,0,0,0,0,0c0-0.1,0-0.1-0.1-0.2
	c0-0.1,0-0.2-0.1-0.3c0-0.1,0-0.2-0.1-0.3c0-0.1,0-0.2,0-0.4c0-0.1,0-0.1,0-0.2c0,0,0-0.1,0-0.1c0,0,0-0.1,0-0.1c0-0.1,0-0.3,0-0.5
	c0-0.1,0-0.2,0-0.2c0-0.1,0-0.2,0-0.2c0-0.2,0-0.3,0.1-0.5c0-0.2,0.1-0.4,0.1-0.5c0-0.1,0-0.2,0.1-0.3c0-0.1,0.1-0.2,0.1-0.3
	c0-0.1,0.1-0.2,0.1-0.3l0-0.1l0.1-0.1c0.1-0.2,0.1-0.4,0.2-0.5c0.1-0.2,0.2-0.4,0.3-0.5c0.1-0.2,0.2-0.3,0.3-0.5
	c0.1-0.2,0.2-0.3,0.3-0.5c0.1-0.2,0.2-0.3,0.4-0.5c0.1-0.1,0.3-0.3,0.4-0.4c0.1-0.1,0.3-0.3,0.4-0.4c0.1-0.1,0.1-0.1,0.2-0.2
	c0,0,0.1-0.1,0.1-0.1c0,0,0.1-0.1,0.1-0.1c0.1-0.1,0.3-0.2,0.4-0.3c0.1-0.1,0.3-0.2,0.4-0.3c0.1-0.1,0.2-0.2,0.4-0.2
	c0.1-0.1,0.2-0.1,0.3-0.2c0.1-0.1,0.2-0.1,0.3-0.1C73.3,56.7,73.4,56.7,73.5,56.6z M72.4,55c0.4-0.1,0.6-0.2,0.6-0.2
	s-0.1,0.2-0.4,0.5c0,0-0.1,0.1-0.1,0.1c0,0-0.1,0.1-0.1,0.1c-0.1,0.1-0.2,0.2-0.2,0.3c-0.1,0.1-0.2,0.2-0.3,0.3
	c-0.1,0.1-0.2,0.2-0.3,0.4c-0.2,0.2-0.4,0.5-0.7,0.8c0,0-0.1,0.1-0.1,0.1c0,0-0.1,0.1-0.1,0.1c-0.1,0.1-0.1,0.2-0.2,0.2
	c-0.1,0.2-0.2,0.3-0.3,0.5c-0.1,0.2-0.2,0.3-0.3,0.5c-0.1,0.2-0.2,0.3-0.3,0.5c-0.1,0.2-0.2,0.4-0.3,0.5c-0.1,0.1-0.1,0.2-0.2,0.3
	c-0.1,0.1-0.1,0.2-0.1,0.3c-0.1,0.2-0.2,0.4-0.3,0.5c-0.1,0.2-0.2,0.4-0.3,0.6l-0.1,0.1l-0.1,0.1c0,0.1-0.1,0.2-0.1,0.3
	c0,0.1-0.1,0.2-0.1,0.3c0,0.1-0.1,0.2-0.1,0.3c-0.1,0.2-0.1,0.4-0.2,0.5c-0.1,0.2-0.1,0.4-0.2,0.5c0,0.1-0.1,0.2-0.1,0.3
	c0,0.1,0,0.2-0.1,0.3c-0.1,0.2-0.1,0.3-0.1,0.5c0,0,0,0.1,0,0.1c0,0,0,0.1,0,0.1c0,0.1,0,0.1-0.1,0.2c0,0.1-0.1,0.3-0.1,0.4
	c0,0.1-0.1,0.3-0.1,0.4c0,0.1-0.1,0.2-0.1,0.3c0,0.1,0,0.2-0.1,0.3c0,0,0,0.1,0,0.1c0,0,0,0.1,0,0.1c0,0.1,0,0.2,0,0.2s0-0.1,0-0.2
	c0,0,0-0.1,0-0.1c0,0,0-0.1,0-0.1c0-0.1,0-0.2-0.1-0.3c0-0.1,0-0.2-0.1-0.3c0-0.1,0-0.2-0.1-0.4c0-0.1,0-0.3,0-0.4
	c0-0.1,0-0.2,0-0.2c0,0,0-0.1,0-0.1c0,0,0-0.1,0-0.1c0-0.2,0-0.3,0-0.5c0-0.1,0-0.2,0-0.3c0-0.1,0-0.2,0-0.3c0-0.2,0.1-0.4,0.1-0.6
	c0-0.2,0.1-0.4,0.1-0.6c0-0.1,0-0.2,0.1-0.3c0-0.1,0.1-0.2,0.1-0.3c0-0.1,0.1-0.2,0.1-0.3c0-0.1,0-0.1,0.1-0.2l0.1-0.2
	c0.1-0.2,0.2-0.4,0.3-0.6c0.1-0.2,0.2-0.4,0.3-0.6c0.1-0.2,0.2-0.4,0.4-0.6c0.1-0.2,0.2-0.4,0.4-0.6c0.1-0.2,0.3-0.4,0.4-0.5
	c0.1-0.2,0.3-0.3,0.4-0.5c0.1-0.2,0.3-0.3,0.4-0.5c0.1-0.1,0.2-0.1,0.2-0.2c0,0,0.1-0.1,0.1-0.1c0,0,0.1-0.1,0.1-0.1
	c0.2-0.1,0.3-0.2,0.5-0.4c0.1-0.1,0.3-0.2,0.4-0.3c0.1-0.1,0.3-0.2,0.4-0.3c0.1-0.1,0.3-0.1,0.4-0.2c0.1-0.1,0.2-0.1,0.3-0.2
	C72.2,55,72.3,55,72.4,55z M71.6,52.8c0.1,0,0.2-0.1,0.2-0.1S71.7,52.8,71.6,52.8c0,0.2-0.2,0.3-0.3,0.4c-0.1,0.1-0.2,0.2-0.3,0.3
	c-0.1,0.1-0.2,0.2-0.3,0.3c-0.1,0.1-0.2,0.2-0.3,0.4c-0.1,0.1-0.2,0.3-0.4,0.4c-0.1,0.1-0.3,0.3-0.4,0.4c-0.1,0.1-0.1,0.2-0.2,0.2
	c-0.1,0.1-0.1,0.2-0.2,0.2c-0.1,0.2-0.3,0.3-0.4,0.5c-0.1,0.2-0.3,0.4-0.4,0.5c-0.1,0.2-0.3,0.4-0.4,0.6c-0.1,0.2-0.3,0.4-0.4,0.6
	c-0.1,0.2-0.3,0.4-0.4,0.6c-0.1,0.2-0.2,0.4-0.4,0.6c-0.2,0.4-0.5,0.9-0.7,1.3c-0.2,0.4-0.4,0.9-0.6,1.3c-0.1,0.2-0.2,0.4-0.2,0.6
	c-0.1,0.2-0.1,0.4-0.2,0.6c0,0.1-0.1,0.2-0.1,0.3c0,0.1-0.1,0.2-0.1,0.3c-0.1,0.2-0.1,0.4-0.2,0.6c-0.1,0.4-0.2,0.7-0.3,1
	c0,0.2-0.1,0.3-0.1,0.4c0,0.1-0.1,0.3-0.1,0.4c0,0.1,0,0.2-0.1,0.3c0,0.1,0,0.2,0,0.2c0,0.1,0,0.2,0,0.2s0-0.1,0-0.2
	c0,0,0-0.1,0-0.1c0,0,0-0.1,0-0.1c0-0.1,0-0.2-0.1-0.3c0-0.1,0-0.2-0.1-0.4c0-0.1,0-0.3,0-0.5c0-0.3,0-0.7,0-1.1c0-0.2,0-0.4,0-0.6
	c0-0.1,0-0.2,0-0.3c0-0.1,0-0.2,0-0.3c0-0.1,0-0.1,0-0.2c0-0.1,0-0.1,0-0.2c0-0.1,0-0.2,0.1-0.4c0-0.2,0.1-0.5,0.2-0.7
	c0.1-0.5,0.3-1,0.5-1.5c0.2-0.5,0.4-1,0.7-1.5c0.1-0.2,0.3-0.5,0.4-0.7c0.1-0.2,0.3-0.5,0.4-0.7c0.2-0.2,0.3-0.4,0.5-0.6
	c0.2-0.2,0.3-0.4,0.5-0.6c0.2-0.2,0.3-0.4,0.5-0.5c0.1-0.1,0.2-0.2,0.3-0.2c0.1-0.1,0.2-0.2,0.3-0.2c0.3-0.3,0.7-0.6,1-0.8
	c0.2-0.1,0.3-0.2,0.5-0.3c0.2-0.1,0.3-0.2,0.4-0.3c0.3-0.2,0.5-0.3,0.7-0.4C71.3,52.9,71.5,52.9,71.6,52.8z M70.5,51
	c0.1-0.1,0.2-0.1,0.2-0.1S70.6,51,70.5,51c-0.1,0.2-0.2,0.3-0.4,0.5c-0.1,0.1-0.2,0.2-0.3,0.3c-0.1,0.1-0.2,0.2-0.4,0.3
	c-0.1,0.1-0.3,0.3-0.4,0.4c-0.1,0.1-0.3,0.3-0.4,0.5c-0.1,0.2-0.3,0.3-0.4,0.5c-0.1,0.1-0.2,0.2-0.2,0.3c-0.1,0.1-0.2,0.2-0.2,0.3
	c-0.2,0.2-0.3,0.4-0.5,0.6c-0.2,0.2-0.3,0.4-0.5,0.6c-0.2,0.2-0.3,0.4-0.5,0.7c-0.1,0.1-0.2,0.2-0.2,0.3c-0.1,0.1-0.2,0.2-0.2,0.3
	c-0.2,0.2-0.3,0.5-0.4,0.7c-0.1,0.2-0.3,0.5-0.4,0.7c-0.3,0.5-0.5,1-0.8,1.5c0,0.1-0.1,0.1-0.1,0.2c0,0.1-0.1,0.1-0.1,0.2
	c-0.1,0.1-0.1,0.3-0.2,0.4c-0.1,0.3-0.2,0.5-0.3,0.7c-0.1,0.2-0.2,0.5-0.3,0.7c-0.1,0.2-0.2,0.5-0.2,0.7c0,0.1-0.1,0.2-0.1,0.3
	c0,0.1-0.1,0.2-0.1,0.3c0,0.1-0.1,0.2-0.1,0.3c0,0.1-0.1,0.2-0.1,0.3c-0.1,0.4-0.2,0.8-0.3,1.2c0,0.2-0.1,0.3-0.1,0.5
	c0,0.2-0.1,0.3-0.1,0.4c0,0.1,0,0.2-0.1,0.3c0,0,0,0.1,0,0.1c0,0,0,0.1,0,0.1c0,0.1,0,0.2,0,0.2s0-0.1,0-0.2c0,0,0-0.1,0-0.1
	c0,0,0-0.1,0-0.1c0-0.1,0-0.2-0.1-0.3c0-0.1,0-0.3-0.1-0.4c0-0.2,0-0.3,0-0.5c0-0.4,0-0.8,0-1.2c0-0.2,0-0.5,0-0.7
	c0-0.1,0-0.2,0-0.4c0-0.1,0-0.3,0.1-0.4c0-0.1,0-0.1,0-0.2c0-0.1,0-0.1,0-0.2c0-0.1,0-0.3,0.1-0.4c0.1-0.3,0.1-0.5,0.2-0.8
	c0-0.1,0.1-0.3,0.1-0.4c0-0.1,0.1-0.3,0.1-0.4c0-0.1,0.1-0.3,0.1-0.4c0-0.1,0.1-0.1,0.1-0.2c0-0.1,0.1-0.1,0.1-0.2
	c0.1-0.3,0.2-0.6,0.4-0.8c0.1-0.1,0.1-0.3,0.2-0.4c0.1-0.1,0.1-0.3,0.2-0.4c0.1-0.3,0.3-0.5,0.5-0.8c0.2-0.3,0.3-0.5,0.5-0.8
	c0.3-0.5,0.7-0.9,1.1-1.4c0.2-0.2,0.4-0.4,0.6-0.6c0.1-0.1,0.2-0.2,0.3-0.3c0,0,0.1-0.1,0.1-0.1c0,0,0.1-0.1,0.1-0.1
	c0.4-0.3,0.8-0.6,1.1-0.9c0.2-0.1,0.4-0.2,0.5-0.4c0.2-0.1,0.3-0.2,0.5-0.3c0.3-0.2,0.6-0.3,0.8-0.4C70.1,51.1,70.3,51,70.5,51z
	 M69.4,49.2c0.1-0.1,0.2-0.1,0.2-0.1S69.5,49.2,69.4,49.2c-0.1,0.2-0.2,0.3-0.4,0.5c-0.1,0.1-0.2,0.2-0.3,0.3
	c-0.1,0.1-0.3,0.2-0.4,0.4c-0.1,0.1-0.3,0.3-0.4,0.4c-0.2,0.2-0.3,0.3-0.5,0.5c-0.2,0.2-0.3,0.4-0.5,0.6c-0.1,0.1-0.2,0.2-0.3,0.3
	c-0.1,0.1-0.2,0.2-0.3,0.3c0,0.1-0.1,0.1-0.1,0.2c0,0.1-0.1,0.1-0.1,0.2c-0.1,0.1-0.2,0.2-0.3,0.3c-0.2,0.2-0.4,0.5-0.5,0.7
	c-0.2,0.2-0.4,0.5-0.5,0.7c-0.1,0.1-0.2,0.3-0.3,0.4c-0.1,0.1-0.2,0.3-0.3,0.4c-0.2,0.3-0.3,0.5-0.5,0.8c-0.2,0.3-0.3,0.5-0.5,0.8
	c-0.3,0.6-0.6,1.1-0.8,1.7c0,0.1-0.1,0.1-0.1,0.2c0,0.1-0.1,0.1-0.1,0.2c-0.1,0.1-0.1,0.3-0.2,0.4c-0.1,0.3-0.2,0.6-0.3,0.8
	c-0.1,0.3-0.2,0.6-0.3,0.8c0,0.1-0.1,0.3-0.1,0.4c0,0.1-0.1,0.3-0.1,0.4c0,0.1-0.1,0.3-0.1,0.4c0,0.1-0.1,0.3-0.1,0.4
	c0,0.1-0.1,0.2-0.1,0.4c0,0.1-0.1,0.2-0.1,0.4c-0.1,0.5-0.2,0.9-0.3,1.3c0,0.2-0.1,0.4-0.1,0.5c0,0.2-0.1,0.3-0.1,0.5
	c0,0.1,0,0.3-0.1,0.4c0,0.1,0,0.1,0,0.2c0,0,0,0.1,0,0.1c0,0.2,0,0.2,0,0.2s0-0.1,0-0.2c0,0,0-0.1,0-0.1c0-0.1,0-0.1,0-0.2
	c0-0.1,0-0.2-0.1-0.4c0-0.1,0-0.3,0-0.5c0-0.2,0-0.4,0-0.6c0-0.4,0-0.9,0-1.4c0-0.3,0-0.5,0.1-0.8c0-0.1,0-0.3,0-0.4
	c0-0.1,0-0.3,0.1-0.4c0-0.1,0-0.1,0-0.2c0-0.1,0-0.1,0-0.2c0-0.1,0.1-0.3,0.1-0.4c0.1-0.3,0.1-0.6,0.2-0.9c0-0.2,0.1-0.3,0.1-0.5
	c0-0.2,0.1-0.3,0.1-0.5c0.1-0.2,0.1-0.3,0.2-0.5c0-0.1,0.1-0.2,0.1-0.2c0-0.1,0.1-0.2,0.1-0.2c0.1-0.3,0.3-0.6,0.4-0.9
	c0.1-0.2,0.2-0.3,0.2-0.5c0-0.1,0.1-0.2,0.1-0.2l0.1-0.2c0.2-0.3,0.3-0.6,0.5-0.9c0.2-0.3,0.4-0.6,0.6-0.8c0.4-0.5,0.8-1.1,1.2-1.5
	c0.2-0.2,0.4-0.5,0.6-0.7c0.1-0.1,0.2-0.2,0.3-0.3c0.1-0.1,0.1-0.1,0.2-0.2c0.1,0,0.1-0.1,0.2-0.1c0.1-0.1,0.2-0.2,0.3-0.3
	c0.1-0.1,0.2-0.2,0.3-0.3c0.2-0.2,0.4-0.3,0.6-0.5c0.1-0.1,0.2-0.1,0.3-0.2c0.1-0.1,0.2-0.1,0.3-0.2c0.2-0.1,0.4-0.2,0.6-0.3
	c0.4-0.2,0.7-0.4,0.9-0.5C69,49.4,69.2,49.3,69.4,49.2z M68.2,47.4c0.2-0.1,0.2-0.1,0.2-0.1S68.4,47.3,68.2,47.4
	c-0.1,0.2-0.3,0.3-0.5,0.6c-0.1,0.1-0.3,0.2-0.4,0.4c-0.1,0.1-0.3,0.3-0.5,0.4c-0.2,0.2-0.3,0.3-0.5,0.5c-0.2,0.2-0.4,0.4-0.5,0.5
	c-0.2,0.2-0.4,0.4-0.6,0.6c-0.1,0.1-0.2,0.2-0.3,0.3c-0.1,0.1-0.2,0.2-0.3,0.3c-0.1,0.1-0.1,0.1-0.2,0.2c0,0.1-0.1,0.1-0.1,0.2
	c-0.1,0.1-0.2,0.2-0.3,0.4c-0.2,0.3-0.4,0.5-0.6,0.8c-0.2,0.3-0.4,0.5-0.6,0.8c-0.1,0.1-0.2,0.3-0.3,0.4c-0.1,0.1-0.2,0.3-0.3,0.4
	c-0.2,0.3-0.4,0.6-0.6,0.9c-0.2,0.3-0.4,0.6-0.5,0.9c-0.3,0.6-0.7,1.2-0.9,1.9c0,0.1-0.1,0.2-0.1,0.2c0,0.1-0.1,0.2-0.1,0.2
	c-0.1,0.2-0.1,0.3-0.2,0.5c-0.1,0.3-0.2,0.6-0.4,0.9c-0.1,0.3-0.2,0.6-0.3,0.9c0,0.2-0.1,0.3-0.1,0.5c0,0.1-0.1,0.3-0.1,0.4
	c0,0.1-0.1,0.3-0.1,0.4c0,0.1-0.1,0.3-0.1,0.4c0,0.1-0.1,0.3-0.1,0.4c0,0.1-0.1,0.3-0.1,0.4c-0.1,0.5-0.2,1-0.3,1.4
	c0,0.2-0.1,0.4-0.1,0.6c0,0.2-0.1,0.4-0.1,0.5c-0.1,0.6-0.2,1-0.2,1s0-0.1,0-0.3c0,0,0-0.1,0-0.1c0-0.1,0-0.1,0-0.2
	c0-0.1,0-0.3-0.1-0.4c0-0.2,0-0.3,0-0.5c0-0.2,0-0.4,0-0.6c0-0.4,0-1,0-1.5c0-0.3,0-0.6,0.1-0.9c0-0.1,0-0.3,0.1-0.5
	c0-0.2,0-0.3,0.1-0.5c0-0.1,0-0.2,0-0.2c0-0.1,0-0.2,0-0.2c0-0.2,0.1-0.3,0.1-0.5c0.1-0.3,0.2-0.7,0.2-1c0-0.1,0-0.2,0.1-0.3
	c0-0.1,0-0.2,0.1-0.3c0.1-0.2,0.1-0.3,0.2-0.5c0.1-0.2,0.1-0.3,0.2-0.5c0-0.1,0.1-0.2,0.1-0.3c0-0.1,0.1-0.2,0.1-0.3
	c0.1-0.2,0.1-0.3,0.2-0.5c0.1-0.2,0.2-0.3,0.2-0.5c0.1-0.2,0.2-0.3,0.2-0.5c0-0.1,0.1-0.2,0.1-0.3l0.1-0.2c0.2-0.3,0.4-0.6,0.6-1
	c0.2-0.3,0.4-0.6,0.6-0.9c0.4-0.6,0.9-1.2,1.3-1.7c0.2-0.3,0.5-0.5,0.7-0.8c0.1-0.1,0.2-0.2,0.4-0.3c0.1-0.1,0.1-0.1,0.2-0.2
	c0.1-0.1,0.1-0.1,0.2-0.2c0.1-0.1,0.2-0.2,0.4-0.3c0.1-0.1,0.2-0.2,0.4-0.3c0.2-0.2,0.5-0.4,0.7-0.5c0.1-0.1,0.2-0.2,0.3-0.2
	c0.1-0.1,0.2-0.2,0.3-0.2c0.2-0.1,0.4-0.3,0.6-0.4c0.2-0.1,0.4-0.2,0.5-0.3c0.2-0.1,0.3-0.2,0.5-0.2C67.8,47.5,68.1,47.4,68.2,47.4z
	 M55.6,61.8c0-0.2,0-0.3,0.1-0.5c0-0.2,0.1-0.3,0.1-0.5c0-0.1,0-0.2,0-0.3c0-0.1,0-0.2,0.1-0.3c0-0.2,0.1-0.4,0.1-0.5
	c0.1-0.4,0.2-0.7,0.3-1.1c0-0.1,0.1-0.2,0.1-0.3c0-0.1,0.1-0.2,0.1-0.3c0.1-0.2,0.1-0.4,0.2-0.6c0.1-0.2,0.1-0.4,0.2-0.6
	c0-0.1,0.1-0.2,0.1-0.3c0-0.1,0.1-0.2,0.1-0.3c0.1-0.2,0.2-0.4,0.2-0.6c0.1-0.2,0.2-0.4,0.3-0.6c0.1-0.2,0.2-0.4,0.3-0.5
	c0-0.1,0.1-0.2,0.1-0.3l0.1-0.3c0.2-0.4,0.4-0.7,0.6-1.1c0.2-0.3,0.4-0.7,0.7-1c0.5-0.7,1-1.3,1.5-1.8c0.3-0.3,0.5-0.6,0.8-0.8
	c0.1-0.1,0.3-0.3,0.4-0.4c0.1-0.1,0.1-0.1,0.2-0.2c0.1-0.1,0.1-0.1,0.2-0.2c0.1-0.1,0.3-0.2,0.4-0.3c0.1-0.1,0.3-0.2,0.4-0.3
	c0.3-0.2,0.5-0.4,0.7-0.6c0.1-0.1,0.2-0.2,0.4-0.3c0.1-0.1,0.2-0.2,0.3-0.2c0.2-0.2,0.5-0.3,0.7-0.4c0.2-0.1,0.4-0.2,0.6-0.3
	c0.2-0.1,0.4-0.2,0.5-0.3c0.3-0.2,0.6-0.3,0.7-0.4c0.2-0.1,0.3-0.1,0.3-0.1s-0.1,0.1-0.2,0.2c-0.1,0.1-0.4,0.3-0.6,0.5
	c-0.1,0.1-0.3,0.2-0.4,0.4c-0.2,0.1-0.3,0.3-0.5,0.5c-0.2,0.2-0.4,0.3-0.6,0.5c-0.2,0.2-0.4,0.4-0.6,0.6c-0.2,0.2-0.4,0.4-0.6,0.7
	c-0.1,0.1-0.2,0.2-0.3,0.4c-0.1,0.1-0.2,0.2-0.3,0.4c-0.1,0.1-0.1,0.1-0.2,0.2c-0.1,0.1-0.1,0.1-0.2,0.2c-0.1,0.1-0.2,0.3-0.3,0.4
	c-0.2,0.3-0.4,0.5-0.7,0.8c-0.2,0.3-0.4,0.6-0.7,0.9c-0.1,0.2-0.2,0.3-0.3,0.5c-0.1,0.2-0.2,0.3-0.3,0.5c-0.2,0.3-0.4,0.6-0.6,1
	c-0.2,0.3-0.4,0.7-0.6,1c-0.4,0.7-0.7,1.4-1,2.1c0,0.1-0.1,0.2-0.1,0.3c0,0.1-0.1,0.2-0.1,0.3C58,57.7,58,57.8,57.9,58
	c-0.1,0.3-0.3,0.7-0.4,1c-0.1,0.3-0.2,0.7-0.3,1c-0.1,0.2-0.1,0.3-0.2,0.5c-0.1,0.2-0.1,0.3-0.1,0.5c0,0.2-0.1,0.3-0.1,0.5
	c0,0.2-0.1,0.3-0.1,0.5c0,0.2-0.1,0.3-0.1,0.5c0,0.1-0.1,0.3-0.1,0.4c-0.1,0.6-0.2,1.1-0.3,1.6c0,0.2-0.1,0.5-0.1,0.7
	c0,0.2-0.1,0.4-0.1,0.6c0,0.2,0,0.3-0.1,0.5c0,0.1,0,0.1,0,0.2c0,0.1,0,0.1,0,0.2c0,0.2,0,0.3,0,0.3s0-0.1,0-0.3c0,0,0-0.1,0-0.2
	c0-0.1,0-0.1,0-0.2c0-0.1,0-0.3-0.1-0.5c0-0.2,0-0.4,0-0.6c0-0.2,0-0.4,0-0.7c0-0.5,0-1,0-1.7C55.6,62.4,55.6,62.1,55.6,61.8z"/>
<path d="M79.2,66.3c0-0.6,0.4-1,1-1c0.6,0,1,0.4,1,1c0,0.1,0,0.1,0,0.2c0.1,0,0.1,0,0.2,0c2.4,0,4.8,0.1,7.1,0.2c0-0.1,0-0.2,0-0.4
	c0-4.6-3.7-8.3-8.3-8.3c-4.6,0-8.3,3.7-8.3,8.3c0,0.2,0,0.3,0,0.5c2.4-0.1,4.8-0.2,7.2-0.3C79.2,66.5,79.2,66.4,79.2,66.3z"/>
<path d="M36.7,59.3c-0.1,0.7,13.5,4,13.5,4c0.7,0.1,1.5-0.3,1.6-1.1c0.1-0.7-0.3-1.5-1.1-1.6C50.7,60.6,36.9,58.6,36.7,59.3z"/>
<path d="M37.5,47.4c-0.3,0.7,14.7,8.1,14.7,8.1c0.7,0.3,1.5,0,1.8-0.7c0.3-0.7,0-1.5-0.7-1.8C53.3,53,37.8,46.7,37.5,47.4z"/>
<path d="M40.1,33.2c-0.5,0.6,15.8,15.1,15.8,15.1c0.6,0.5,1.4,0.4,1.9-0.2c0.5-0.6,0.4-1.4-0.2-1.9C57.7,46.2,40.6,32.6,40.1,33.2z"/>
<path d="M49.6,20.2c-0.6,0.4,13,21.3,13,21.3c0.4,0.6,1.3,0.8,1.9,0.4c0.6-0.4,0.8-1.3,0.4-1.9C64.8,40,50.2,19.8,49.6,20.2z"/>
<path d="M61.3,9.3c-0.7,0.3,9.2,28.2,9.2,28.2c0.3,0.7,1.1,1.1,1.8,0.8c0.7-0.3,1.1-1.1,0.8-1.8C73.1,36.5,62.1,9,61.3,9.3z"/>
<path d="M109.7,60.6c-0.7,0.1-1.2,0.9-1.1,1.6c0.1,0.7,0.9,1.2,1.6,1.1c0,0,13.6-3.3,13.5-4C123.5,58.6,109.7,60.6,109.7,60.6z"/>
<path d="M107.1,53c-0.7,0.3-1,1.1-0.7,1.8c0.3,0.7,1.1,1,1.8,0.7c0,0,15-7.4,14.7-8.1C122.6,46.7,107.1,53,107.1,53z"/>
<path d="M102.7,46.2c-0.6,0.5-0.7,1.4-0.2,1.9c0.5,0.6,1.4,0.7,1.9,0.2c0,0,16.3-14.6,15.8-15.1C119.8,32.6,102.7,46.2,102.7,46.2z"/>
<path d="M95.6,40c-0.4,0.6-0.3,1.5,0.4,1.9c0.6,0.4,1.5,0.3,1.9-0.4c0,0,13.6-20.9,13-21.3C110.2,19.8,95.6,40,95.6,40z"/>
<path d="M87.3,36.5c-0.3,0.7,0.1,1.5,0.8,1.8c0.7,0.3,1.5-0.1,1.8-0.8c0,0,9.9-27.9,9.2-28.2C98.3,9,87.3,36.5,87.3,36.5z"/>
<path d="M78.9,35.7c0,0.8,0.6,1.4,1.4,1.4c0.8,0,1.4-0.6,1.4-1.4c0,0-0.6-35.7-1.4-35.7C79.6,0,78.9,35.7,78.9,35.7z"/>
<path d="M53.6,89.9c-0.5,0.5-1.1,0.9-1.7,1.3c-0.6,0.4-1.3,0.7-2,1c-0.7,0.3-1.5,0.5-2.4,0.6c-1.4,0.2-2.6,0.2-3.7-0.1
	s-2.1-0.8-3-1.5c-0.8-0.7-1.5-1.6-2-2.7c-0.5-1.1-0.7-2.3-0.7-3.7c0-1.4,0.2-2.7,0.7-4c0.5-1.3,1.1-2.5,2-3.6c0.8-1.1,1.8-2,3-2.7
	c1.2-0.7,2.4-1.2,3.9-1.5C48.5,73,49.3,73,50,73c0.7,0,1.3,0.1,1.9,0.3c0.6,0.2,1.1,0.4,1.6,0.7s1,0.6,1.4,1
	c-0.8,1.1-1.3,1.6-2.1,2.7c-0.7-0.6-1.5-1.1-2.4-1.4c-0.8-0.3-1.8-0.4-2.8-0.2c-0.9,0.1-1.7,0.5-2.4,1c-0.7,0.5-1.4,1.1-1.9,1.8
	c-0.5,0.7-1,1.5-1.3,2.4c-0.3,0.9-0.4,1.8-0.4,2.7c0,0.9,0.1,1.8,0.4,2.6c0.3,0.8,0.7,1.4,1.3,1.9c0.5,0.5,1.2,0.9,1.9,1.1
	c0.7,0.2,1.6,0.2,2.4,0.1c1.1-0.2,2.1-0.6,2.9-1.2c0.8-0.6,1.6-1.3,2.4-2.2c0.8,0.7,1.3,1.1,2.1,1.9C54.6,88.9,54.1,89.5,53.6,89.9z
	"/>
<path d="M78,84c-0.5,1.2-1.2,2.2-2,3.1c-0.9,0.9-1.9,1.6-3.1,2.2c-1.2,0.6-2.5,0.9-4,1c-1.4,0.1-2.8-0.1-3.9-0.5
	c-1.2-0.4-2.2-1-3.1-1.8c-0.9-0.8-1.5-1.8-2-2.9c-0.5-1.1-0.7-2.4-0.7-3.7s0.2-2.6,0.7-3.8c0.5-1.2,1.2-2.3,2-3.3
	c0.9-1,1.9-1.8,3.1-2.4c1.2-0.6,2.5-0.9,3.9-1c1.4-0.1,2.8,0.1,4,0.6c1.2,0.5,2.2,1.1,3.1,2c0.9,0.9,1.5,1.9,2,3
	c0.5,1.2,0.7,2.4,0.7,3.7C78.7,81.5,78.4,82.8,78,84z M74.8,77.8c-0.3-0.8-0.7-1.5-1.3-2.1c-0.6-0.6-1.2-1-2-1.4
	c-0.8-0.3-1.6-0.5-2.6-0.4c-0.9,0.1-1.8,0.3-2.5,0.7c-0.8,0.4-1.4,0.9-2,1.6c-0.6,0.6-1,1.4-1.3,2.2c-0.3,0.8-0.5,1.7-0.5,2.6
	c0,0.9,0.2,1.8,0.5,2.6c0.3,0.8,0.7,1.5,1.3,2c0.6,0.6,1.2,1,2,1.3c0.8,0.3,1.6,0.4,2.6,0.4c0.9-0.1,1.8-0.3,2.5-0.7
	c0.8-0.4,1.4-0.9,2-1.5c0.6-0.6,1-1.3,1.3-2.2c0.3-0.8,0.5-1.7,0.5-2.6S75.1,78.6,74.8,77.8z"/>
<path d="M102.6,85.2c-0.5,1.1-1.2,2-2,2.8c-0.9,0.8-1.9,1.4-3.1,1.8c-1.2,0.4-2.5,0.6-3.9,0.5c-1.4-0.1-2.8-0.4-3.9-1
	c-1.2-0.6-2.2-1.3-3.1-2.2c-0.9-0.9-1.5-1.9-2-3.1c-0.5-1.2-0.7-2.4-0.7-3.7c0-1.3,0.2-2.5,0.7-3.7c0.5-1.2,1.2-2.2,2-3
	c0.9-0.8,1.9-1.5,3.1-1.9c1.2-0.4,2.5-0.6,3.9-0.5c1.4,0.1,2.8,0.5,3.9,1.1c1.2,0.6,2.2,1.4,3.1,2.4c0.9,1,1.5,2,2,3.2
	c0.5,1.2,0.7,2.5,0.7,3.7C103.4,82.9,103.1,84.1,102.6,85.2z M99.5,78.7c-0.3-0.8-0.7-1.6-1.3-2.2c-0.6-0.6-1.2-1.2-2-1.6
	c-0.8-0.4-1.6-0.7-2.6-0.7c-0.9-0.1-1.8,0-2.5,0.3c-0.8,0.3-1.4,0.7-2,1.3c-0.6,0.6-1,1.2-1.3,2c-0.3,0.8-0.5,1.6-0.5,2.5
	s0.2,1.8,0.5,2.6c0.3,0.8,0.7,1.5,1.3,2.2c0.6,0.6,1.2,1.1,2,1.5c0.8,0.4,1.6,0.6,2.6,0.7c0.9,0.1,1.8,0,2.5-0.3
	c0.8-0.3,1.4-0.7,2-1.2c0.6-0.5,1-1.2,1.3-1.9c0.3-0.8,0.5-1.6,0.5-2.5C99.9,80.4,99.8,79.5,99.5,78.7z"/>
<path d="M109.3,73.4c1.3,0.2,1.9,0.3,3.2,0.5c0,6.1,0,9.2,0,15.3c3.9,0.6,5.8,1,9.7,1.9c0,1.1,0,1.7,0,2.9
	c-5.1-1.1-7.7-1.6-12.9-2.3C109.3,84.3,109.3,80.6,109.3,73.4z"/>
<path d="M64.1,128.6c0,1.4-0.7,2.7-2.1,3.7c-1.4,1.1-2.9,1.6-4.5,1.6c-0.6,0-1.2-0.1-1.6-0.4c-0.4-0.3-0.6-0.7-0.6-1.2
	c0-0.3,0.1-0.7,0.3-1c0.1-0.2,0.2-0.3,0.3-0.3c0.1,0,0.2,0.1,0.2,0.3c0,0.1,0,0.1,0,0.2c0,0.1,0,0.2,0,0.2c0,0.7,0.5,1,1.5,1
	c0.9,0,2.1-0.5,3.6-1.5c1.5-1,2.2-1.9,2.2-2.8c0-0.7-0.7-1.1-2-1.1c-0.3,0-0.8,0-1.3,0.1c-1.8,0.2-3.8,0.9-6,2.2
	c-2.1,1.2-3.7,2.5-5,3.9c-1.6,1.8-2.4,3.5-2.4,5c0,2.1,1.2,3.1,3.5,3.1c3.9,0,7.5-1.3,10.8-3.9c0.1-0.1,0.1-0.1,0.2-0.1
	c0.1,0,0.2,0.1,0.2,0.2c0,0.2-0.1,0.3-0.2,0.4c-1.4,1.3-3.1,2.3-5.1,3.2c-2.1,0.9-4,1.4-5.8,1.4c-1.6,0-2.8-0.3-3.7-0.8
	c-1.1-0.7-1.7-1.7-1.7-3.1c0-1.5,0.6-3.2,1.9-5c1.6-2.3,3.6-4,5.7-5.3c2.8-1.6,5.5-2.5,8-2.5c1.1,0,2,0.2,2.7,0.6
	S64.1,127.9,64.1,128.6z"/>
<path d="M73.9,126.5c0,1.4-1.2,3.4-3.5,6.2c-2.1,2.5-3.9,4.5-5.7,6c-0.1,0.2-0.1,0.4-0.1,0.6c0,0.6,0.1,1.1,0.4,1.5
	c0.3,0.4,0.7,0.6,1.1,0.6c0.5,0,1.2-0.2,2-0.7c1-0.6,1.9-1.5,2.7-2.6c0.1-0.2,0.2-0.2,0.3,0c0,0.2,0,0.4-0.1,0.5
	c-1.9,2.4-3.7,3.7-5.4,3.7c-0.8,0-1.4-0.3-1.8-0.9c-0.4-0.5-0.6-1.2-0.6-2c0-1.3,0.4-2.9,1.2-4.6c0.8-1.7,1.8-3.4,3-5.1
	c1.5-2.1,2.9-3.5,4.1-4.1c0.4-0.2,0.8-0.3,1.2-0.3C73.5,125.3,73.9,125.7,73.9,126.5z M72.5,126.8c0-0.4-0.1-0.6-0.3-0.6
	c-0.4,0-1,0.5-1.8,1.4c-1.1,1.5-2.2,3.1-3.2,4.9c-1.1,1.9-1.8,3.6-2.2,5c1.3-1,2.6-2.5,3.9-4.3c0.7-1,1.4-2,2.1-3.2
	C72,128.4,72.5,127.3,72.5,126.8z"/>
<path d="M80.2,138.5c-1.2,1.6-2.1,2.5-2.7,2.9c-0.3,0.2-0.7,0.2-1.1,0.2c-1.3,0-1.9-0.7-1.9-2.1c0-0.3,0-0.5,0-0.8
	c-1.2,2-2.3,3-3.3,3c-0.7,0-1-0.4-1-1.2c0-1,0.4-2.1,1.3-3.3c1.3-1.8,2.5-2.7,3.8-2.7c1,0,1.7,0.2,2,0.7c0.1,0.1,0.1,0.1,0.1,0.2
	c0,0-0.1,0.1-0.2,0.1c-0.2,0.1-0.2,0.1-0.3,0.2c-0.2,0.3-0.3,0.7-0.5,1.5c-0.2,0.8-0.2,1.5-0.2,2.2c0,1.1,0.2,1.6,0.7,1.6
	c0.4,0,1-0.5,1.8-1.4c0.3-0.4,0.7-0.9,1.1-1.4c0.1-0.1,0.1-0.1,0.1-0.1c0.1,0,0.1,0,0.2,0.1C80.2,138.3,80.2,138.4,80.2,138.5z
	 M75.5,135.7c-0.2,0-0.4,0-0.6,0.1c-0.6,0.2-1.1,0.7-1.6,1.2c-0.9,1-1.4,1.8-1.6,2.4c-0.2,0.8-0.2,1.2,0.1,1.2
	c0.4,0.1,1-0.3,1.6-1.1C74.1,138.7,74.8,137.4,75.5,135.7z"/>
<path d="M88.1,138.5c-0.8,1.2-1.9,1.9-3.3,2.1c-0.1,0.5-0.4,0.9-0.9,1.2c-0.5,0.3-1.1,0.5-1.9,0.5c-0.9,0-1.7-0.3-2.5-1
	c-0.9-0.7-1.3-1.5-1.3-2.3c0-0.5,0.2-0.8,0.5-0.8c0.3,0,0.5,0.2,0.8,0.5c0.4-0.4,0.9-1.1,1.5-2.1c0.6-1.1,1.2-1.9,1.5-2.3
	c0.7-0.8,1.4-1.2,2.1-1.2c0.9,0,1.3,0.3,1.3,0.9c0,0.1-0.1,0.2-0.2,0.2c-0.2,0.1-0.3,0.1-0.5,0.1c-0.6-0.1-1,0-1.3,0.3
	c-0.3,0.3-0.5,0.6-0.4,1.1c0,0.3,0.2,0.7,0.5,1.2c0.4,0.6,0.6,1,0.7,1.1c0.2,0.7,0.4,1.3,0.4,1.9c1.2-0.2,2.1-0.7,2.9-1.7
	c0.1-0.1,0.2-0.2,0.2-0.2c0.1,0,0.1,0,0.1,0.1C88.1,138.3,88.1,138.4,88.1,138.5z M82.9,140.6c-1.5,0-2.7-0.2-3.4-0.6
	c-0.1-0.1-0.2-0.1-0.2-0.1c0,0,0,0.1,0,0.2c0.5,1,1.2,1.5,2.1,1.5C82.1,141.5,82.7,141.2,82.9,140.6z M83.1,140v-0.3
	c0-0.4-0.2-1.2-0.5-2.3c-0.2-0.8-0.3-1.5-0.2-2c-1,1.6-1.9,2.8-2.7,3.6C80.9,139.6,82,139.9,83.1,140z"/>
<path d="M96,138.5c-0.8,1.2-1.9,1.9-3.3,2.1c-0.1,0.5-0.4,0.9-0.9,1.2c-0.5,0.3-1.1,0.5-1.9,0.5c-0.9,0-1.7-0.3-2.5-1
	c-0.9-0.7-1.3-1.5-1.3-2.3c0-0.5,0.2-0.8,0.5-0.8c0.3,0,0.5,0.2,0.8,0.5c0.4-0.4,0.9-1.1,1.5-2.1c0.6-1.1,1.2-1.9,1.5-2.3
	c0.7-0.8,1.4-1.2,2.1-1.2c0.9,0,1.3,0.3,1.3,0.9c0,0.1-0.1,0.2-0.2,0.2c-0.2,0.1-0.3,0.1-0.5,0.1c-0.6-0.1-1,0-1.3,0.3
	c-0.3,0.3-0.5,0.6-0.4,1.1c0,0.3,0.2,0.7,0.5,1.2c0.4,0.6,0.6,1,0.7,1.1c0.2,0.7,0.4,1.3,0.4,1.9c1.2-0.2,2.1-0.7,2.9-1.7
	c0.1-0.1,0.2-0.2,0.2-0.2c0.1,0,0.1,0,0.1,0.1C96,138.3,96,138.4,96,138.5z M90.8,140.6c-1.5,0-2.7-0.2-3.4-0.6
	c-0.1-0.1-0.2-0.1-0.2-0.1c0,0,0,0.1,0,0.2c0.5,1,1.2,1.5,2.1,1.5C90,141.5,90.6,141.2,90.8,140.6z M91,140v-0.3
	c0-0.4-0.2-1.2-0.5-2.3c-0.2-0.8-0.3-1.5-0.2-2c-1,1.6-1.9,2.8-2.7,3.6C88.8,139.6,89.9,139.9,91,140z"/>
<path d="M101.8,138.3c0,0.2,0,0.3-0.1,0.4c-1,1.3-1.8,2.1-2.4,2.6c-0.7,0.6-1.5,0.8-2.2,0.8c-1.2-0.1-1.7-0.6-1.7-1.7
	c0-0.8,0.2-1.6,0.6-2.4c0.4-0.9,0.8-1.6,1.1-2c0.1-0.1,0.2-0.2,0.3-0.2c0.2,0,0.5,0,0.7,0.1c0.3,0.1,0.5,0.3,0.5,0.5
	c0,0.1,0,0.2-0.1,0.3c-1.1,1.7-1.7,2.9-1.7,3.7c0,0.7,0.2,1,0.7,1c1.2,0,2.6-1.1,4.1-3.3c0-0.1,0.1-0.1,0.1-0.1
	C101.8,138.1,101.8,138.2,101.8,138.3z M100,133.3c0,0.3-0.1,0.5-0.3,0.7c-0.2,0.2-0.5,0.3-0.8,0.3c-0.6,0-0.8-0.2-0.8-0.7
	c0-0.3,0.1-0.5,0.3-0.7c0.2-0.2,0.5-0.3,0.8-0.3C99.8,132.6,100,132.8,100,133.3z"/>
<path d="M108.3,138.2c0.2,0,0.1,0.1-0.1,0.4c-0.8,1.1-1.7,2-2.6,2.6c-0.7,0.4-1.5,0.7-2.4,0.7c-1.6,0-2.3-0.7-2.3-2.1
	c0-1.1,0.6-2.3,1.9-3.7c0.8-0.9,1.8-1.2,2.8-1.1c0.6,0.1,0.9,0.3,0.9,0.7c0,0.2-0.1,0.5-0.4,1c-0.3,0.4-0.5,0.7-0.7,0.7
	c-0.1,0-0.1,0-0.1-0.1c0-0.1,0-0.2,0.1-0.4c0.1-0.2,0.1-0.3,0.1-0.4c0-0.4-0.2-0.6-0.5-0.6c-0.3,0-0.7,0.1-1.1,0.4
	c-0.3,0.2-0.6,0.5-0.8,0.8c-0.6,0.9-0.9,1.7-0.9,2.4c0,1.2,0.4,1.7,1.3,1.7c1.3,0,2.7-0.9,4.1-2.6
	C108,138.3,108.1,138.2,108.3,138.2z"/>
<path d="M116.2,138.5c-0.8,1.2-1.9,1.9-3.3,2.1c-0.1,0.5-0.4,0.9-0.9,1.2c-0.5,0.3-1.1,0.5-1.9,0.5c-0.9,0-1.7-0.3-2.5-1
	c-0.9-0.7-1.3-1.5-1.3-2.3c0-0.5,0.2-0.8,0.5-0.8c0.3,0,0.5,0.2,0.8,0.5c0.4-0.4,0.9-1.1,1.5-2.1c0.6-1.1,1.2-1.9,1.5-2.3
	c0.7-0.8,1.4-1.2,2.1-1.2c0.9,0,1.3,0.3,1.3,0.9c0,0.1-0.1,0.2-0.2,0.2c-0.2,0.1-0.3,0.1-0.5,0.1c-0.6-0.1-1,0-1.3,0.3
	c-0.3,0.3-0.5,0.6-0.4,1.1c0,0.3,0.2,0.7,0.5,1.2c0.4,0.6,0.6,1,0.7,1.1c0.2,0.7,0.4,1.3,0.4,1.9c1.2-0.2,2.1-0.7,2.9-1.7
	c0.1-0.1,0.2-0.2,0.2-0.2c0.1,0,0.1,0,0.1,0.1C116.3,138.3,116.2,138.4,116.2,138.5z M111.1,140.6c-1.5,0-2.7-0.2-3.4-0.6
	c-0.1-0.1-0.2-0.1-0.2-0.1c0,0,0,0.1,0,0.2c0.5,1,1.2,1.5,2.1,1.5C110.3,141.5,110.8,141.2,111.1,140.6z M111.2,140v-0.3
	c0-0.4-0.2-1.2-0.5-2.3c-0.2-0.8-0.3-1.5-0.2-2c-1,1.6-1.9,2.8-2.7,3.6C109,139.6,110.1,139.9,111.2,140z"/>
<path d="M19.5,106.1c-0.8,1.3-1.5,2.6-2.3,3.9c-1.1-0.5-2.2-0.8-3.2-0.9c-1-0.1-2.1-0.1-3.1,0.3c-1,0.3-1.8,0.8-2.3,1.3
	c-0.5,0.6-0.8,1.2-0.8,1.8c0,0,0,0,0,0.1c0,0.4,0.1,0.7,0.2,1c0.2,0.2,0.4,0.4,0.8,0.5c0.1,0,0.3,0.1,0.5,0.1c0,0,0,0,0-0.1
	c0,0,0,0,0-0.1c0-0.6,0.3-1.2,0.8-1.7c0.5-0.6,1.3-1,2.3-1.3c1-0.3,2-0.4,3.1-0.3c1,0.1,2.1,0.4,3.1,0.9c0.9-1.6,1.8-3.2,2.7-4.7
	C20.7,106.5,20.1,106.3,19.5,106.1z"/>
<path d="M7.3,119.7c-0.9-0.1-1.7-0.2-2.4-0.5c0.4,0.6,0.8,1,1.5,1.3c0.7,0.3,1.5,0.5,2.5,0.6c1,0.1,2.1,0.1,3.3,0c1,0,1.8,0,2.4,0
	c0.4,0,0.7,0.1,1,0.1c0-0.3-0.1-0.5-0.2-0.7c-0.1-0.2-0.4-0.4-0.7-0.6c-0.4-0.1-0.9-0.2-1.5-0.3c-0.6-0.1-1.5-0.1-2.5,0
	C9.4,119.8,8.3,119.8,7.3,119.7z"/>
<path d="M21.6,118.3c-0.3-0.6-0.7-1.1-1.3-1.5c0,0,0,0,0,0c0.3,0.7,0.5,1.6,0.5,2.7c0,0,0,0,0,0.1c0,1.2-0.2,2.4-0.7,3.4
	c-0.4,1.1-1.1,2-1.8,2.9c-0.8,0.9-1.7,1.6-2.8,2.2c-1.1,0.6-2.3,1.2-3.6,1.5c-1.8,0.5-3.7,0.8-5.4,0.7c-1,0-2-0.2-2.9-0.5
	c-0.1,0.1-0.1,0.2-0.2,0.3c1.4,0.8,3,1.3,4.7,1.4c1.7,0.1,3.5-0.1,5.3-0.7c1.3-0.4,2.5-0.9,3.5-1.5c1.1-0.6,2-1.4,2.7-2.2
	c0.8-0.8,1.4-1.8,1.8-2.8c0.4-1,0.6-2.2,0.6-3.4c0,0,0,0,0-0.1C22.1,119.8,21.9,119,21.6,118.3z"/>
<path d="M30.5,102c0,4,0,8,0,11.9c0,2,0.5,3.4,1.4,4.3c0,0,0.1,0.1,0.1,0.1c-0.3-0.8-0.5-1.7-0.5-2.9c0-4.6,0-9.1,0-13.7
	C31.2,101.8,30.9,101.9,30.5,102z"/>
<path d="M46.7,99.1c0,4,0,8,0,12c0,1.9-0.3,3.6-0.8,5c-0.5,1.5-1.2,2.7-2.2,3.8c-0.9,1.1-2.1,1.9-3.4,2.6c-1.3,0.7-2.8,1.2-4.5,1.5
	c-3.3,0.6-5.9,0.3-7.8-1.2c-0.1-0.1-0.2-0.2-0.3-0.3c0.4,0.6,0.9,1.2,1.4,1.6c1.9,1.4,4.4,1.7,7.7,1.1c1.6-0.3,3.1-0.8,4.4-1.4
	c1.3-0.7,2.4-1.5,3.4-2.6c0.9-1.1,1.6-2.3,2.1-3.7c0.5-1.4,0.7-3.1,0.7-4.9c0-4.5,0-9.1,0-13.6C47.1,99,46.9,99.1,46.7,99.1z"/>
<path d="M71.8,103.9c-2.3,3.6-4.7,7.2-7,10.9c0,0-0.1,0-0.1,0c-2.3-3.3-4.6-6.6-7-9.9c0,5.3,0,10.7,0,16c-1.6,0.2-3.2,0.3-4.8,0.5
	c0,0.5,0,0.9,0,1.4c1.8-0.2,3.5-0.4,5.3-0.6c0-5.2,0-10.5,0-15.7c2.3,3.2,4.5,6.4,6.8,9.7c0,0,0.1,0,0.1,0c2.2-3.5,4.5-7,6.7-10.4
	C71.8,105.2,71.8,104.5,71.8,103.9z"/>
<path d="M77,97.1c0,7.6,0,15.2,0,22.8c-1.7,0-3.4,0.1-5,0.1c0,0.5,0,0.9,0,1.4c1.7-0.1,3.4-0.1,5.1-0.1
	C77.1,113.2,77.1,105.1,77,97.1C77,97.1,77,97.1,77,97.1z"/>
<path d="M83.4,119.8c0-7.6,0-15.2,0-22.8c0,0,0,0-0.1,0c0,8.1,0,16.1,0,24.2c1.7,0,3.5,0.1,5.2,0.1c0-0.5,0-0.9,0-1.4
	C86.8,119.9,85.1,119.9,83.4,119.8z"/>
<path d="M102.8,120.9c0-5.4,0-10.8,0-16.1c-2.3,3.3-4.7,6.6-7,10c0,0-0.1,0-0.1,0c-2.3-3.6-4.6-7.2-7-10.8c0,0.7,0,1.3,0,2
	c2.2,3.4,4.4,6.8,6.6,10.3c0,0,0.1,0,0.1,0c2.3-3.3,4.6-6.6,6.9-9.8c0,5.3,0,10.5,0,15.8c1.8,0.2,3.5,0.4,5.3,0.6c0-0.5,0-0.9,0-1.4
	C106,121.2,104.4,121,102.8,120.9z"/>
<path d="M131.7,105.2c-4-0.9-8.1-1.6-12.1-2.3c0,0.6,0,1.3,0,1.9c4,0.7,8.1,1.5,12.1,2.4C131.7,106.4,131.7,105.8,131.7,105.2z"/>
<path d="M130.2,114.7c-3.5-0.7-7-1.4-10.6-2c0,0.6,0,1.1,0,1.7c3.5,0.6,7.1,1.3,10.6,2C130.2,115.8,130.2,115.2,130.2,114.7z"/>
<path d="M114.2,121.9c0-7.6,0-15.1,0-22.7c-0.2,0-0.5-0.1-0.7-0.1c0,8.1,0,16.1,0,24.2c6.2,0.9,12.3,2,18.4,3.3c0-0.5,0-1,0-1.5
	C126,123.8,120.1,122.7,114.2,121.9z"/>
<path d="M155.4,121.2c-0.7,0.4-1.6,0.6-2.5,0.7c0.2,0.3,0.3,0.6,0.5,0.9c0.6-0.3,1.2-0.6,1.6-1.1
	C155.2,121.5,155.3,121.3,155.4,121.2z"/>
<path d="M151,116.8c0.2-0.1,0.4-0.1,0.6-0.2c0.7-0.4,1.1-1.2,1.1-2.2c0,0,0,0,0-0.1c0-1.2-0.4-2.2-1.1-3c-0.7-0.8-1.8-1.4-3.1-1.8
	c-1.8-0.5-3.5-1-5.3-1.5c0,0.7,0,1.3,0,2c1.3,0.4,2.6,0.7,3.9,1.1c1.3,0.4,2.3,1,3,1.8c0.7,0.8,1.1,1.8,1.1,2.9c0,0,0,0,0,0.1
	C151.2,116.2,151.1,116.6,151,116.8z"/>
<path d="M137.8,126.4c0-7.5,0-15.1,0-22.6c-0.4-0.1-0.8-0.2-1.2-0.3c0,8.1,0,16.1,0,24.2c1.8,0.4,3.5,0.9,5.3,1.4c0-0.5,0-1,0-1.6
	C140.5,127.1,139.2,126.8,137.8,126.4z"/>
<path d="M152.6,130.5c-1.7-3.2-3.5-6.3-5.2-9.5c-1.4-0.4-2.8-0.8-4.2-1.2c0,0.6,0,1.2,0,1.8c0.9,0.3,1.8,0.5,2.8,0.8
	c1.7,3.1,3.4,6.2,5.1,9.3c2,0.6,4,1.3,6.1,2c-0.4-0.7-0.7-1.4-1.1-2C154.9,131.3,153.7,130.9,152.6,130.5z"/>
<path d="M18.9,122.4c-0.4,1.1-1.1,2.1-1.9,2.9c-0.8,0.9-1.8,1.6-2.9,2.3c-1.1,0.7-2.3,1.2-3.7,1.6c-1.9,0.6-3.7,0.8-5.5,0.7
	c-1.8-0.1-3.4-0.6-4.9-1.4c1.1-1.7,2.1-3.3,3.2-5c1.1,0.6,2.3,0.9,3.5,1.1c1.2,0.2,2.5,0.1,3.9-0.4c1.1-0.3,2-0.8,2.6-1.4
	c0.6-0.6,0.9-1.3,0.9-2c0,0,0,0,0-0.1c0-0.4-0.1-0.7-0.2-0.9c-0.1-0.2-0.4-0.4-0.7-0.6c-0.4-0.1-0.9-0.2-1.5-0.3
	c-0.7-0.1-1.5-0.1-2.5,0c-1.3,0.1-2.4,0.1-3.4,0c-1-0.1-1.9-0.3-2.6-0.6c-0.7-0.3-1.3-0.9-1.6-1.6c-0.4-0.7-0.6-1.7-0.6-2.9
	c0,0,0,0,0-0.1c0-1.2,0.2-2.3,0.6-3.3c0.4-1.1,1-2.1,1.8-3c0.8-0.9,1.7-1.7,2.7-2.4c1.1-0.7,2.2-1.2,3.5-1.6c1.8-0.5,3.5-0.7,5-0.6
	c1.5,0.1,2.9,0.6,4.2,1.3c-1,1.6-1.9,3.3-2.8,4.9c-1.1-0.5-2.2-0.8-3.3-0.9c-1.1-0.1-2.1-0.1-3.2,0.3c-1.1,0.3-1.9,0.8-2.4,1.4
	c-0.5,0.6-0.8,1.2-0.8,1.8c0,0,0,0,0,0.1c0,0.4,0.1,0.7,0.2,1c0.2,0.3,0.4,0.4,0.8,0.6c0.4,0.1,0.9,0.2,1.6,0.2c0.7,0,1.6,0,2.6,0
	c1.3,0,2.4,0,3.4,0.2c1,0.2,1.8,0.4,2.5,0.8c0.7,0.4,1.2,1,1.5,1.7c0.3,0.7,0.5,1.6,0.5,2.7c0,0,0,0,0,0.1
	C19.6,120.1,19.3,121.3,18.9,122.4z"/>
<path d="M45.2,115.3c-0.5,1.5-1.3,2.8-2.2,3.9c-1,1.1-2.1,2-3.5,2.7c-1.4,0.7-2.9,1.2-4.6,1.5c-3.4,0.6-6,0.3-8-1.2
	c-1.9-1.4-2.9-4-2.9-7.7c0-4.8,0-9.6,0-14.4c1.8-0.4,3.7-0.8,5.5-1.2c0,4.8,0,9.5,0,14.3c0,2.1,0.5,3.5,1.4,4.4c1,0.9,2.3,1.1,4,0.8
	c1.7-0.3,3-1.1,4-2.2c1-1.2,1.4-2.8,1.4-4.8c0-4.8,0-9.6,0-14.4c1.9-0.3,3.7-0.6,5.6-0.8c0,4.7,0,9.5,0,14.2
	C45.9,112.1,45.7,113.8,45.2,115.3z"/>
<path d="M71.6,118.9c0-5.5,0-11,0-16.5c-2.4,3.7-4.8,7.4-7.2,11.1c0,0-0.1,0-0.1,0c-2.4-3.4-4.7-6.8-7.1-10.1c0,5.5,0,10.9,0,16.4
	c-1.8,0.2-3.7,0.4-5.5,0.6c0-8.4,0-16.8,0-25.2c2-0.2,4-0.4,6-0.6c2.2,3.4,4.5,6.7,6.7,10.1c2.2-3.7,4.5-7.4,6.7-11
	c2-0.1,4-0.1,6.1-0.1c0,8.4,0,16.8,0,25.2C75.3,118.8,73.5,118.9,71.6,118.9z"/>
<path d="M103.3,119.9c0-5.5,0-11,0-16.5c-2.4,3.4-4.8,6.8-7.2,10.2c0,0-0.1,0-0.1,0c-2.4-3.7-4.7-7.4-7.1-11c0,5.5,0,10.9,0,16.4
	c-1.8-0.1-3.7-0.1-5.6-0.1c0-8.4,0-16.8,0-25.2c2,0,4,0.1,6.1,0.1c2.2,3.6,4.5,7.3,6.7,11c2.2-3.4,4.5-6.8,6.7-10.1
	c2,0.2,4,0.4,6,0.6c0,8.4,0,16.8,0,25.2C107,120.2,105.1,120,103.3,119.9z"/>
<path d="M114.9,121.2c0-8.4,0-16.8,0-25.2c6.4,0.9,12.7,2.1,19,3.4c0,1.6,0,3.3,0,4.9c-4.5-1-9-1.9-13.5-2.6c0,1.7,0,3.4,0,5.1
	c4,0.7,7.9,1.4,11.9,2.3c0,1.6,0,3.3,0,4.9c-3.9-0.8-7.9-1.6-11.9-2.3c0,1.8,0,3.5,0,5.3c4.6,0.8,9.1,1.6,13.7,2.6
	c0,1.6,0,3.3,0,4.9C127.8,123.3,121.4,122.1,114.9,121.2z"/>
<path d="M154.1,130.1c-1.8-3.2-3.5-6.5-5.3-9.7c-1.4-0.4-2.9-0.8-4.3-1.2c0,2.7,0,5.4,0,8.1c-1.8-0.5-3.7-1-5.5-1.4
	c0-8.4,0-16.8,0-25.2c3.8,0.9,7.6,2,11.4,3.1c2.9,0.9,5.2,2.3,6.9,4.3c1.6,2,2.4,4.3,2.4,6.9c0,0,0,0,0,0.1c0,2-0.5,3.5-1.5,4.5
	c-1,1-2.2,1.5-3.8,1.6c2,3.6,4,7.3,6,11C158.4,131.4,156.3,130.7,154.1,130.1z M154.2,113.5c0-1.2-0.4-2.2-1.1-3.1
	c-0.8-0.8-1.8-1.5-3.1-1.8c-1.8-0.5-3.6-1-5.4-1.5c0,2.4,0,4.8,0,7.2c1.8,0.5,3.7,1,5.5,1.6c1.3,0.4,2.4,0.4,3.1,0
	C153.9,115.4,154.2,114.6,154.2,113.5C154.2,113.5,154.2,113.5,154.2,113.5z"/>
</symbol><symbol id="decade-1960s" viewBox="10.9 268.4 601.1 216.1">
<g>
	<path d="M49,309.3C57.2,312,63.6,322,63.6,332c0,15.4-11.8,25.4-25.4,25.4c-14.5,0-27.2-10-27.2-25.4c0-9.1,3.6-17.3,10-27.2
		l17.3-27.2h21.8L49,309.3z M37.2,335.6c1.8,0,3.6-1.8,3.6-3.6c0-1.8-1.8-3.6-3.6-3.6s-3.6,1.8-3.6,3.6
		C33.6,333.8,34.5,335.6,37.2,335.6z"/>
</g>
<g>
	<path d="M268.8,402.8c0,10.9-1.8,21.8-6.4,31.8c-4.5,10-10,19.1-17.3,26.3c-7.3,7.3-16.3,13.6-26.3,17.3c-10,4.5-20.9,6.4-31.8,6.4
		c-11.8,0-21.8-1.8-31.8-6.4c-10-4.5-19.1-10-26.3-17.3c-7.3-7.3-13.6-16.3-18.2-26.3c-4.5-10-6.4-20.9-6.4-31.8
		c0-9.1,0.9-17.3,3.6-24.5s6.4-15.4,11.8-23.6l57.2-83.5h34.5L148,361c-3.6,5.4-6.4,10-8.2,13.6c-1.8,4.5-3.6,8.2-4.5,10.9
		c-0.9,3.6-1.8,6.4-1.8,9.1s0,5.4,0,7.3c0,7.3,1.8,14.5,4.5,20.9c2.7,6.4,7.3,12.7,11.8,17.3c4.5,4.5,10.9,9.1,17.3,11.8
		c6.4,2.7,13.6,4.5,20.9,4.5s14.5-1.8,20.9-4.5c6.4-2.7,11.8-6.4,17.3-11.8s9.1-10.9,11.8-17.3s4.5-13.6,4.5-20.9
		c0-6.4-0.9-12.7-3.6-18.2c-2.7-5.4-5.4-10.9-9.1-15.4c-3.6-4.5-8.2-8.2-13.6-11.8s-10.9-5.4-17.3-6.4c-0.9,0.9-1.8,1.8-2.7,2.7
		c-0.9,0.9-1.8,1.8-1.8,2.7c5.4,0.9,10.9,2.7,16.3,5.4c4.5,2.7,9.1,6.4,12.7,10.9c3.6,4.5,6.4,9.1,9.1,14.5
		c1.8,5.4,2.7,10.9,2.7,17.3c0,6.4-0.9,12.7-3.6,18.2c-2.7,5.4-5.4,10.9-10,15.4c-4.5,4.5-9.1,8.2-15.4,10s-11.8,3.6-18.2,3.6
		c-6.4,0-12.7-0.9-19.1-3.6s-10.9-6.4-15.4-10.9c-4.5-4.5-8.2-9.1-10.9-15.4c-2.7-5.4-3.6-11.8-3.6-18.2c0-4.5,0.9-9.1,1.8-13.6
		c0.9-3.6,2.7-7.3,3.6-10.9c1.8-3.6,2.7-6.4,4.5-9.1c1.8-2.7,3.6-4.5,4.5-6.4c7.3-10,14.5-20,21.8-30.9
		c7.3-10.9,14.5-20.9,20.9-29.1c7.3-10.9,14.5-20.9,21.8-30.9h33.6l-37.2,54.5c8.2,2.7,15.4,7.3,21.8,11.8
		c6.4,5.4,11.8,10.9,17.3,17.3c4.5,6.4,8.2,13.6,10.9,21.8C267.9,385.6,268.8,393.7,268.8,402.8z M208.8,402.8
		c0-5.4-2.7-10.9-6.4-15.4c-3.6-4.5-9.1-6.4-15.4-6.4c-6.4,0-11.8,1.8-15.4,6.4c-3.6,4.5-5.4,9.1-5.4,15.4c0,2.7,0.9,5.4,1.8,8.2
		c0.9,2.7,2.7,4.5,4.5,7.3c1.8,1.8,4.5,3.6,7.3,4.5s5.4,1.8,8.2,1.8s5.4-0.9,8.2-1.8s4.5-2.7,6.4-4.5c1.8-1.8,3.6-4.5,4.5-7.3
		C207.9,408.3,208.8,405.5,208.8,402.8z"/>
	<path d="M494.9,376.5c0,14.5-2.7,29.1-8.2,41.8c-5.4,12.7-13.6,24.5-23.6,34.5c-10,10-20.9,17.3-34.5,22.7
		c-13.6,5.4-27.2,8.2-41.8,8.2s-29.1-2.7-41.8-8.2c-12.7-5.4-24.5-13.6-34.5-22.7c-10-10-17.3-20.9-22.7-34.5
		c-5.4-12.7-8.2-27.2-8.2-41.8s2.7-29.1,8.2-41.8c5.4-12.7,13.6-24.5,22.7-34.5c10-10,21.8-18.2,34.5-23.6
		c12.7-5.4,27.2-8.2,41.8-8.2s29.1,2.7,41.8,8.2c13.6,5.4,25.4,13.6,34.5,23.6c10,10,17.3,20.9,22.7,34.5
		C492.1,347.4,494.9,361,494.9,376.5z M467.6,376.5c0-10.9-1.8-21.8-6.4-31.8c-4.5-10-10-18.2-17.3-25.4
		c-7.3-7.3-15.4-12.7-25.4-17.3c-10-4.5-20-7.3-31.8-7.3c-10.9,0-21.8,1.8-31.8,6.4c-10,4.5-18.2,10-25.4,17.3
		c-7.3,7.3-12.7,16.3-17.3,25.4c-4.5,9.1-6.4,20-6.4,31.8c0,10.9,1.8,21.8,6.4,30.9c4.5,10,10,18.2,17.3,25.4
		c7.3,7.3,15.4,12.7,25.4,17.3c10,4.5,20,6.4,31.8,6.4c10.9,0,21.8-1.8,31.8-6.4c10-4.5,18.2-10,25.4-17.3
		c7.3-7.3,12.7-15.4,17.3-25.4C465.8,397.4,467.6,387.4,467.6,376.5z M461.3,376.5c0,10-1.8,20-5.4,28.1
		c-3.6,9.1-9.1,16.3-15.4,23.6c-6.4,6.4-14.5,11.8-23.6,15.4c-9.1,3.6-18.2,5.4-29.1,5.4c-10,0-20-1.8-29.1-5.4
		c-9.1-3.6-17.3-9.1-23.6-15.4c-6.4-6.4-11.8-14.5-15.4-23.6c-3.6-9.1-5.4-18.2-5.4-29.1c0-10,1.8-20,5.4-29.1
		c3.6-9.1,9.1-16.3,15.4-23.6c6.4-6.4,14.5-11.8,23.6-15.4c9.1-3.6,18.2-5.4,29.1-5.4c10,0,20,1.8,29.1,5.4
		c9.1,3.6,17.3,9.1,23.6,16.3c6.4,6.4,11.8,14.5,15.4,23.6S461.3,365.6,461.3,376.5z M434,376.5c0-6.4-0.9-12.7-3.6-18.2
		c-2.7-5.4-5.4-10.9-10-14.5c-4.5-4.5-9.1-7.3-14.5-10c-5.4-2.7-11.8-3.6-18.2-3.6c-6.4,0-11.8,0.9-18.2,3.6
		c-5.4,2.7-10.9,5.4-14.5,10c-4.5,4.5-7.3,9.1-10,14.5c-2.7,5.4-3.6,11.8-3.6,18.2s0.9,11.8,3.6,18.2c2.7,5.4,5.4,10.9,10,14.5
		c4.5,4.5,9.1,7.3,14.5,10c5.4,2.7,11.8,3.6,18.2,3.6c6.4,0,12.7-0.9,18.2-3.6s10.9-5.4,14.5-10c4.5-4.5,7.3-9.1,10-14.5
		C433.1,388.3,434,381.9,434,376.5z"/>
</g>
<g>
	<path d="M609.3,437.3c0,6.4-0.9,12.7-3.6,18.2c-2.7,5.4-6.4,10.9-10.9,14.5c-4.5,4.5-10,7.3-15.4,10c-6.4,2.7-11.8,3.6-18.2,3.6
		s-12.7-0.9-18.2-2.7c-5.4-1.8-10.9-4.5-15.4-8.2c-4.5-3.6-9.1-7.3-11.8-12.7c-3.6-4.5-5.4-10-6.4-16.3l19.1-5.4
		c0,3.6,1.8,7.3,3.6,10.9c1.8,3.6,4.5,6.4,7.3,8.2c2.7,1.8,6.4,3.6,10,5.4c3.6,0.9,7.3,1.8,11.8,1.8c4.5,0,8.2-0.9,11.8-1.8
		c3.6-1.8,6.4-3.6,9.1-5.4c2.7-2.7,4.5-5.4,6.4-9.1s2.7-7.3,2.7-10.9c0-6.4-0.9-10.9-3.6-14.5c-2.7-3.6-6.4-6.4-10-9.1
		s-8.2-4.5-12.7-6.4c-4.5-1.8-9.1-3.6-12.7-5.4c-3.6-1.8-7.3-4.5-10-7.3c-2.7-2.7-3.6-7.3-3.6-12.7c0-3.6,0.9-6.4,1.8-9.1
		s2.7-5.4,5.4-7.3c1.8-1.8,4.5-3.6,8.2-4.5c3.6-0.9,6.4-1.8,10-1.8c2.7,0,6.4,0.9,9.1,1.8c2.7,0.9,5.4,2.7,7.3,4.5
		c1.8,1.8,3.6,4.5,5.4,6.4c1.8,2.7,2.7,5.4,2.7,8.2l-17.3,5.4c0-1.8-0.9-3.6-1.8-4.5c-0.9-1.8-2.7-1.8-4.5-1.8s-2.7,0-3.6,0.9
		c-0.9,0.9-1.8,1.8-1.8,3.6c0,2.7,0.9,4.5,3.6,5.4c2.7,1.8,6.4,2.7,10,4.5c3.6,1.8,8.2,3.6,12.7,5.4s9.1,4.5,12.7,8.2
		c3.6,3.6,7.3,7.3,10,12.7C608.4,422.8,609.3,429.1,609.3,437.3z M588.4,377.4c-0.9-7.3-4.5-12.7-9.1-16.3
		c-5.4-4.5-11.8-6.4-19.1-6.4c-3.6,0-7.3,0.9-10.9,1.8c-3.6,0.9-6.4,3.6-8.2,5.4c-2.7,2.7-4.5,5.4-5.4,8.2
		c-1.8,3.6-1.8,6.4-1.8,10.9c0,5.4,0.9,10,3.6,13.6c2.7,3.6,6.4,6.4,10,8.2c3.6,2.7,8.2,4.5,12.7,6.4c4.5,1.8,9.1,3.6,12.7,6.4
		c3.6,2.7,7.3,5.4,10,8.2c2.7,3.6,3.6,8.2,3.6,13.6c0,3.6-0.9,7.3-1.8,10c-1.8,2.7-3.6,5.4-5.4,8.2c-2.7,1.8-5.4,3.6-8.2,5.4
		c-3.6,0.9-6.4,1.8-10,1.8c-3.6,0-7.3-0.9-10.9-1.8c-3.6-0.9-6.4-2.7-9.1-4.5c-2.7-1.8-4.5-4.5-6.4-7.3s-2.7-6.4-2.7-10l18.2-5.4
		c0,3.6,0.9,6.4,3.6,8.2c2.7,1.8,4.5,2.7,7.3,2.7c1.8,0,3.6-0.9,5.4-1.8c1.8-0.9,2.7-2.7,2.7-4.5c0-2.7-0.9-4.5-3.6-6.4
		c-2.7-1.8-6.4-3.6-10-5.4c-3.6-1.8-8.2-3.6-12.7-5.4c-4.5-1.8-9.1-4.5-12.7-8.2c-3.6-3.6-7.3-7.3-10-11.8
		c-2.7-4.5-3.6-10.9-3.6-18.2c0-6.4,0.9-11.8,3.6-17.3c1.8-5.4,5.4-10,9.1-14.5c3.6-4.5,9.1-7.3,14.5-10s11.8-3.6,19.1-3.6
		c6.4,0,11.8,0.9,17.3,2.7c5.4,1.8,10,4.5,14.5,7.3c4.5,2.7,8.2,7.3,10.9,11.8c2.7,4.5,5.4,9.1,6.4,14.5L588.4,377.4z"/>
</g>
</symbol><symbol id="decade-1970s" viewBox="11.5 263.4 600.5 226.7">
<g>
	<path d="M51.9,302.8c8.6,2.9,15.4,13.5,15.4,24c0,16.3-12.5,26.9-26.9,26.9c-15.4,0-28.8-10.6-28.8-26.9c0-9.6,3.8-18.3,10.6-28.8
		l18.3-28.8h23.1L51.9,302.8z M39.4,330.7c1.9,0,3.8-1.9,3.8-3.8s-1.9-3.8-3.8-3.8c-1.9,0-3.8,1.9-3.8,3.8S36.5,330.7,39.4,330.7z"/>
</g>
<g>
	<path d="M231.5,266.3l-73,222.9h-31.7l52.8-159.5h-69.2v-29.8h79.7l1.9-6.7h-81.7v-26.9H231.5z M197,488.2h-31.7l73-222.9H269
		L197,488.2z"/>
	<path d="M488.1,376.8c0,15.4-2.9,30.7-8.6,44.2c-5.8,13.5-14.4,25.9-24,36.5c-9.6,10.6-22.1,18.3-36.5,24
		c-13.5,5.8-28.8,8.6-44.2,8.6s-30.7-2.9-44.2-8.6s-25.9-14.4-36.5-24c-10.6-10.6-18.3-22.1-24-36.5c-5.8-13.5-8.6-28.8-8.6-44.2
		s2.9-30.7,8.6-44.2c5.8-13.5,14.4-25.9,24-36.5c10.6-10.6,22.1-18.3,36.5-24c13.5-5.8,28.8-8.6,44.2-8.6s30.7,2.9,44.2,8.6
		c13.5,5.8,25.9,14.4,36.5,24c10.6,10.6,18.3,22.1,24,36.5C485.2,346,488.1,361.4,488.1,376.8z M459.2,376.8
		c0-11.5-1.9-23.1-6.7-33.6s-10.6-19.2-18.3-26.9c-7.7-7.7-16.3-13.5-26.9-18.3c-10.6-4.8-21.1-6.7-33.6-6.7
		c-11.5,0-23.1,1.9-33.6,6.7c-10.6,4.8-19.2,10.6-26.9,18.3c-7.7,7.7-13.5,17.3-18.3,26.9s-6.7,21.1-6.7,33.6
		c0,11.5,1.9,23.1,6.7,32.7c4.8,10.6,10.6,19.2,18.3,26.9c7.7,7.7,16.3,13.5,26.9,18.3c10.6,4.8,21.1,6.7,33.6,6.7
		c11.5,0,23.1-1.9,33.6-6.7c10.6-4.8,19.2-10.6,26.9-18.3c7.7-7.7,13.5-16.3,18.3-26.9C456.4,398.9,459.2,388.3,459.2,376.8z
		 M451.6,376.8c0,10.6-1.9,21.1-5.8,29.8c-3.8,9.6-9.6,17.3-16.3,25c-6.7,6.7-15.4,12.5-25,16.3c-9.6,3.8-19.2,5.8-30.7,5.8
		c-10.6,0-21.1-1.9-30.7-5.8c-9.6-3.8-18.3-9.6-25-16.3c-6.7-6.7-12.5-15.4-16.3-25s-5.8-19.2-5.8-30.7c0-10.6,1.9-21.1,5.8-30.7
		c3.8-9.6,9.6-17.3,16.3-25c6.7-6.7,15.4-12.5,25-16.3s19.2-5.8,30.7-5.8c10.6,0,21.1,1.9,30.7,5.8s18.3,9.6,25,17.3
		s12.5,15.4,16.3,25S451.6,365.3,451.6,376.8z M422.7,376.8c0-6.7-1-13.5-3.8-19.2c-2.9-5.8-5.8-11.5-10.6-15.4
		c-4.8-4.8-9.6-7.7-15.4-10.6s-12.5-3.8-19.2-3.8c-6.7,0-12.5,1-19.2,3.8c-5.8,2.9-11.5,5.8-15.4,10.6c-4.8,4.8-7.7,9.6-10.6,15.4
		c-2.9,5.8-3.8,12.5-3.8,19.2s1,12.5,3.8,19.2c2.9,5.8,5.8,11.5,10.6,15.4c4.8,4.8,9.6,7.7,15.4,10.6c5.8,2.9,12.5,3.8,19.2,3.8
		c6.7,0,13.5-1,19.2-3.8c5.8-2.9,11.5-5.8,15.4-10.6c4.8-4.8,7.7-9.6,10.6-15.4C421.8,390.2,422.7,383.5,422.7,376.8z"/>
</g>
<g>
	<path d="M610.1,441.2c0,6.7-1,13.5-3.8,19.2s-6.7,11.5-11.5,15.4c-4.8,4.8-10.6,7.7-16.3,10.6c-6.7,2.9-12.5,3.8-19.2,3.8
		s-13.5-1-19.2-2.9c-5.8-1.9-11.5-4.8-16.3-8.6c-4.8-3.8-9.6-7.7-12.5-13.5c-3.8-4.8-5.8-10.6-6.7-17.3l20.2-5.8
		c0,3.8,1.9,7.7,3.8,11.5c1.9,3.8,4.8,6.7,7.7,8.6c2.9,1.9,6.7,3.8,10.6,5.8c3.8,1,7.7,1.9,12.5,1.9s8.6-1,12.5-1.9
		c3.8-1.9,6.7-3.8,9.6-5.8c2.9-2.9,4.8-5.8,6.7-9.6s2.9-7.7,2.9-11.5c0-6.7-1-11.5-3.8-15.4s-6.7-6.7-10.6-9.6
		c-3.8-2.9-8.6-4.8-13.5-6.7c-4.8-1.9-9.6-3.8-13.5-5.8c-3.8-1.9-7.7-4.8-10.6-7.7s-3.8-7.7-3.8-13.5c0-3.8,1-6.7,1.9-9.6
		c1-2.9,2.9-5.8,5.8-7.7c1.9-1.9,4.8-3.8,8.6-4.8c3.8-1,6.7-1.9,10.6-1.9c2.9,0,6.7,1,9.6,1.9s5.8,2.9,7.7,4.8s3.8,4.8,5.8,6.7
		c1.9,2.9,2.9,5.8,2.9,8.6l-18.3,5.8c0-1.9-1-3.8-1.9-4.8c-1-1.9-2.9-1.9-4.8-1.9s-2.9,0-3.8,1s-1.9,1.9-1.9,3.8
		c0,2.9,1,4.8,3.8,5.8c2.9,1.9,6.7,2.9,10.6,4.8c3.8,1.9,8.6,3.8,13.5,5.8s9.6,4.8,13.5,8.6c3.8,3.8,7.7,7.7,10.6,13.5
		C609.1,425.8,610.1,432.5,610.1,441.2z M588,377.7c-1-7.7-4.8-13.5-9.6-17.3c-5.8-4.8-12.5-6.7-20.2-6.7c-3.8,0-7.7,1-11.5,1.9
		s-6.7,3.8-8.6,5.8c-2.9,2.9-4.8,5.8-5.8,8.6c-1.9,3.8-1.9,6.7-1.9,11.5c0,5.8,1,10.6,3.8,14.4c2.9,3.8,6.7,6.7,10.6,8.6
		c3.8,2.9,8.6,4.8,13.5,6.7s9.6,3.8,13.5,6.7s7.7,5.8,10.6,8.6c2.9,3.8,3.8,8.6,3.8,14.4c0,3.8-1,7.7-1.9,10.6
		c-1.9,2.9-3.8,5.8-5.8,8.6c-2.9,1.9-5.8,3.8-8.6,5.8c-3.8,1-6.7,1.9-10.6,1.9c-3.8,0-7.7-1-11.5-1.9c-3.8-1-6.7-2.9-9.6-4.8
		s-4.8-4.8-6.7-7.7c-1.9-2.9-2.9-6.7-2.9-10.6l19.2-5.8c0,3.8,1,6.7,3.8,8.6c2.9,1.9,4.8,2.9,7.7,2.9c1.9,0,3.8-1,5.8-1.9
		c1.9-1,1.9-5.8,1.9-7.7c0-2.9-1-4.8-3.8-6.7s-6.7-3.8-10.6-5.8c-3.8-1.9-8.6-3.8-13.5-5.8s-9.6-4.8-13.5-8.6
		c-3.8-3.8-7.7-7.7-10.6-12.5s-3.8-11.5-3.8-19.2c0-6.7,1-12.5,3.8-18.3c1.9-5.8,5.8-10.6,9.6-15.4s9.6-7.7,15.4-10.6
		c5.8-2.9,12.5-3.8,20.2-3.8c6.7,0,12.5,1,18.3,2.9s10.6,4.8,15.4,7.7s8.6,7.7,11.5,12.5c2.9,4.8,5.8,9.6,6.7,15.4L588,377.7z"/>
</g>
</symbol><symbol id="decade-1980s" viewBox="0 283.6 614.8 223.8">
<g>
	<path d="M40.6,328.9c8.5,3.8,14.2,13.2,14.2,24.6c0,16.1-12.3,26.4-26.4,26.4C13.2,379.9,0,369.6,0,353.5c0-9.4,3.8-17.9,10.4-28.3
		l17.9-28.3H51L40.6,328.9z M27.4,357.3c1.9,0,3.8-1.9,3.8-3.8s-1.9-4.7-3.8-4.7c-1.9,0-3.8,0.9-3.8,3.8
		C23.6,355.4,25.5,357.3,27.4,357.3z"/>
</g>
<g>
	<path d="M255.9,436.6c0,9.4-1.9,18.9-4.7,27.4c-3.8,8.5-8.5,16.1-15.1,22.7c-6.6,6.6-14.2,11.3-23.6,15.1s-19.8,5.7-32.1,5.7
		c-12.3,0-22.7-1.9-32.1-5.7s-17.9-8.5-24.6-15.1s-11.3-14.2-15.1-22.7c-3.8-8.5-5.7-17.9-5.7-28.3c0-5.7,0.9-11.3,1.9-16.1
		c0.9-4.7,2.8-9.4,4.7-13.2s3.8-6.6,5.7-9.4c1.9-2.8,4.7-4.7,6.6-6.6c-3.8-5.7-5.7-11.3-7.6-17.9c-1.9-6.6-2.8-13.2-2.8-19.8
		c0-9.4,1.9-18.9,5.7-27.4c3.8-8.5,8.5-16.1,15.1-22.7c6.6-6.6,14.2-11.3,22.7-15.1c6.6-1.9,15.1-3.8,25.5-3.8
		c9.4,0,18.9,1.9,27.4,5.7c8.5,3.8,16.1,8.5,22.7,15.1c6.6,6.6,11.3,14.2,15.1,22.7c3.8,8.5,5.7,17.9,5.7,27.4
		c0,6.6-0.9,13.2-2.8,19.8c-1.9,6.6-4.7,12.3-8.5,17.9c1.9,1.9,3.8,3.8,5.7,6.6c1.9,2.8,3.8,6.6,5.7,10.4c1.9,3.8,2.8,8.5,4.7,13.2
		C255,427.2,255.9,431.9,255.9,436.6z M226.7,433.8c0-8.5-1.9-16.1-6.6-20.8c-3.8-4.7-9.4-9.4-15.1-12.3c-5.7-2.8-12.3-5.7-19.8-7.6
		c-7.6-1.9-13.2-4.7-19.8-7.6c-5.7-2.8-11.3-6.6-15.1-11.3c-3.8-4.7-6.6-11.3-6.6-18.9c0-4.7,0.9-9.4,2.8-14.2
		c1.9-4.7,4.7-8.5,7.6-11.3c2.8-3.8,6.6-5.7,11.3-7.6c4.7-1.9,8.5-2.8,14.2-2.8c4.7,0,9.4,0.9,14.2,2.8c4.7,1.9,8.5,4.7,11.3,7.6
		c2.8,3.8,5.7,7.6,7.6,11.3c1.9,4.7,2.8,9.4,2.8,14.2c0,5.7-1.9,11.3-4.7,17l1.9,0.9l0.9,0.9c0.9,0,0.9,0.9,0.9,0.9
		c1.9-2.8,2.8-6.6,3.8-9.4c0.9-3.8,1.9-6.6,1.9-10.4c0-5.7-0.9-11.3-3.8-16.1c-1.9-4.7-4.7-9.4-8.5-13.2c-3.8-3.8-8.5-6.6-13.2-9.4
		c-3.8-3.8-9.4-4.7-15.1-4.7s-11.3,0.9-16.1,2.8c-4.7,1.9-9.4,4.7-13.2,9.4c-3.8,3.8-6.6,8.5-8.5,13.2c-1.9,4.7-3.8,10.4-3.8,16.1
		c0,9.4,1.9,16.1,5.7,21.7c3.8,5.7,8.5,9.4,15.1,13.2c5.7,3.8,13.2,5.7,19.8,8.5c6.6,2.8,14.2,4.7,19.8,7.6
		c6.6,2.8,11.3,6.6,15.1,11.3c3.8,4.7,6.6,11.3,6.6,18.9c0,6.6-0.9,12.3-2.8,17c-1.9,4.7-4.7,9.4-8.5,12.3
		c-3.8,2.8-8.5,5.7-13.2,7.6c-4.7,1.9-10.4,2.8-16.1,2.8c-5.7,0-11.3-0.9-17-2.8c-4.7-1.9-9.4-4.7-13.2-7.6
		c-3.8-3.8-6.6-7.6-9.4-12.3c-2.8-4.7-2.8-10.4-2.8-17c0-4.7,0.9-8.5,1.9-11.3c1.9-2.8,3.8-5.7,5.7-7.6l-5.7-1.9
		c-2.8,1.9-4.7,4.7-6.6,8.5c0,2.8-0.9,7.6-0.9,12.3c0,6.6,0.9,12.3,3.8,17.9c2.8,5.7,6.6,10.4,10.4,14.2c4.7,3.8,9.4,6.6,16.1,9.4
		c5.7,1.9,12.3,2.8,17.9,2.8c6.6,0,13.2-0.9,18.9-2.8c5.7-1.9,10.4-5.7,15.1-9.4c3.8-3.8,7.6-8.5,9.4-14.2
		C225.7,447,226.7,440.4,226.7,433.8z M191.7,435.7c0-3.8-1.9-6.6-5.7-8.5s-8.5-2.8-14.2-2.8c-1.9,0.9-2.8,2.8-3.8,4.7
		c-0.9,1.9-1.9,4.7-1.9,7.6c0,3.8,0.9,6.6,3.8,8.5s5.7,3.8,9.4,3.8s6.6-0.9,8.5-3.8C190.8,443.2,191.7,440.4,191.7,435.7z
		 M187.9,354.4c0-2.8-0.9-4.7-1.9-5.7c-1.9-1.9-3.8-1.9-5.7-1.9c-1.9,0-3.8,0.9-5.7,1.9c-1.9,1.9-1.9,3.8-1.9,5.7
		c0,1.9,0.9,3.8,1.9,5.7c1.9,1.9,3.8,1.9,5.7,1.9c1.9,0,3.8-0.9,5.7-1.9C187,358.2,187.9,356.3,187.9,354.4z"/>
	<path d="M491.1,396c0,15.1-2.8,30.2-8.5,43.4c-5.7,13.2-14.2,25.5-23.6,35.9c-9.4,10.4-21.7,17.9-35.9,23.6
		c-14.2,5.7-28.3,8.5-43.4,8.5c-15.1,0-30.2-2.8-43.4-8.5c-13.2-5.7-25.5-14.2-35.9-23.6c-10.4-10.4-17.9-21.7-23.6-35.9
		c-5.7-13.2-8.5-28.3-8.5-43.4s2.8-30.2,8.5-43.4c5.7-13.2,14.2-25.5,23.6-35.9c10.4-10.4,21.7-17.9,35.9-23.6
		c13.2-5.7,28.3-8.5,43.4-8.5c15.1,0,30.2,2.8,43.4,8.5c13.2,5.7,25.5,14.2,35.9,23.6c10.4,10.4,17.9,21.7,23.6,35.9
		C488.3,365.8,491.1,380.9,491.1,396z M462.8,396c0-11.3-1.9-22.7-6.6-33.1c-4.7-10.4-10.4-18.9-17.9-26.4
		c-7.6-7.6-16.1-13.2-26.4-17.9c-10.4-4.7-20.8-6.6-33.1-6.6c-11.3,0-22.7,1.9-33.1,6.6s-18.9,10.4-26.4,17.9
		c-7.6,7.6-13.2,16.1-17,26.4s-6.6,20.8-6.6,33.1c0,11.3,1.9,22.7,6.6,32.1c4.7,10.4,10.4,18.9,17.9,26.4
		c7.6,7.6,16.1,13.2,26.4,17.9c10.4,4.7,20.8,6.6,33.1,6.6c11.3,0,22.7-1.9,33.1-6.6s18.9-10.4,26.4-17.9
		c7.6-7.6,13.2-16.1,17.9-26.4C460.9,417.7,462.8,407.3,462.8,396z M455.2,396c0,10.4-1.9,20.8-5.7,29.3c-3.8,9.4-9.4,17-16.1,24.6
		c-6.6,6.6-15.1,12.3-24.6,16.1c-9.4,3.8-18.9,5.7-30.2,5.7c-10.4,0-20.8-1.9-30.2-5.7c-9.4-3.8-17.9-9.4-24.6-16.1
		c-6.6-7.6-12.3-15.1-16.1-24.6s-5.7-18.9-5.7-30.2c0-10.4,1.9-20.8,5.7-30.2c3.8-9.4,9.4-17,16.1-24.6c6.6-6.6,15.1-12.3,24.6-16.1
		c9.4-3.8,18.9-5.7,30.2-5.7c10.4,0,20.8,1.9,30.2,5.7c9.4,3.8,17.9,9.4,24.6,17c6.6,6.6,12.3,15.1,16.1,24.6
		C453.3,375.2,455.2,384.7,455.2,396z M427.8,396c0-6.6-0.9-13.2-3.8-18.9c-2.8-5.7-5.7-11.3-10.4-15.1c-4.7-4.7-9.4-7.6-15.1-10.4
		c-5.7-2.8-12.3-3.8-18.9-3.8c-6.6,0-12.3,0.9-18.9,3.8c-5.7,2.8-11.3,5.7-15.1,10.4c-4.7,4.7-7.6,9.4-10.4,15.1
		c-2.8,5.7-3.8,12.3-3.8,18.9s0.9,12.3,3.8,18.9c2.8,5.7,5.7,11.3,10.4,15.1c4.7,4.7,9.4,7.6,15.1,10.4c5.7,2.8,12.3,3.8,18.9,3.8
		c6.6,0,13.2-0.9,18.9-3.8s11.3-5.7,15.1-10.4c4.7-4.7,7.6-9.4,10.4-15.1C425.9,408.3,427.8,402.6,427.8,396z"/>
</g>
<g>
	<path d="M612,459.3c0,6.6-0.9,13.2-3.8,18.9c-2.8,5.7-6.6,11.3-11.3,15.1s-10.4,7.6-16.1,10.4c-6.6,2.8-12.3,3.8-18.9,3.8
		c-6.6,0-13.2-0.9-18.9-2.8c-5.7-1.9-11.3-4.7-16.1-8.5s-9.4-7.6-12.3-13.2c-3.8-4.7-5.7-10.4-6.6-17l19.8-5.7
		c0,3.8,1.9,7.6,3.8,11.3c1.9,2.8,4.7,6.6,7.6,8.5s6.6,3.8,10.4,5.7c3.8,1.9,7.6,1.9,12.3,1.9c4.7,0,8.5-0.9,12.3-1.9
		c3.8-1.9,6.6-3.8,9.4-5.7c2.8-2.8,4.7-5.7,6.6-9.4c1.9-3.8,2.8-7.6,2.8-11.3c0-6.6-0.9-11.3-3.8-15.1c-2.8-3.8-6.6-7.6-10.4-9.4
		c-3.8-2.8-8.5-4.7-13.2-6.6s-9.4-3.8-13.2-5.7s-7.6-4.7-10.4-7.6c-2.8-2.8-3.8-7.6-3.8-13.2c0-3.8,0.9-6.6,1.9-9.4s2.8-5.7,5.7-7.6
		c1.9-1.9,4.7-3.8,8.5-4.7c3.8-0.9,6.6-1.9,10.4-1.9c2.8,0,6.6,0.9,9.4,1.9c2.8,0.9,5.7,2.8,7.6,4.7s3.8,4.7,5.7,6.6
		c1.9,2.8,2.8,5.7,2.8,8.5l-17.9,5.7c0-1.9-0.9-3.8-1.9-4.7c-0.9-1.9-2.8-1.9-4.7-1.9s-2.8,0-3.8,0.9c-0.9,0.9-1.9,1.9-1.9,3.8
		c0,2.8,0.9,4.7,3.8,5.7c2.8,1.9,6.6,2.8,10.4,4.7c3.8,1.9,8.5,3.8,13.2,5.7s9.4,4.7,13.2,8.5s7.6,7.6,10.4,13.2
		C613.9,447,612,450.8,612,459.3z M590.3,396.9c-0.9-7.6-4.7-13.2-9.4-17c-5.7-4.7-12.3-6.6-19.8-6.6c-3.8,0-7.6,0.9-11.3,1.9
		c-3.8,0.9-6.6,3.8-8.5,5.7c-2.8,2.8-4.7,5.7-5.7,8.5c-1.9,3.8-1.9,6.6-1.9,11.3c0,5.7,0.9,10.4,3.8,14.2c2.8,3.8,6.6,6.6,10.4,8.5
		c3.8,2.8,8.5,4.7,13.2,6.6c4.7,1.9,9.4,3.8,13.2,6.6c3.8,2.8,7.6,5.7,10.4,8.5c2.8,3.8,3.8,8.5,3.8,14.2c0,3.8-0.9,7.6-1.9,10.4
		c-1.9,2.8-3.8,5.7-5.7,8.5c-2.8,1.9-5.7,3.8-8.5,5.7c-3.8,0.9-6.6,1.9-10.4,1.9c-3.8,0-7.6-0.9-11.3-1.9c-3.8-0.9-6.6-2.8-9.4-4.7
		c-2.8-1.9-4.7-4.7-6.6-7.6s-2.8-6.6-2.8-10.4l18.9-5.7c0,3.8,0.9,6.6,3.8,8.5c2.8,1.9,4.7,2.8,7.6,2.8c1.9,0,3.8-0.9,5.7-1.9
		c1.9-0.9,2.8-2.8,2.8-4.7c0-2.8-0.9-4.7-3.8-6.6c-2.8-1.9-6.6-3.8-10.4-5.7c-3.8-1.9-8.5-3.8-13.2-5.7c-4.7-1.9-9.4-4.7-13.2-8.5
		c-3.8-3.8-7.6-7.6-10.4-12.3c-2.8-4.7-3.8-11.3-3.8-18.9c0-6.6,0.9-12.3,3.8-17.9c1.9-5.7,5.7-10.4,9.4-15.1s9.4-7.6,15.1-10.4
		c5.7-2.8,12.3-3.8,19.8-3.8c6.6,0,12.3,0.9,17.9,2.8s10.4,4.7,15.1,7.6s8.5,7.6,11.3,12.3c2.8,4.7,5.7,9.4,6.6,15.1L590.3,396.9z"/>
</g>
</symbol><symbol id="decade-1990s" viewBox="10.7 273.9 600.4 211.2">
<g>
	<path d="M48.3,307c8.1,2.7,14.3,12.5,14.3,22.4c0,15.2-11.6,25.1-25.1,25.1c-14.3,0-26.8-9.8-26.8-25.1c0-8.9,3.6-17,9.8-26.8
		l17-26.8h21.5L48.3,307z M36.7,332.9c1.8,0,3.6-1.8,3.6-3.6c0-1.8-1.8-3.6-3.6-3.6s-3.6,1.8-3.6,3.6
		C33.1,331.1,34,332.9,36.7,332.9z"/>
</g>
<g>
	<path d="M105.6,355.3c0-11.6,1.8-21.5,6.3-31.3c4.5-9.8,9.8-17.9,17-25.9c7.2-7.2,16.1-13.4,25.9-17c9.8-4.5,20.6-6.3,31.3-6.3
		s21.5,1.8,31.3,6.3s18.8,9.8,25.9,17c7.2,7.2,13.4,16.1,17.9,25.9s6.3,20.6,6.3,31.3c0,8.9-0.9,17-3.6,24.2
		c-1.8,7.2-6.3,15.2-11.6,23.3l-55.5,81.4h-34l62.6-88.6c3.6-5.4,6.3-9.8,8.1-13.4s3.6-8.1,4.5-10.7c0.9-3.6,1.8-6.3,1.8-8.9
		s0-5.4,0-7.2c0-7.2-1.8-14.3-4.5-20.6s-7.2-11.6-11.6-17c-4.5-4.5-10.7-8.9-17-11.6c-6.3-2.7-13.4-4.5-20.6-4.5
		c-7.2,0-14.3,1.8-20.6,4.5c-6.3,2.7-12.5,6.3-17,11.6c-4.5,4.5-8.9,10.7-11.6,17c-2.7,6.3-4.5,13.4-4.5,20.6
		c0,6.3,0.9,12.5,3.6,17.9c1.8,5.4,5.4,10.7,8.9,15.2c3.6,4.5,8.1,8.1,13.4,11.6c5.4,3.6,10.7,5.4,17,6.3c0.9-0.9,1.8-1.8,2.7-2.7
		c0.9-0.9,1.8-1.8,1.8-2.7c-5.4-0.9-10.7-2.7-16.1-5.4c-5.4-2.7-8.9-6.3-12.5-9.8c-3.6-4.5-6.3-8.9-8.9-14.3
		c-1.8-5.4-2.7-10.7-2.7-17s0.9-12.5,3.6-17.9c2.7-5.4,5.4-10.7,9.8-15.2c4.5-4.5,8.9-8.1,15.2-9.8c5.4-2.7,11.6-3.6,17.9-3.6
		c6.3,0,12.5,0.9,18.8,3.6c5.4,2.7,10.7,6.3,15.2,10.7c4.5,4.5,8.1,8.9,10.7,15.2c2.7,6.3,3.6,11.6,3.6,17.9c0,4.5-0.9,8.9-1.8,13.4
		c-0.9,3.6-2.7,7.2-3.6,10.7c-1.8,3.6-2.7,6.3-4.5,8.9c-1.8,2.7-3.6,4.5-4.5,6.3c-7.2,9.8-14.3,19.7-21.5,30.4s-14.3,20.6-20.6,28.6
		c-7.2,10.7-14.3,20.6-21.5,30.4h-33.1l36.7-53.7c-8.1-2.7-15.2-7.2-21.5-11.6c-6.3-5.4-11.6-10.7-17-17s-8.1-13.4-10.7-21.5
		C107.4,371.4,105.6,363.3,105.6,355.3z M165.5,355.3c0,5.4,2.7,10.7,6.3,15.2c4.5,4.5,8.9,6.3,15.2,6.3s11.6-1.8,15.2-6.3
		c3.6-4.5,5.4-8.9,5.4-15.2c0-2.7-0.9-6.3-1.8-8.1c-0.9-2.7-2.7-4.5-4.5-6.3c-1.8-1.8-4.5-3.6-7.2-4.5s-5.4-1.8-8.1-1.8
		s-5.4,0.9-8.1,1.8c-2.7,0.9-4.5,2.7-6.3,4.5c-1.8,1.8-3.6,4.5-4.5,7.2C166.4,349.9,165.5,352.6,165.5,355.3z"/>
	<path d="M489.4,379.4c0,14.3-2.7,28.6-8.1,41.2c-5.4,12.5-13.4,24.2-22.4,34s-20.6,17-34,22.4c-13.4,5.4-26.8,8.1-41.2,8.1
		c-14.3,0-28.6-2.7-41.2-8.1c-12.5-5.4-24.2-13.4-34-22.4c-9.8-9.8-17-20.6-22.4-34c-5.4-12.5-8.1-26.8-8.1-41.2s2.7-28.6,8.1-41.2
		c5.4-12.5,13.4-24.2,22.4-34c9.8-9.8,20.6-17,34-22.4c12.5-5.4,26.8-8.1,41.2-8.1c14.3,0,28.6,2.7,41.2,8.1
		c12.5,5.4,24.2,13.4,34,22.4c9.8,9.8,17,20.6,22.4,34C486.7,351.7,489.4,365.1,489.4,379.4z M462.6,379.4c0-10.7-1.8-21.5-6.3-31.3
		c-4.5-9.8-9.8-17.9-17-25.1s-15.2-12.5-25.1-17c-9.8-4.5-20.6-6.3-31.3-6.3s-21.5,1.8-31.3,6.3c-9.8,4.5-17.9,9.8-25.1,17
		c-7.2,7.2-12.5,16.1-17,25.1c-4.5,8.9-5.4,20.6-5.4,31.3s1.8,21.5,6.3,30.4c4.5,9.8,9.8,17.9,17,25.1c7.2,7.2,15.2,12.5,25.1,17
		c9.8,4.5,19.7,6.3,31.3,6.3c10.7,0,21.5-1.8,31.3-6.3c9.8-4.5,17.9-9.8,25.1-17c7.2-7.2,12.5-15.2,17-25.1
		C459.9,400.9,462.6,391.1,462.6,379.4z M455.4,379.4c0,9.8-1.8,19.7-5.4,27.7c-3.6,8.9-8.9,16.1-15.2,23.3
		c-6.3,6.3-14.3,11.6-23.3,15.2c-8.9,3.6-17.9,5.4-28.6,5.4c-9.8,0-19.7-1.8-28.6-5.4c-8.9-3.6-17-8.9-23.3-15.2
		c-6.3-6.3-11.6-14.3-15.2-23.3c-3.6-8.9-5.4-17.9-5.4-28.6c0-9.8,1.8-19.7,5.4-28.6c3.6-8.9,8.9-16.1,15.2-23.3
		c6.3-6.3,14.3-11.6,23.3-15.2c8.9-3.6,17.9-5.4,28.6-5.4c9.8,0,19.7,1.8,28.6,5.4c8.9,3.6,17,8.9,23.3,16.1
		c6.3,6.3,11.6,14.3,15.2,23.3C453.6,359.8,455.4,369.6,455.4,379.4z M428.6,379.4c0-6.3-0.9-12.5-3.6-17.9
		c-2.7-5.4-5.4-10.7-9.8-14.3c-4.5-4.5-8.9-7.2-14.3-9.8c-5.4-2.7-11.6-3.6-17.9-3.6c-6.3,0-11.6,0.9-17.9,3.6
		c-5.4,2.7-10.7,5.4-14.3,9.8c-4.5,4.5-7.2,8.9-9.8,14.3c-2.7,5.4-3.6,11.6-3.6,17.9c0,6.3,0.9,11.6,3.6,17.9
		c2.7,5.4,5.4,10.7,9.8,14.3c4.5,4.5,8.9,7.2,14.3,9.8s11.6,3.6,17.9,3.6c6.3,0,12.5-0.9,17.9-3.6s10.7-5.4,14.3-9.8
		c4.5-4.5,7.2-8.9,9.8-14.3S428.6,385.7,428.6,379.4z"/>
</g>
<g>
	<path d="M609.3,439.4c0,6.3-0.9,12.5-3.6,17.9c-2.7,5.4-6.3,10.7-10.7,14.3s-9.8,7.2-15.2,9.8c-6.3,2.7-11.6,3.6-17.9,3.6
		s-12.5-0.9-17.9-2.7c-5.4-1.8-10.7-4.5-15.2-8.1c-4.5-3.6-8.9-7.2-11.6-12.5c-3.6-4.5-5.4-9.8-6.3-16.1l18.8-5.4
		c0,3.6,1.8,7.2,3.6,10.7c1.8,2.7,4.5,6.3,7.2,8.1s6.3,3.6,9.8,5.4s7.2,1.8,11.6,1.8c4.5,0,8.1-0.9,11.6-1.8
		c3.6-1.8,6.3-3.6,8.9-5.4c2.7-2.7,4.5-5.4,6.3-8.9s2.7-7.2,2.7-10.7c0-6.3-0.9-10.7-3.6-14.3c-2.7-3.6-6.3-7.2-9.8-8.9
		c-3.6-2.7-8.1-4.5-12.5-6.3c-4.5-1.8-8.9-3.6-12.5-5.4c-3.6-1.8-7.2-4.5-9.8-7.2s-3.6-7.2-3.6-12.5c0-3.6,0.9-6.3,1.8-8.9
		c0.9-2.7,2.7-5.4,5.4-7.2c1.8-1.8,4.5-3.6,8.1-4.5s6.3-1.8,9.8-1.8c2.7,0,6.3,0.9,8.9,1.8c2.7,0.9,5.4,2.7,7.2,4.5
		c1.8,1.8,3.6,4.5,5.4,6.3c1.8,2.7,2.7,5.4,2.7,8.1l-17,5.4c0-1.8-0.9-3.6-1.8-4.5c-0.9-1.8-2.7-1.8-4.5-1.8s-2.7,0-3.6,0.9
		c-0.9,0.9-1.8,1.8-1.8,3.6c0,2.7,0.9,4.5,3.6,5.4c2.7,1.8,6.3,2.7,9.8,4.5s8.1,3.6,12.5,5.4c4.5,1.8,8.9,4.5,12.5,8.1
		c3.6,3.6,7.2,7.2,9.8,12.5C611.1,427.8,609.3,432.2,609.3,439.4z M588.7,381.2c-0.9-7.2-4.5-12.5-8.9-16.1
		c-5.4-4.5-11.6-6.3-18.8-6.3c-3.6,0-7.2,0.9-10.7,1.8c-3.6,0.9-6.3,3.6-8.1,5.4c-2.7,2.7-4.5,5.4-5.4,8.1
		c-1.8,3.6-1.8,6.3-1.8,10.7c0,5.4,0.9,9.8,3.6,13.4c2.7,3.6,6.3,6.3,9.8,8.1c3.6,2.7,8.1,4.5,12.5,6.3c4.5,1.8,8.9,3.6,12.5,6.3
		c3.6,2.7,7.2,5.4,9.8,8.1c2.7,3.6,3.6,8.1,3.6,13.4c0,3.6-0.9,7.2-1.8,9.8c-1.8,2.7-3.6,5.4-5.4,8.1c-2.7,1.8-5.4,3.6-8.1,5.4
		c-3.6-0.9-7.2-0.9-10.7-0.9s-7.2-0.9-10.7-1.8c-3.6-0.9-6.3-2.7-8.9-4.5s-4.5-4.5-6.3-7.2c-1.8-2.7-2.7-6.3-2.7-9.8l17.9-5.4
		c0,3.6,0.9,6.3,3.6,8.1c2.7,1.8,4.5,2.7,7.2,2.7c1.8,0,3.6-0.9,5.4-1.8c1.8-0.9,2.7-2.7,2.7-4.5c0-2.7-0.9-4.5-3.6-6.3
		c-2.7-1.8-6.3-3.6-9.8-5.4c-3.6-1.8-8.1-3.6-12.5-5.4c-4.5-1.8-8.9-4.5-12.5-8.1s-7.2-7.2-9.8-11.6c-2.7-4.5-3.6-10.7-3.6-17.9
		c0-6.3,0.9-11.6,3.6-17c1.8-5.4,5.4-9.8,8.9-14.3s8.9-7.2,14.3-9.8c5.4-2.7,11.6-3.6,18.8-3.6c6.3,0,11.6,0.9,17,2.7
		c5.4,1.8,9.8,4.5,14.3,7.2s8.1,7.2,10.7,11.6c2.7,4.5,5.4,8.9,6.3,14.3L588.7,381.2z"/>
</g>
</symbol><symbol id="fb" viewBox="0 0 13.4 13.4">
<path d="M12.6,0H0.7C0.3,0,0,0.3,0,0.7v11.9c0,0.4,0.3,0.7,0.7,0.7h6.4V8.2H5.4v-2h1.7V4.7C7.1,3,8.2,2,9.7,2c0.7,0,1.4,0.1,1.6,0.1
	v1.8l-1.1,0c-0.8,0-1,0.4-1,1v1.3h2l-0.3,2H9.2v5.2h3.4c0.4,0,0.7-0.3,0.7-0.7V0.7C13.4,0.3,13,0,12.6,0z"/>
</symbol><symbol id="ig" viewBox="0 0 13.1 13.1">
<path d="M1.7,0h9.7c0.9,0,1.7,0.7,1.7,1.7v9.7c0,1-0.8,1.7-1.7,1.7H1.7c-0.9,0-1.7-0.7-1.7-1.7V1.7C0,0.7,0.8,0,1.7,0L1.7,0z
	 M9.5,1.5C9.2,1.5,8.9,1.7,8.9,2v1.4c0,0.3,0.3,0.6,0.6,0.6H11c0.3,0,0.6-0.3,0.6-0.6V2c0-0.3-0.3-0.6-0.6-0.6H9.5L9.5,1.5z
	 M11.6,5.5h-1.1c0.1,0.3,0.2,0.7,0.2,1.1c0,2.2-1.8,3.9-4.1,3.9S2.5,8.9,2.5,6.7c0-0.4,0.1-0.8,0.2-1.1H1.5v5.5
	c0,0.3,0.2,0.5,0.5,0.5h9.1c0.3,0,0.5-0.2,0.5-0.5L11.6,5.5L11.6,5.5z M6.6,4C5.1,4,3.9,5.1,3.9,6.5s1.2,2.5,2.6,2.5
	s2.6-1.1,2.6-2.6S8,4,6.6,4z"/>
</symbol><symbol id="tw" viewBox="0 0 16.4 13.3">
<g id="twitter_3_">
	<g>
		<path d="M16.4,1.6c-0.3,0.2-1.1,0.5-1.9,0.5C15,1.9,15.7,1,15.9,0.3C15.4,0.6,14.4,1,13.8,1l0,0c-0.6-0.6-1.5-1-2.5-1
			C9.5,0,8,1.5,8,3.4c0,0.3,0,0.5,0.1,0.7l0,0C5.5,4,2.6,2.8,0.9,0.6c-1,1.8-0.1,3.7,1,4.5C1.5,5.1,0.8,5,0.5,4.7
			C0.4,5.9,1,7.4,3.1,8C2.7,8.2,2,8.2,1.7,8.1c0.1,1,1.5,2.3,3,2.3C4.1,11,2.3,12.2,0,11.8c1.6,0.9,3.4,1.5,5.3,1.5
			c5.4,0,9.7-4.4,9.5-9.9v0c0,0,0,0,0-0.1s0,0,0-0.1C15.2,3,15.9,2.4,16.4,1.6z"/>
	</g>
</g>
</symbol></svg>