<?xml version="1.0" encoding="utf-8"?>
<!-- Generator: Adobe Illustrator 18.1.1, SVG Export Plug-In . SVG Version: 6.00 Build 0)  -->
<svg version="1.1" id="Layer_1" xmlns="http://www.w3.org/2000/svg" xmlns:xlink="http://www.w3.org/1999/xlink" x="0px" y="0px"
	 viewBox="0 0 160.5 143" enable-background="new 0 0 160.5 143" xml:space="preserve">
<path d="M70.7,66.9c0-0.2,0-0.4,0-0.6c0-5.3,4.3-9.5,9.5-9.5c5.3,0,9.5,4.3,9.5,9.5c0,0.1,0,0.3,0,0.4c0.6,0,1.3,0.1,1.9,0.1
	c0,0,0,0,0,0c0.1-0.3,0.2-0.5,0.2-0.5s0.1,0.2,0.1,0.5c0,0,0,0,0,0c0.5,0,1.1,0.1,1.6,0.1c0-0.1,0-0.2,0.1-0.3
	c0-0.2,0.1-0.4,0.1-0.5c0-0.1,0-0.2,0-0.2s0,0.1,0,0.2c0,0,0,0.1,0,0.1c0,0,0,0.1,0,0.1c0,0.1,0,0.2,0,0.3c0,0.1,0,0.2,0.1,0.3
	c0.6,0.1,1.3,0.1,1.9,0.2c0,0,0,0,0-0.1c0-0.1,0.1-0.3,0.1-0.4c0-0.2,0.1-0.4,0.1-0.5c0-0.1,0-0.2,0-0.2s0,0.1,0,0.2
	c0,0,0,0.1,0,0.1c0,0,0,0.1,0,0.1c0,0.1,0,0.2,0.1,0.3c0,0.1,0,0.2,0.1,0.4c0,0,0,0.1,0,0.1c0.6,0.1,1.1,0.1,1.7,0.2
	c0-0.1,0-0.1,0-0.2c0-0.2,0.1-0.3,0.1-0.4c0-0.3,0.1-0.5,0.1-0.6c0-0.1,0-0.2,0-0.2s0,0.1,0,0.2c0,0,0,0.1,0,0.1c0,0,0,0.1,0,0.1
	c0,0.1,0,0.2,0.1,0.4c0,0.1,0,0.3,0,0.4c0,0.1,0,0.1,0,0.2c0.5,0.1,1.1,0.1,1.6,0.2c0,0,0,0,0,0c0-0.1,0-0.2,0-0.3
	c0-0.2,0.1-0.3,0.1-0.5c0-0.3,0.1-0.5,0.1-0.7c0-0.2,0-0.2,0-0.2s0,0.1,0,0.2c0,0,0,0.1,0,0.1c0,0,0,0.1,0,0.2c0,0.1,0,0.2,0.1,0.4
	c0,0.1,0,0.3,0,0.5c0,0.1,0,0.2,0,0.3c0.5,0.1,1.1,0.1,1.6,0.2c0-0.1,0-0.1,0-0.2c0-0.1,0-0.2,0.1-0.3c0-0.2,0.1-0.4,0.1-0.5
	c0-0.3,0.1-0.6,0.1-0.7c0-0.2,0-0.3,0-0.3s0,0.1,0,0.3c0,0,0,0.1,0,0.1c0,0.1,0,0.1,0,0.2c0,0.1,0,0.3,0.1,0.4c0,0.2,0,0.3,0,0.5
	c0,0.2,0,0.3,0,0.5c0.5,0.1,1,0.2,1.6,0.2c0-0.1,0-0.2,0.1-0.3c0-0.1,0-0.2,0.1-0.3c0-0.2,0.1-0.4,0.1-0.6c0.1-0.7,0.2-1.1,0.2-1.1
	s0,0.1,0,0.3c0,0,0,0.1,0,0.2c0,0.1,0,0.1,0,0.2c0,0.1,0,0.3,0.1,0.5c0,0.2,0,0.4,0,0.6c0,0.2,0,0.5,0,0.7c0,0,0,0,0,0
	c0.6,0.1,1.1,0.2,1.7,0.3c0.1-0.8,0.1-1.5,0.1-2.3c0-14.6-11.9-26.5-26.5-26.5c-14.6,0-26.5,11.9-26.5,26.5c0,0.9,0,1.8,0.1,2.7
	C59.2,68,64.9,67.3,70.7,66.9z M73.5,56.6c0.3-0.1,0.5-0.2,0.5-0.2s-0.1,0.2-0.3,0.4c-0.1,0.1-0.1,0.1-0.2,0.2
	c-0.1,0.1-0.1,0.2-0.2,0.2c-0.1,0.1-0.2,0.2-0.2,0.3c-0.1,0.1-0.2,0.2-0.2,0.3c-0.2,0.2-0.3,0.4-0.5,0.7c0,0,0,0.1-0.1,0.1
	c0,0,0,0.1-0.1,0.1c0,0.1-0.1,0.1-0.1,0.2c-0.1,0.1-0.2,0.3-0.3,0.4c-0.1,0.1-0.2,0.3-0.3,0.4c-0.1,0.1-0.2,0.3-0.3,0.4
	c-0.1,0.1-0.2,0.3-0.3,0.4l-0.1,0.2c0,0.1-0.1,0.2-0.1,0.2c-0.1,0.2-0.2,0.3-0.2,0.5c-0.1,0.2-0.1,0.3-0.2,0.5l-0.1,0.1l-0.1,0.1
	c0,0.1-0.1,0.2-0.1,0.2c0,0.1-0.1,0.2-0.1,0.2c0,0.1-0.1,0.2-0.1,0.2c-0.1,0.2-0.1,0.3-0.2,0.5c-0.1,0.2-0.1,0.3-0.2,0.4
	c0,0.1-0.1,0.1-0.1,0.2c0,0.1,0,0.1-0.1,0.2c0,0.1-0.1,0.3-0.1,0.4c0,0,0,0.1,0,0.1c0,0,0,0.1,0,0.1c0,0.1,0,0.1-0.1,0.2
	c0,0.1-0.1,0.2-0.1,0.3c0,0.1-0.1,0.2-0.1,0.3c0,0.1-0.1,0.2-0.1,0.3c0,0.1,0,0.2-0.1,0.2c0,0,0,0,0,0c0,0,0,0,0,0c0,0,0,0,0,0
	c0,0,0,0.1,0,0.1c0,0.1,0,0.1,0,0.1s0,0,0-0.1c0,0,0,0,0-0.1c0,0,0,0,0,0c0,0,0,0,0,0c0,0,0,0,0,0c0-0.1,0-0.1-0.1-0.2
	c0-0.1,0-0.2-0.1-0.3c0-0.1,0-0.2-0.1-0.3c0-0.1,0-0.2,0-0.4c0-0.1,0-0.1,0-0.2c0,0,0-0.1,0-0.1c0,0,0-0.1,0-0.1c0-0.1,0-0.3,0-0.5
	c0-0.1,0-0.2,0-0.2c0-0.1,0-0.2,0-0.2c0-0.2,0-0.3,0.1-0.5c0-0.2,0.1-0.4,0.1-0.5c0-0.1,0-0.2,0.1-0.3c0-0.1,0.1-0.2,0.1-0.3
	c0-0.1,0.1-0.2,0.1-0.3l0-0.1l0.1-0.1c0.1-0.2,0.1-0.4,0.2-0.5c0.1-0.2,0.2-0.4,0.3-0.5c0.1-0.2,0.2-0.3,0.3-0.5
	c0.1-0.2,0.2-0.3,0.3-0.5c0.1-0.2,0.2-0.3,0.4-0.5c0.1-0.1,0.3-0.3,0.4-0.4c0.1-0.1,0.3-0.3,0.4-0.4c0.1-0.1,0.1-0.1,0.2-0.2
	c0,0,0.1-0.1,0.1-0.1c0,0,0.1-0.1,0.1-0.1c0.1-0.1,0.3-0.2,0.4-0.3c0.1-0.1,0.3-0.2,0.4-0.3c0.1-0.1,0.2-0.2,0.4-0.2
	c0.1-0.1,0.2-0.1,0.3-0.2c0.1-0.1,0.2-0.1,0.3-0.1C73.3,56.7,73.4,56.7,73.5,56.6z M72.4,55c0.4-0.1,0.6-0.2,0.6-0.2
	s-0.1,0.2-0.4,0.5c0,0-0.1,0.1-0.1,0.1c0,0-0.1,0.1-0.1,0.1c-0.1,0.1-0.2,0.2-0.2,0.3c-0.1,0.1-0.2,0.2-0.3,0.3
	c-0.1,0.1-0.2,0.2-0.3,0.4c-0.2,0.2-0.4,0.5-0.7,0.8c0,0-0.1,0.1-0.1,0.1c0,0-0.1,0.1-0.1,0.1c-0.1,0.1-0.1,0.2-0.2,0.2
	c-0.1,0.2-0.2,0.3-0.3,0.5c-0.1,0.2-0.2,0.3-0.3,0.5c-0.1,0.2-0.2,0.3-0.3,0.5c-0.1,0.2-0.2,0.4-0.3,0.5c-0.1,0.1-0.1,0.2-0.2,0.3
	c-0.1,0.1-0.1,0.2-0.1,0.3c-0.1,0.2-0.2,0.4-0.3,0.5c-0.1,0.2-0.2,0.4-0.3,0.6l-0.1,0.1l-0.1,0.1c0,0.1-0.1,0.2-0.1,0.3
	c0,0.1-0.1,0.2-0.1,0.3c0,0.1-0.1,0.2-0.1,0.3c-0.1,0.2-0.1,0.4-0.2,0.5c-0.1,0.2-0.1,0.4-0.2,0.5c0,0.1-0.1,0.2-0.1,0.3
	c0,0.1,0,0.2-0.1,0.3c-0.1,0.2-0.1,0.3-0.1,0.5c0,0,0,0.1,0,0.1c0,0,0,0.1,0,0.1c0,0.1,0,0.1-0.1,0.2c0,0.1-0.1,0.3-0.1,0.4
	c0,0.1-0.1,0.3-0.1,0.4c0,0.1-0.1,0.2-0.1,0.3c0,0.1,0,0.2-0.1,0.3c0,0,0,0.1,0,0.1c0,0,0,0.1,0,0.1c0,0.1,0,0.2,0,0.2s0-0.1,0-0.2
	c0,0,0-0.1,0-0.1c0,0,0-0.1,0-0.1c0-0.1,0-0.2-0.1-0.3c0-0.1,0-0.2-0.1-0.3c0-0.1,0-0.2-0.1-0.4c0-0.1,0-0.3,0-0.4
	c0-0.1,0-0.2,0-0.2c0,0,0-0.1,0-0.1c0,0,0-0.1,0-0.1c0-0.2,0-0.3,0-0.5c0-0.1,0-0.2,0-0.3c0-0.1,0-0.2,0-0.3c0-0.2,0.1-0.4,0.1-0.6
	c0-0.2,0.1-0.4,0.1-0.6c0-0.1,0-0.2,0.1-0.3c0-0.1,0.1-0.2,0.1-0.3c0-0.1,0.1-0.2,0.1-0.3c0-0.1,0-0.1,0.1-0.2l0.1-0.2
	c0.1-0.2,0.2-0.4,0.3-0.6c0.1-0.2,0.2-0.4,0.3-0.6c0.1-0.2,0.2-0.4,0.4-0.6c0.1-0.2,0.2-0.4,0.4-0.6c0.1-0.2,0.3-0.4,0.4-0.5
	c0.1-0.2,0.3-0.3,0.4-0.5c0.1-0.2,0.3-0.3,0.4-0.5c0.1-0.1,0.2-0.1,0.2-0.2c0,0,0.1-0.1,0.1-0.1c0,0,0.1-0.1,0.1-0.1
	c0.2-0.1,0.3-0.2,0.5-0.4c0.1-0.1,0.3-0.2,0.4-0.3c0.1-0.1,0.3-0.2,0.4-0.3c0.1-0.1,0.3-0.1,0.4-0.2c0.1-0.1,0.2-0.1,0.3-0.2
	C72.2,55,72.3,55,72.4,55z M71.6,52.8c0.1,0,0.2-0.1,0.2-0.1S71.7,52.8,71.6,52.8c0,0.2-0.2,0.3-0.3,0.4c-0.1,0.1-0.2,0.2-0.3,0.3
	c-0.1,0.1-0.2,0.2-0.3,0.3c-0.1,0.1-0.2,0.2-0.3,0.4c-0.1,0.1-0.2,0.3-0.4,0.4c-0.1,0.1-0.3,0.3-0.4,0.4c-0.1,0.1-0.1,0.2-0.2,0.2
	c-0.1,0.1-0.1,0.2-0.2,0.2c-0.1,0.2-0.3,0.3-0.4,0.5c-0.1,0.2-0.3,0.4-0.4,0.5c-0.1,0.2-0.3,0.4-0.4,0.6c-0.1,0.2-0.3,0.4-0.4,0.6
	c-0.1,0.2-0.3,0.4-0.4,0.6c-0.1,0.2-0.2,0.4-0.4,0.6c-0.2,0.4-0.5,0.9-0.7,1.3c-0.2,0.4-0.4,0.9-0.6,1.3c-0.1,0.2-0.2,0.4-0.2,0.6
	c-0.1,0.2-0.1,0.4-0.2,0.6c0,0.1-0.1,0.2-0.1,0.3c0,0.1-0.1,0.2-0.1,0.3c-0.1,0.2-0.1,0.4-0.2,0.6c-0.1,0.4-0.2,0.7-0.3,1
	c0,0.2-0.1,0.3-0.1,0.4c0,0.1-0.1,0.3-0.1,0.4c0,0.1,0,0.2-0.1,0.3c0,0.1,0,0.2,0,0.2c0,0.1,0,0.2,0,0.2s0-0.1,0-0.2
	c0,0,0-0.1,0-0.1c0,0,0-0.1,0-0.1c0-0.1,0-0.2-0.1-0.3c0-0.1,0-0.2-0.1-0.4c0-0.1,0-0.3,0-0.5c0-0.3,0-0.7,0-1.1c0-0.2,0-0.4,0-0.6
	c0-0.1,0-0.2,0-0.3c0-0.1,0-0.2,0-0.3c0-0.1,0-0.1,0-0.2c0-0.1,0-0.1,0-0.2c0-0.1,0-0.2,0.1-0.4c0-0.2,0.1-0.5,0.2-0.7
	c0.1-0.5,0.3-1,0.5-1.5c0.2-0.5,0.4-1,0.7-1.5c0.1-0.2,0.3-0.5,0.4-0.7c0.1-0.2,0.3-0.5,0.4-0.7c0.2-0.2,0.3-0.4,0.5-0.6
	c0.2-0.2,0.3-0.4,0.5-0.6c0.2-0.2,0.3-0.4,0.5-0.5c0.1-0.1,0.2-0.2,0.3-0.2c0.1-0.1,0.2-0.2,0.3-0.2c0.3-0.3,0.7-0.6,1-0.8
	c0.2-0.1,0.3-0.2,0.5-0.3c0.2-0.1,0.3-0.2,0.4-0.3c0.3-0.2,0.5-0.3,0.7-0.4C71.3,52.9,71.5,52.9,71.6,52.8z M70.5,51
	c0.1-0.1,0.2-0.1,0.2-0.1S70.6,51,70.5,51c-0.1,0.2-0.2,0.3-0.4,0.5c-0.1,0.1-0.2,0.2-0.3,0.3c-0.1,0.1-0.2,0.2-0.4,0.3
	c-0.1,0.1-0.3,0.3-0.4,0.4c-0.1,0.1-0.3,0.3-0.4,0.5c-0.1,0.2-0.3,0.3-0.4,0.5c-0.1,0.1-0.2,0.2-0.2,0.3c-0.1,0.1-0.2,0.2-0.2,0.3
	c-0.2,0.2-0.3,0.4-0.5,0.6c-0.2,0.2-0.3,0.4-0.5,0.6c-0.2,0.2-0.3,0.4-0.5,0.7c-0.1,0.1-0.2,0.2-0.2,0.3c-0.1,0.1-0.2,0.2-0.2,0.3
	c-0.2,0.2-0.3,0.5-0.4,0.7c-0.1,0.2-0.3,0.5-0.4,0.7c-0.3,0.5-0.5,1-0.8,1.5c0,0.1-0.1,0.1-0.1,0.2c0,0.1-0.1,0.1-0.1,0.2
	c-0.1,0.1-0.1,0.3-0.2,0.4c-0.1,0.3-0.2,0.5-0.3,0.7c-0.1,0.2-0.2,0.5-0.3,0.7c-0.1,0.2-0.2,0.5-0.2,0.7c0,0.1-0.1,0.2-0.1,0.3
	c0,0.1-0.1,0.2-0.1,0.3c0,0.1-0.1,0.2-0.1,0.3c0,0.1-0.1,0.2-0.1,0.3c-0.1,0.4-0.2,0.8-0.3,1.2c0,0.2-0.1,0.3-0.1,0.5
	c0,0.2-0.1,0.3-0.1,0.4c0,0.1,0,0.2-0.1,0.3c0,0,0,0.1,0,0.1c0,0,0,0.1,0,0.1c0,0.1,0,0.2,0,0.2s0-0.1,0-0.2c0,0,0-0.1,0-0.1
	c0,0,0-0.1,0-0.1c0-0.1,0-0.2-0.1-0.3c0-0.1,0-0.3-0.1-0.4c0-0.2,0-0.3,0-0.5c0-0.4,0-0.8,0-1.2c0-0.2,0-0.5,0-0.7
	c0-0.1,0-0.2,0-0.4c0-0.1,0-0.3,0.1-0.4c0-0.1,0-0.1,0-0.2c0-0.1,0-0.1,0-0.2c0-0.1,0-0.3,0.1-0.4c0.1-0.3,0.1-0.5,0.2-0.8
	c0-0.1,0.1-0.3,0.1-0.4c0-0.1,0.1-0.3,0.1-0.4c0-0.1,0.1-0.3,0.1-0.4c0-0.1,0.1-0.1,0.1-0.2c0-0.1,0.1-0.1,0.1-0.2
	c0.1-0.3,0.2-0.6,0.4-0.8c0.1-0.1,0.1-0.3,0.2-0.4c0.1-0.1,0.1-0.3,0.2-0.4c0.1-0.3,0.3-0.5,0.5-0.8c0.2-0.3,0.3-0.5,0.5-0.8
	c0.3-0.5,0.7-0.9,1.1-1.4c0.2-0.2,0.4-0.4,0.6-0.6c0.1-0.1,0.2-0.2,0.3-0.3c0,0,0.1-0.1,0.1-0.1c0,0,0.1-0.1,0.1-0.1
	c0.4-0.3,0.8-0.6,1.1-0.9c0.2-0.1,0.4-0.2,0.5-0.4c0.2-0.1,0.3-0.2,0.5-0.3c0.3-0.2,0.6-0.3,0.8-0.4C70.1,51.1,70.3,51,70.5,51z
	 M69.4,49.2c0.1-0.1,0.2-0.1,0.2-0.1S69.5,49.2,69.4,49.2c-0.1,0.2-0.2,0.3-0.4,0.5c-0.1,0.1-0.2,0.2-0.3,0.3
	c-0.1,0.1-0.3,0.2-0.4,0.4c-0.1,0.1-0.3,0.3-0.4,0.4c-0.2,0.2-0.3,0.3-0.5,0.5c-0.2,0.2-0.3,0.4-0.5,0.6c-0.1,0.1-0.2,0.2-0.3,0.3
	c-0.1,0.1-0.2,0.2-0.3,0.3c0,0.1-0.1,0.1-0.1,0.2c0,0.1-0.1,0.1-0.1,0.2c-0.1,0.1-0.2,0.2-0.3,0.3c-0.2,0.2-0.4,0.5-0.5,0.7
	c-0.2,0.2-0.4,0.5-0.5,0.7c-0.1,0.1-0.2,0.3-0.3,0.4c-0.1,0.1-0.2,0.3-0.3,0.4c-0.2,0.3-0.3,0.5-0.5,0.8c-0.2,0.3-0.3,0.5-0.5,0.8
	c-0.3,0.6-0.6,1.1-0.8,1.7c0,0.1-0.1,0.1-0.1,0.2c0,0.1-0.1,0.1-0.1,0.2c-0.1,0.1-0.1,0.3-0.2,0.4c-0.1,0.3-0.2,0.6-0.3,0.8
	c-0.1,0.3-0.2,0.6-0.3,0.8c0,0.1-0.1,0.3-0.1,0.4c0,0.1-0.1,0.3-0.1,0.4c0,0.1-0.1,0.3-0.1,0.4c0,0.1-0.1,0.3-0.1,0.4
	c0,0.1-0.1,0.2-0.1,0.4c0,0.1-0.1,0.2-0.1,0.4c-0.1,0.5-0.2,0.9-0.3,1.3c0,0.2-0.1,0.4-0.1,0.5c0,0.2-0.1,0.3-0.1,0.5
	c0,0.1,0,0.3-0.1,0.4c0,0.1,0,0.1,0,0.2c0,0,0,0.1,0,0.1c0,0.2,0,0.2,0,0.2s0-0.1,0-0.2c0,0,0-0.1,0-0.1c0-0.1,0-0.1,0-0.2
	c0-0.1,0-0.2-0.1-0.4c0-0.1,0-0.3,0-0.5c0-0.2,0-0.4,0-0.6c0-0.4,0-0.9,0-1.4c0-0.3,0-0.5,0.1-0.8c0-0.1,0-0.3,0-0.4
	c0-0.1,0-0.3,0.1-0.4c0-0.1,0-0.1,0-0.2c0-0.1,0-0.1,0-0.2c0-0.1,0.1-0.3,0.1-0.4c0.1-0.3,0.1-0.6,0.2-0.9c0-0.2,0.1-0.3,0.1-0.5
	c0-0.2,0.1-0.3,0.1-0.5c0.1-0.2,0.1-0.3,0.2-0.5c0-0.1,0.1-0.2,0.1-0.2c0-0.1,0.1-0.2,0.1-0.2c0.1-0.3,0.3-0.6,0.4-0.9
	c0.1-0.2,0.2-0.3,0.2-0.5c0-0.1,0.1-0.2,0.1-0.2l0.1-0.2c0.2-0.3,0.3-0.6,0.5-0.9c0.2-0.3,0.4-0.6,0.6-0.8c0.4-0.5,0.8-1.1,1.2-1.5
	c0.2-0.2,0.4-0.5,0.6-0.7c0.1-0.1,0.2-0.2,0.3-0.3c0.1-0.1,0.1-0.1,0.2-0.2c0.1,0,0.1-0.1,0.2-0.1c0.1-0.1,0.2-0.2,0.3-0.3
	c0.1-0.1,0.2-0.2,0.3-0.3c0.2-0.2,0.4-0.3,0.6-0.5c0.1-0.1,0.2-0.1,0.3-0.2c0.1-0.1,0.2-0.1,0.3-0.2c0.2-0.1,0.4-0.2,0.6-0.3
	c0.4-0.2,0.7-0.4,0.9-0.5C69,49.4,69.2,49.3,69.4,49.2z M68.2,47.4c0.2-0.1,0.2-0.1,0.2-0.1S68.4,47.3,68.2,47.4
	c-0.1,0.2-0.3,0.3-0.5,0.6c-0.1,0.1-0.3,0.2-0.4,0.4c-0.1,0.1-0.3,0.3-0.5,0.4c-0.2,0.2-0.3,0.3-0.5,0.5c-0.2,0.2-0.4,0.4-0.5,0.5
	c-0.2,0.2-0.4,0.4-0.6,0.6c-0.1,0.1-0.2,0.2-0.3,0.3c-0.1,0.1-0.2,0.2-0.3,0.3c-0.1,0.1-0.1,0.1-0.2,0.2c0,0.1-0.1,0.1-0.1,0.2
	c-0.1,0.1-0.2,0.2-0.3,0.4c-0.2,0.3-0.4,0.5-0.6,0.8c-0.2,0.3-0.4,0.5-0.6,0.8c-0.1,0.1-0.2,0.3-0.3,0.4c-0.1,0.1-0.2,0.3-0.3,0.4
	c-0.2,0.3-0.4,0.6-0.6,0.9c-0.2,0.3-0.4,0.6-0.5,0.9c-0.3,0.6-0.7,1.2-0.9,1.9c0,0.1-0.1,0.2-0.1,0.2c0,0.1-0.1,0.2-0.1,0.2
	c-0.1,0.2-0.1,0.3-0.2,0.5c-0.1,0.3-0.2,0.6-0.4,0.9c-0.1,0.3-0.2,0.6-0.3,0.9c0,0.2-0.1,0.3-0.1,0.5c0,0.1-0.1,0.3-0.1,0.4
	c0,0.1-0.1,0.3-0.1,0.4c0,0.1-0.1,0.3-0.1,0.4c0,0.1-0.1,0.3-0.1,0.4c0,0.1-0.1,0.3-0.1,0.4c-0.1,0.5-0.2,1-0.3,1.4
	c0,0.2-0.1,0.4-0.1,0.6c0,0.2-0.1,0.4-0.1,0.5c-0.1,0.6-0.2,1-0.2,1s0-0.1,0-0.3c0,0,0-0.1,0-0.1c0-0.1,0-0.1,0-0.2
	c0-0.1,0-0.3-0.1-0.4c0-0.2,0-0.3,0-0.5c0-0.2,0-0.4,0-0.6c0-0.4,0-1,0-1.5c0-0.3,0-0.6,0.1-0.9c0-0.1,0-0.3,0.1-0.5
	c0-0.2,0-0.3,0.1-0.5c0-0.1,0-0.2,0-0.2c0-0.1,0-0.2,0-0.2c0-0.2,0.1-0.3,0.1-0.5c0.1-0.3,0.2-0.7,0.2-1c0-0.1,0-0.2,0.1-0.3
	c0-0.1,0-0.2,0.1-0.3c0.1-0.2,0.1-0.3,0.2-0.5c0.1-0.2,0.1-0.3,0.2-0.5c0-0.1,0.1-0.2,0.1-0.3c0-0.1,0.1-0.2,0.1-0.3
	c0.1-0.2,0.1-0.3,0.2-0.5c0.1-0.2,0.2-0.3,0.2-0.5c0.1-0.2,0.2-0.3,0.2-0.5c0-0.1,0.1-0.2,0.1-0.3l0.1-0.2c0.2-0.3,0.4-0.6,0.6-1
	c0.2-0.3,0.4-0.6,0.6-0.9c0.4-0.6,0.9-1.2,1.3-1.7c0.2-0.3,0.5-0.5,0.7-0.8c0.1-0.1,0.2-0.2,0.4-0.3c0.1-0.1,0.1-0.1,0.2-0.2
	c0.1-0.1,0.1-0.1,0.2-0.2c0.1-0.1,0.2-0.2,0.4-0.3c0.1-0.1,0.2-0.2,0.4-0.3c0.2-0.2,0.5-0.4,0.7-0.5c0.1-0.1,0.2-0.2,0.3-0.2
	c0.1-0.1,0.2-0.2,0.3-0.2c0.2-0.1,0.4-0.3,0.6-0.4c0.2-0.1,0.4-0.2,0.5-0.3c0.2-0.1,0.3-0.2,0.5-0.2C67.8,47.5,68.1,47.4,68.2,47.4z
	 M55.6,61.8c0-0.2,0-0.3,0.1-0.5c0-0.2,0.1-0.3,0.1-0.5c0-0.1,0-0.2,0-0.3c0-0.1,0-0.2,0.1-0.3c0-0.2,0.1-0.4,0.1-0.5
	c0.1-0.4,0.2-0.7,0.3-1.1c0-0.1,0.1-0.2,0.1-0.3c0-0.1,0.1-0.2,0.1-0.3c0.1-0.2,0.1-0.4,0.2-0.6c0.1-0.2,0.1-0.4,0.2-0.6
	c0-0.1,0.1-0.2,0.1-0.3c0-0.1,0.1-0.2,0.1-0.3c0.1-0.2,0.2-0.4,0.2-0.6c0.1-0.2,0.2-0.4,0.3-0.6c0.1-0.2,0.2-0.4,0.3-0.5
	c0-0.1,0.1-0.2,0.1-0.3l0.1-0.3c0.2-0.4,0.4-0.7,0.6-1.1c0.2-0.3,0.4-0.7,0.7-1c0.5-0.7,1-1.3,1.5-1.8c0.3-0.3,0.5-0.6,0.8-0.8
	c0.1-0.1,0.3-0.3,0.4-0.4c0.1-0.1,0.1-0.1,0.2-0.2c0.1-0.1,0.1-0.1,0.2-0.2c0.1-0.1,0.3-0.2,0.4-0.3c0.1-0.1,0.3-0.2,0.4-0.3
	c0.3-0.2,0.5-0.4,0.7-0.6c0.1-0.1,0.2-0.2,0.4-0.3c0.1-0.1,0.2-0.2,0.3-0.2c0.2-0.2,0.5-0.3,0.7-0.4c0.2-0.1,0.4-0.2,0.6-0.3
	c0.2-0.1,0.4-0.2,0.5-0.3c0.3-0.2,0.6-0.3,0.7-0.4c0.2-0.1,0.3-0.1,0.3-0.1s-0.1,0.1-0.2,0.2c-0.1,0.1-0.4,0.3-0.6,0.5
	c-0.1,0.1-0.3,0.2-0.4,0.4c-0.2,0.1-0.3,0.3-0.5,0.5c-0.2,0.2-0.4,0.3-0.6,0.5c-0.2,0.2-0.4,0.4-0.6,0.6c-0.2,0.2-0.4,0.4-0.6,0.7
	c-0.1,0.1-0.2,0.2-0.3,0.4c-0.1,0.1-0.2,0.2-0.3,0.4c-0.1,0.1-0.1,0.1-0.2,0.2c-0.1,0.1-0.1,0.1-0.2,0.2c-0.1,0.1-0.2,0.3-0.3,0.4
	c-0.2,0.3-0.4,0.5-0.7,0.8c-0.2,0.3-0.4,0.6-0.7,0.9c-0.1,0.2-0.2,0.3-0.3,0.5c-0.1,0.2-0.2,0.3-0.3,0.5c-0.2,0.3-0.4,0.6-0.6,1
	c-0.2,0.3-0.4,0.7-0.6,1c-0.4,0.7-0.7,1.4-1,2.1c0,0.1-0.1,0.2-0.1,0.3c0,0.1-0.1,0.2-0.1,0.3C58,57.7,58,57.8,57.9,58
	c-0.1,0.3-0.3,0.7-0.4,1c-0.1,0.3-0.2,0.7-0.3,1c-0.1,0.2-0.1,0.3-0.2,0.5c-0.1,0.2-0.1,0.3-0.1,0.5c0,0.2-0.1,0.3-0.1,0.5
	c0,0.2-0.1,0.3-0.1,0.5c0,0.2-0.1,0.3-0.1,0.5c0,0.1-0.1,0.3-0.1,0.4c-0.1,0.6-0.2,1.1-0.3,1.6c0,0.2-0.1,0.5-0.1,0.7
	c0,0.2-0.1,0.4-0.1,0.6c0,0.2,0,0.3-0.1,0.5c0,0.1,0,0.1,0,0.2c0,0.1,0,0.1,0,0.2c0,0.2,0,0.3,0,0.3s0-0.1,0-0.3c0,0,0-0.1,0-0.2
	c0-0.1,0-0.1,0-0.2c0-0.1,0-0.3-0.1-0.5c0-0.2,0-0.4,0-0.6c0-0.2,0-0.4,0-0.7c0-0.5,0-1,0-1.7C55.6,62.4,55.6,62.1,55.6,61.8z"/>
<path d="M79.2,66.3c0-0.6,0.4-1,1-1c0.6,0,1,0.4,1,1c0,0.1,0,0.1,0,0.2c0.1,0,0.1,0,0.2,0c2.4,0,4.8,0.1,7.1,0.2c0-0.1,0-0.2,0-0.4
	c0-4.6-3.7-8.3-8.3-8.3c-4.6,0-8.3,3.7-8.3,8.3c0,0.2,0,0.3,0,0.5c2.4-0.1,4.8-0.2,7.2-0.3C79.2,66.5,79.2,66.4,79.2,66.3z"/>
<path d="M36.7,59.3c-0.1,0.7,13.5,4,13.5,4c0.7,0.1,1.5-0.3,1.6-1.1c0.1-0.7-0.3-1.5-1.1-1.6C50.7,60.6,36.9,58.6,36.7,59.3z"/>
<path d="M37.5,47.4c-0.3,0.7,14.7,8.1,14.7,8.1c0.7,0.3,1.5,0,1.8-0.7c0.3-0.7,0-1.5-0.7-1.8C53.3,53,37.8,46.7,37.5,47.4z"/>
<path d="M40.1,33.2c-0.5,0.6,15.8,15.1,15.8,15.1c0.6,0.5,1.4,0.4,1.9-0.2c0.5-0.6,0.4-1.4-0.2-1.9C57.7,46.2,40.6,32.6,40.1,33.2z"
	/>
<path d="M49.6,20.2c-0.6,0.4,13,21.3,13,21.3c0.4,0.6,1.3,0.8,1.9,0.4c0.6-0.4,0.8-1.3,0.4-1.9C64.8,40,50.2,19.8,49.6,20.2z"/>
<path d="M61.3,9.3c-0.7,0.3,9.2,28.2,9.2,28.2c0.3,0.7,1.1,1.1,1.8,0.8c0.7-0.3,1.1-1.1,0.8-1.8C73.1,36.5,62.1,9,61.3,9.3z"/>
<path d="M109.7,60.6c-0.7,0.1-1.2,0.9-1.1,1.6c0.1,0.7,0.9,1.2,1.6,1.1c0,0,13.6-3.3,13.5-4C123.5,58.6,109.7,60.6,109.7,60.6z"/>
<path d="M107.1,53c-0.7,0.3-1,1.1-0.7,1.8c0.3,0.7,1.1,1,1.8,0.7c0,0,15-7.4,14.7-8.1C122.6,46.7,107.1,53,107.1,53z"/>
<path d="M102.7,46.2c-0.6,0.5-0.7,1.4-0.2,1.9c0.5,0.6,1.4,0.7,1.9,0.2c0,0,16.3-14.6,15.8-15.1C119.8,32.6,102.7,46.2,102.7,46.2z"
	/>
<path d="M95.6,40c-0.4,0.6-0.3,1.5,0.4,1.9c0.6,0.4,1.5,0.3,1.9-0.4c0,0,13.6-20.9,13-21.3C110.2,19.8,95.6,40,95.6,40z"/>
<path d="M87.3,36.5c-0.3,0.7,0.1,1.5,0.8,1.8c0.7,0.3,1.5-0.1,1.8-0.8c0,0,9.9-27.9,9.2-28.2C98.3,9,87.3,36.5,87.3,36.5z"/>
<path d="M78.9,35.7c0,0.8,0.6,1.4,1.4,1.4c0.8,0,1.4-0.6,1.4-1.4c0,0-0.6-35.7-1.4-35.7C79.6,0,78.9,35.7,78.9,35.7z"/>
<path d="M53.6,89.9c-0.5,0.5-1.1,0.9-1.7,1.3c-0.6,0.4-1.3,0.7-2,1c-0.7,0.3-1.5,0.5-2.4,0.6c-1.4,0.2-2.6,0.2-3.7-0.1
	s-2.1-0.8-3-1.5c-0.8-0.7-1.5-1.6-2-2.7c-0.5-1.1-0.7-2.3-0.7-3.7c0-1.4,0.2-2.7,0.7-4c0.5-1.3,1.1-2.5,2-3.6c0.8-1.1,1.8-2,3-2.7
	c1.2-0.7,2.4-1.2,3.9-1.5C48.5,73,49.3,73,50,73c0.7,0,1.3,0.1,1.9,0.3c0.6,0.2,1.1,0.4,1.6,0.7s1,0.6,1.4,1
	c-0.8,1.1-1.3,1.6-2.1,2.7c-0.7-0.6-1.5-1.1-2.4-1.4c-0.8-0.3-1.8-0.4-2.8-0.2c-0.9,0.1-1.7,0.5-2.4,1c-0.7,0.5-1.4,1.1-1.9,1.8
	c-0.5,0.7-1,1.5-1.3,2.4c-0.3,0.9-0.4,1.8-0.4,2.7c0,0.9,0.1,1.8,0.4,2.6c0.3,0.8,0.7,1.4,1.3,1.9c0.5,0.5,1.2,0.9,1.9,1.1
	c0.7,0.2,1.6,0.2,2.4,0.1c1.1-0.2,2.1-0.6,2.9-1.2c0.8-0.6,1.6-1.3,2.4-2.2c0.8,0.7,1.3,1.1,2.1,1.9C54.6,88.9,54.1,89.5,53.6,89.9z
	"/>
<path d="M78,84c-0.5,1.2-1.2,2.2-2,3.1c-0.9,0.9-1.9,1.6-3.1,2.2c-1.2,0.6-2.5,0.9-4,1c-1.4,0.1-2.8-0.1-3.9-0.5
	c-1.2-0.4-2.2-1-3.1-1.8c-0.9-0.8-1.5-1.8-2-2.9c-0.5-1.1-0.7-2.4-0.7-3.7s0.2-2.6,0.7-3.8c0.5-1.2,1.2-2.3,2-3.3
	c0.9-1,1.9-1.8,3.1-2.4c1.2-0.6,2.5-0.9,3.9-1c1.4-0.1,2.8,0.1,4,0.6c1.2,0.5,2.2,1.1,3.1,2c0.9,0.9,1.5,1.9,2,3
	c0.5,1.2,0.7,2.4,0.7,3.7C78.7,81.5,78.4,82.8,78,84z M74.8,77.8c-0.3-0.8-0.7-1.5-1.3-2.1c-0.6-0.6-1.2-1-2-1.4
	c-0.8-0.3-1.6-0.5-2.6-0.4c-0.9,0.1-1.8,0.3-2.5,0.7c-0.8,0.4-1.4,0.9-2,1.6c-0.6,0.6-1,1.4-1.3,2.2c-0.3,0.8-0.5,1.7-0.5,2.6
	c0,0.9,0.2,1.8,0.5,2.6c0.3,0.8,0.7,1.5,1.3,2c0.6,0.6,1.2,1,2,1.3c0.8,0.3,1.6,0.4,2.6,0.4c0.9-0.1,1.8-0.3,2.5-0.7
	c0.8-0.4,1.4-0.9,2-1.5c0.6-0.6,1-1.3,1.3-2.2c0.3-0.8,0.5-1.7,0.5-2.6S75.1,78.6,74.8,77.8z"/>
<path d="M102.6,85.2c-0.5,1.1-1.2,2-2,2.8c-0.9,0.8-1.9,1.4-3.1,1.8c-1.2,0.4-2.5,0.6-3.9,0.5c-1.4-0.1-2.8-0.4-3.9-1
	c-1.2-0.6-2.2-1.3-3.1-2.2c-0.9-0.9-1.5-1.9-2-3.1c-0.5-1.2-0.7-2.4-0.7-3.7c0-1.3,0.2-2.5,0.7-3.7c0.5-1.2,1.2-2.2,2-3
	c0.9-0.8,1.9-1.5,3.1-1.9c1.2-0.4,2.5-0.6,3.9-0.5c1.4,0.1,2.8,0.5,3.9,1.1c1.2,0.6,2.2,1.4,3.1,2.4c0.9,1,1.5,2,2,3.2
	c0.5,1.2,0.7,2.5,0.7,3.7C103.4,82.9,103.1,84.1,102.6,85.2z M99.5,78.7c-0.3-0.8-0.7-1.6-1.3-2.2c-0.6-0.6-1.2-1.2-2-1.6
	c-0.8-0.4-1.6-0.7-2.6-0.7c-0.9-0.1-1.8,0-2.5,0.3c-0.8,0.3-1.4,0.7-2,1.3c-0.6,0.6-1,1.2-1.3,2c-0.3,0.8-0.5,1.6-0.5,2.5
	s0.2,1.8,0.5,2.6c0.3,0.8,0.7,1.5,1.3,2.2c0.6,0.6,1.2,1.1,2,1.5c0.8,0.4,1.6,0.6,2.6,0.7c0.9,0.1,1.8,0,2.5-0.3
	c0.8-0.3,1.4-0.7,2-1.2c0.6-0.5,1-1.2,1.3-1.9c0.3-0.8,0.5-1.6,0.5-2.5C99.9,80.4,99.8,79.5,99.5,78.7z"/>
<path d="M109.3,73.4c1.3,0.2,1.9,0.3,3.2,0.5c0,6.1,0,9.2,0,15.3c3.9,0.6,5.8,1,9.7,1.9c0,1.1,0,1.7,0,2.9
	c-5.1-1.1-7.7-1.6-12.9-2.3C109.3,84.3,109.3,80.6,109.3,73.4z"/>
<path d="M64.1,128.6c0,1.4-0.7,2.7-2.1,3.7c-1.4,1.1-2.9,1.6-4.5,1.6c-0.6,0-1.2-0.1-1.6-0.4c-0.4-0.3-0.6-0.7-0.6-1.2
	c0-0.3,0.1-0.7,0.3-1c0.1-0.2,0.2-0.3,0.3-0.3c0.1,0,0.2,0.1,0.2,0.3c0,0.1,0,0.1,0,0.2c0,0.1,0,0.2,0,0.2c0,0.7,0.5,1,1.5,1
	c0.9,0,2.1-0.5,3.6-1.5c1.5-1,2.2-1.9,2.2-2.8c0-0.7-0.7-1.1-2-1.1c-0.3,0-0.8,0-1.3,0.1c-1.8,0.2-3.8,0.9-6,2.2
	c-2.1,1.2-3.7,2.5-5,3.9c-1.6,1.8-2.4,3.5-2.4,5c0,2.1,1.2,3.1,3.5,3.1c3.9,0,7.5-1.3,10.8-3.9c0.1-0.1,0.1-0.1,0.2-0.1
	c0.1,0,0.2,0.1,0.2,0.2c0,0.2-0.1,0.3-0.2,0.4c-1.4,1.3-3.1,2.3-5.1,3.2c-2.1,0.9-4,1.4-5.8,1.4c-1.6,0-2.8-0.3-3.7-0.8
	c-1.1-0.7-1.7-1.7-1.7-3.1c0-1.5,0.6-3.2,1.9-5c1.6-2.3,3.6-4,5.7-5.3c2.8-1.6,5.5-2.5,8-2.5c1.1,0,2,0.2,2.7,0.6
	S64.1,127.9,64.1,128.6z"/>
<path d="M73.9,126.5c0,1.4-1.2,3.4-3.5,6.2c-2.1,2.5-3.9,4.5-5.7,6c-0.1,0.2-0.1,0.4-0.1,0.6c0,0.6,0.1,1.1,0.4,1.5
	c0.3,0.4,0.7,0.6,1.1,0.6c0.5,0,1.2-0.2,2-0.7c1-0.6,1.9-1.5,2.7-2.6c0.1-0.2,0.2-0.2,0.3,0c0,0.2,0,0.4-0.1,0.5
	c-1.9,2.4-3.7,3.7-5.4,3.7c-0.8,0-1.4-0.3-1.8-0.9c-0.4-0.5-0.6-1.2-0.6-2c0-1.3,0.4-2.9,1.2-4.6c0.8-1.7,1.8-3.4,3-5.1
	c1.5-2.1,2.9-3.5,4.1-4.1c0.4-0.2,0.8-0.3,1.2-0.3C73.5,125.3,73.9,125.7,73.9,126.5z M72.5,126.8c0-0.4-0.1-0.6-0.3-0.6
	c-0.4,0-1,0.5-1.8,1.4c-1.1,1.5-2.2,3.1-3.2,4.9c-1.1,1.9-1.8,3.6-2.2,5c1.3-1,2.6-2.5,3.9-4.3c0.7-1,1.4-2,2.1-3.2
	C72,128.4,72.5,127.3,72.5,126.8z"/>
<path d="M80.2,138.5c-1.2,1.6-2.1,2.5-2.7,2.9c-0.3,0.2-0.7,0.2-1.1,0.2c-1.3,0-1.9-0.7-1.9-2.1c0-0.3,0-0.5,0-0.8
	c-1.2,2-2.3,3-3.3,3c-0.7,0-1-0.4-1-1.2c0-1,0.4-2.1,1.3-3.3c1.3-1.8,2.5-2.7,3.8-2.7c1,0,1.7,0.2,2,0.7c0.1,0.1,0.1,0.1,0.1,0.2
	c0,0-0.1,0.1-0.2,0.1c-0.2,0.1-0.2,0.1-0.3,0.2c-0.2,0.3-0.3,0.7-0.5,1.5c-0.2,0.8-0.2,1.5-0.2,2.2c0,1.1,0.2,1.6,0.7,1.6
	c0.4,0,1-0.5,1.8-1.4c0.3-0.4,0.7-0.9,1.1-1.4c0.1-0.1,0.1-0.1,0.1-0.1c0.1,0,0.1,0,0.2,0.1C80.2,138.3,80.2,138.4,80.2,138.5z
	 M75.5,135.7c-0.2,0-0.4,0-0.6,0.1c-0.6,0.2-1.1,0.7-1.6,1.2c-0.9,1-1.4,1.8-1.6,2.4c-0.2,0.8-0.2,1.2,0.1,1.2
	c0.4,0.1,1-0.3,1.6-1.1C74.1,138.7,74.8,137.4,75.5,135.7z"/>
<path d="M88.1,138.5c-0.8,1.2-1.9,1.9-3.3,2.1c-0.1,0.5-0.4,0.9-0.9,1.2c-0.5,0.3-1.1,0.5-1.9,0.5c-0.9,0-1.7-0.3-2.5-1
	c-0.9-0.7-1.3-1.5-1.3-2.3c0-0.5,0.2-0.8,0.5-0.8c0.3,0,0.5,0.2,0.8,0.5c0.4-0.4,0.9-1.1,1.5-2.1c0.6-1.1,1.2-1.9,1.5-2.3
	c0.7-0.8,1.4-1.2,2.1-1.2c0.9,0,1.3,0.3,1.3,0.9c0,0.1-0.1,0.2-0.2,0.2c-0.2,0.1-0.3,0.1-0.5,0.1c-0.6-0.1-1,0-1.3,0.3
	c-0.3,0.3-0.5,0.6-0.4,1.1c0,0.3,0.2,0.7,0.5,1.2c0.4,0.6,0.6,1,0.7,1.1c0.2,0.7,0.4,1.3,0.4,1.9c1.2-0.2,2.1-0.7,2.9-1.7
	c0.1-0.1,0.2-0.2,0.2-0.2c0.1,0,0.1,0,0.1,0.1C88.1,138.3,88.1,138.4,88.1,138.5z M82.9,140.6c-1.5,0-2.7-0.2-3.4-0.6
	c-0.1-0.1-0.2-0.1-0.2-0.1c0,0,0,0.1,0,0.2c0.5,1,1.2,1.5,2.1,1.5C82.1,141.5,82.7,141.2,82.9,140.6z M83.1,140v-0.3
	c0-0.4-0.2-1.2-0.5-2.3c-0.2-0.8-0.3-1.5-0.2-2c-1,1.6-1.9,2.8-2.7,3.6C80.9,139.6,82,139.9,83.1,140z"/>
<path d="M96,138.5c-0.8,1.2-1.9,1.9-3.3,2.1c-0.1,0.5-0.4,0.9-0.9,1.2c-0.5,0.3-1.1,0.5-1.9,0.5c-0.9,0-1.7-0.3-2.5-1
	c-0.9-0.7-1.3-1.5-1.3-2.3c0-0.5,0.2-0.8,0.5-0.8c0.3,0,0.5,0.2,0.8,0.5c0.4-0.4,0.9-1.1,1.5-2.1c0.6-1.1,1.2-1.9,1.5-2.3
	c0.7-0.8,1.4-1.2,2.1-1.2c0.9,0,1.3,0.3,1.3,0.9c0,0.1-0.1,0.2-0.2,0.2c-0.2,0.1-0.3,0.1-0.5,0.1c-0.6-0.1-1,0-1.3,0.3
	c-0.3,0.3-0.5,0.6-0.4,1.1c0,0.3,0.2,0.7,0.5,1.2c0.4,0.6,0.6,1,0.7,1.1c0.2,0.7,0.4,1.3,0.4,1.9c1.2-0.2,2.1-0.7,2.9-1.7
	c0.1-0.1,0.2-0.2,0.2-0.2c0.1,0,0.1,0,0.1,0.1C96,138.3,96,138.4,96,138.5z M90.8,140.6c-1.5,0-2.7-0.2-3.4-0.6
	c-0.1-0.1-0.2-0.1-0.2-0.1c0,0,0,0.1,0,0.2c0.5,1,1.2,1.5,2.1,1.5C90,141.5,90.6,141.2,90.8,140.6z M91,140v-0.3
	c0-0.4-0.2-1.2-0.5-2.3c-0.2-0.8-0.3-1.5-0.2-2c-1,1.6-1.9,2.8-2.7,3.6C88.8,139.6,89.9,139.9,91,140z"/>
<path d="M101.8,138.3c0,0.2,0,0.3-0.1,0.4c-1,1.3-1.8,2.1-2.4,2.6c-0.7,0.6-1.5,0.8-2.2,0.8c-1.2-0.1-1.7-0.6-1.7-1.7
	c0-0.8,0.2-1.6,0.6-2.4c0.4-0.9,0.8-1.6,1.1-2c0.1-0.1,0.2-0.2,0.3-0.2c0.2,0,0.5,0,0.7,0.1c0.3,0.1,0.5,0.3,0.5,0.5
	c0,0.1,0,0.2-0.1,0.3c-1.1,1.7-1.7,2.9-1.7,3.7c0,0.7,0.2,1,0.7,1c1.2,0,2.6-1.1,4.1-3.3c0-0.1,0.1-0.1,0.1-0.1
	C101.8,138.1,101.8,138.2,101.8,138.3z M100,133.3c0,0.3-0.1,0.5-0.3,0.7c-0.2,0.2-0.5,0.3-0.8,0.3c-0.6,0-0.8-0.2-0.8-0.7
	c0-0.3,0.1-0.5,0.3-0.7c0.2-0.2,0.5-0.3,0.8-0.3C99.8,132.6,100,132.8,100,133.3z"/>
<path d="M108.3,138.2c0.2,0,0.1,0.1-0.1,0.4c-0.8,1.1-1.7,2-2.6,2.6c-0.7,0.4-1.5,0.7-2.4,0.7c-1.6,0-2.3-0.7-2.3-2.1
	c0-1.1,0.6-2.3,1.9-3.7c0.8-0.9,1.8-1.2,2.8-1.1c0.6,0.1,0.9,0.3,0.9,0.7c0,0.2-0.1,0.5-0.4,1c-0.3,0.4-0.5,0.7-0.7,0.7
	c-0.1,0-0.1,0-0.1-0.1c0-0.1,0-0.2,0.1-0.4c0.1-0.2,0.1-0.3,0.1-0.4c0-0.4-0.2-0.6-0.5-0.6c-0.3,0-0.7,0.1-1.1,0.4
	c-0.3,0.2-0.6,0.5-0.8,0.8c-0.6,0.9-0.9,1.7-0.9,2.4c0,1.2,0.4,1.7,1.3,1.7c1.3,0,2.7-0.9,4.1-2.6
	C108,138.3,108.1,138.2,108.3,138.2z"/>
<path d="M116.2,138.5c-0.8,1.2-1.9,1.9-3.3,2.1c-0.1,0.5-0.4,0.9-0.9,1.2c-0.5,0.3-1.1,0.5-1.9,0.5c-0.9,0-1.7-0.3-2.5-1
	c-0.9-0.7-1.3-1.5-1.3-2.3c0-0.5,0.2-0.8,0.5-0.8c0.3,0,0.5,0.2,0.8,0.5c0.4-0.4,0.9-1.1,1.5-2.1c0.6-1.1,1.2-1.9,1.5-2.3
	c0.7-0.8,1.4-1.2,2.1-1.2c0.9,0,1.3,0.3,1.3,0.9c0,0.1-0.1,0.2-0.2,0.2c-0.2,0.1-0.3,0.1-0.5,0.1c-0.6-0.1-1,0-1.3,0.3
	c-0.3,0.3-0.5,0.6-0.4,1.1c0,0.3,0.2,0.7,0.5,1.2c0.4,0.6,0.6,1,0.7,1.1c0.2,0.7,0.4,1.3,0.4,1.9c1.2-0.2,2.1-0.7,2.9-1.7
	c0.1-0.1,0.2-0.2,0.2-0.2c0.1,0,0.1,0,0.1,0.1C116.3,138.3,116.2,138.4,116.2,138.5z M111.1,140.6c-1.5,0-2.7-0.2-3.4-0.6
	c-0.1-0.1-0.2-0.1-0.2-0.1c0,0,0,0.1,0,0.2c0.5,1,1.2,1.5,2.1,1.5C110.3,141.5,110.8,141.2,111.1,140.6z M111.2,140v-0.3
	c0-0.4-0.2-1.2-0.5-2.3c-0.2-0.8-0.3-1.5-0.2-2c-1,1.6-1.9,2.8-2.7,3.6C109,139.6,110.1,139.9,111.2,140z"/>
<path d="M19.5,106.1c-0.8,1.3-1.5,2.6-2.3,3.9c-1.1-0.5-2.2-0.8-3.2-0.9c-1-0.1-2.1-0.1-3.1,0.3c-1,0.3-1.8,0.8-2.3,1.3
	c-0.5,0.6-0.8,1.2-0.8,1.8c0,0,0,0,0,0.1c0,0.4,0.1,0.7,0.2,1c0.2,0.2,0.4,0.4,0.8,0.5c0.1,0,0.3,0.1,0.5,0.1c0,0,0,0,0-0.1
	c0,0,0,0,0-0.1c0-0.6,0.3-1.2,0.8-1.7c0.5-0.6,1.3-1,2.3-1.3c1-0.3,2-0.4,3.1-0.3c1,0.1,2.1,0.4,3.1,0.9c0.9-1.6,1.8-3.2,2.7-4.7
	C20.7,106.5,20.1,106.3,19.5,106.1z"/>
<path d="M7.3,119.7c-0.9-0.1-1.7-0.2-2.4-0.5c0.4,0.6,0.8,1,1.5,1.3c0.7,0.3,1.5,0.5,2.5,0.6c1,0.1,2.1,0.1,3.3,0c1,0,1.8,0,2.4,0
	c0.4,0,0.7,0.1,1,0.1c0-0.3-0.1-0.5-0.2-0.7c-0.1-0.2-0.4-0.4-0.7-0.6c-0.4-0.1-0.9-0.2-1.5-0.3c-0.6-0.1-1.5-0.1-2.5,0
	C9.4,119.8,8.3,119.8,7.3,119.7z"/>
<path d="M21.6,118.3c-0.3-0.6-0.7-1.1-1.3-1.5c0,0,0,0,0,0c0.3,0.7,0.5,1.6,0.5,2.7c0,0,0,0,0,0.1c0,1.2-0.2,2.4-0.7,3.4
	c-0.4,1.1-1.1,2-1.8,2.9c-0.8,0.9-1.7,1.6-2.8,2.2c-1.1,0.6-2.3,1.2-3.6,1.5c-1.8,0.5-3.7,0.8-5.4,0.7c-1,0-2-0.2-2.9-0.5
	c-0.1,0.1-0.1,0.2-0.2,0.3c1.4,0.8,3,1.3,4.7,1.4c1.7,0.1,3.5-0.1,5.3-0.7c1.3-0.4,2.5-0.9,3.5-1.5c1.1-0.6,2-1.4,2.7-2.2
	c0.8-0.8,1.4-1.8,1.8-2.8c0.4-1,0.6-2.2,0.6-3.4c0,0,0,0,0-0.1C22.1,119.8,21.9,119,21.6,118.3z"/>
<path d="M30.5,102c0,4,0,8,0,11.9c0,2,0.5,3.4,1.4,4.3c0,0,0.1,0.1,0.1,0.1c-0.3-0.8-0.5-1.7-0.5-2.9c0-4.6,0-9.1,0-13.7
	C31.2,101.8,30.9,101.9,30.5,102z"/>
<path d="M46.7,99.1c0,4,0,8,0,12c0,1.9-0.3,3.6-0.8,5c-0.5,1.5-1.2,2.7-2.2,3.8c-0.9,1.1-2.1,1.9-3.4,2.6c-1.3,0.7-2.8,1.2-4.5,1.5
	c-3.3,0.6-5.9,0.3-7.8-1.2c-0.1-0.1-0.2-0.2-0.3-0.3c0.4,0.6,0.9,1.2,1.4,1.6c1.9,1.4,4.4,1.7,7.7,1.1c1.6-0.3,3.1-0.8,4.4-1.4
	c1.3-0.7,2.4-1.5,3.4-2.6c0.9-1.1,1.6-2.3,2.1-3.7c0.5-1.4,0.7-3.1,0.7-4.9c0-4.5,0-9.1,0-13.6C47.1,99,46.9,99.1,46.7,99.1z"/>
<path d="M71.8,103.9c-2.3,3.6-4.7,7.2-7,10.9c0,0-0.1,0-0.1,0c-2.3-3.3-4.6-6.6-7-9.9c0,5.3,0,10.7,0,16c-1.6,0.2-3.2,0.3-4.8,0.5
	c0,0.5,0,0.9,0,1.4c1.8-0.2,3.5-0.4,5.3-0.6c0-5.2,0-10.5,0-15.7c2.3,3.2,4.5,6.4,6.8,9.7c0,0,0.1,0,0.1,0c2.2-3.5,4.5-7,6.7-10.4
	C71.8,105.2,71.8,104.5,71.8,103.9z"/>
<path d="M77,97.1c0,7.6,0,15.2,0,22.8c-1.7,0-3.4,0.1-5,0.1c0,0.5,0,0.9,0,1.4c1.7-0.1,3.4-0.1,5.1-0.1
	C77.1,113.2,77.1,105.1,77,97.1C77,97.1,77,97.1,77,97.1z"/>
<path d="M83.4,119.8c0-7.6,0-15.2,0-22.8c0,0,0,0-0.1,0c0,8.1,0,16.1,0,24.2c1.7,0,3.5,0.1,5.2,0.1c0-0.5,0-0.9,0-1.4
	C86.8,119.9,85.1,119.9,83.4,119.8z"/>
<path d="M102.8,120.9c0-5.4,0-10.8,0-16.1c-2.3,3.3-4.7,6.6-7,10c0,0-0.1,0-0.1,0c-2.3-3.6-4.6-7.2-7-10.8c0,0.7,0,1.3,0,2
	c2.2,3.4,4.4,6.8,6.6,10.3c0,0,0.1,0,0.1,0c2.3-3.3,4.6-6.6,6.9-9.8c0,5.3,0,10.5,0,15.8c1.8,0.2,3.5,0.4,5.3,0.6c0-0.5,0-0.9,0-1.4
	C106,121.2,104.4,121,102.8,120.9z"/>
<path d="M131.7,105.2c-4-0.9-8.1-1.6-12.1-2.3c0,0.6,0,1.3,0,1.9c4,0.7,8.1,1.5,12.1,2.4C131.7,106.4,131.7,105.8,131.7,105.2z"/>
<path d="M130.2,114.7c-3.5-0.7-7-1.4-10.6-2c0,0.6,0,1.1,0,1.7c3.5,0.6,7.1,1.3,10.6,2C130.2,115.8,130.2,115.2,130.2,114.7z"/>
<path d="M114.2,121.9c0-7.6,0-15.1,0-22.7c-0.2,0-0.5-0.1-0.7-0.1c0,8.1,0,16.1,0,24.2c6.2,0.9,12.3,2,18.4,3.3c0-0.5,0-1,0-1.5
	C126,123.8,120.1,122.7,114.2,121.9z"/>
<path d="M155.4,121.2c-0.7,0.4-1.6,0.6-2.5,0.7c0.2,0.3,0.3,0.6,0.5,0.9c0.6-0.3,1.2-0.6,1.6-1.1
	C155.2,121.5,155.3,121.3,155.4,121.2z"/>
<path d="M151,116.8c0.2-0.1,0.4-0.1,0.6-0.2c0.7-0.4,1.1-1.2,1.1-2.2c0,0,0,0,0-0.1c0-1.2-0.4-2.2-1.1-3c-0.7-0.8-1.8-1.4-3.1-1.8
	c-1.8-0.5-3.5-1-5.3-1.5c0,0.7,0,1.3,0,2c1.3,0.4,2.6,0.7,3.9,1.1c1.3,0.4,2.3,1,3,1.8c0.7,0.8,1.1,1.8,1.1,2.9c0,0,0,0,0,0.1
	C151.2,116.2,151.1,116.6,151,116.8z"/>
<path d="M137.8,126.4c0-7.5,0-15.1,0-22.6c-0.4-0.1-0.8-0.2-1.2-0.3c0,8.1,0,16.1,0,24.2c1.8,0.4,3.5,0.9,5.3,1.4c0-0.5,0-1,0-1.6
	C140.5,127.1,139.2,126.8,137.8,126.4z"/>
<path d="M152.6,130.5c-1.7-3.2-3.5-6.3-5.2-9.5c-1.4-0.4-2.8-0.8-4.2-1.2c0,0.6,0,1.2,0,1.8c0.9,0.3,1.8,0.5,2.8,0.8
	c1.7,3.1,3.4,6.2,5.1,9.3c2,0.6,4,1.3,6.1,2c-0.4-0.7-0.7-1.4-1.1-2C154.9,131.3,153.7,130.9,152.6,130.5z"/>
<path d="M18.9,122.4c-0.4,1.1-1.1,2.1-1.9,2.9c-0.8,0.9-1.8,1.6-2.9,2.3c-1.1,0.7-2.3,1.2-3.7,1.6c-1.9,0.6-3.7,0.8-5.5,0.7
	c-1.8-0.1-3.4-0.6-4.9-1.4c1.1-1.7,2.1-3.3,3.2-5c1.1,0.6,2.3,0.9,3.5,1.1c1.2,0.2,2.5,0.1,3.9-0.4c1.1-0.3,2-0.8,2.6-1.4
	c0.6-0.6,0.9-1.3,0.9-2c0,0,0,0,0-0.1c0-0.4-0.1-0.7-0.2-0.9c-0.1-0.2-0.4-0.4-0.7-0.6c-0.4-0.1-0.9-0.2-1.5-0.3
	c-0.7-0.1-1.5-0.1-2.5,0c-1.3,0.1-2.4,0.1-3.4,0c-1-0.1-1.9-0.3-2.6-0.6c-0.7-0.3-1.3-0.9-1.6-1.6c-0.4-0.7-0.6-1.7-0.6-2.9
	c0,0,0,0,0-0.1c0-1.2,0.2-2.3,0.6-3.3c0.4-1.1,1-2.1,1.8-3c0.8-0.9,1.7-1.7,2.7-2.4c1.1-0.7,2.2-1.2,3.5-1.6c1.8-0.5,3.5-0.7,5-0.6
	c1.5,0.1,2.9,0.6,4.2,1.3c-1,1.6-1.9,3.3-2.8,4.9c-1.1-0.5-2.2-0.8-3.3-0.9c-1.1-0.1-2.1-0.1-3.2,0.3c-1.1,0.3-1.9,0.8-2.4,1.4
	c-0.5,0.6-0.8,1.2-0.8,1.8c0,0,0,0,0,0.1c0,0.4,0.1,0.7,0.2,1c0.2,0.3,0.4,0.4,0.8,0.6c0.4,0.1,0.9,0.2,1.6,0.2c0.7,0,1.6,0,2.6,0
	c1.3,0,2.4,0,3.4,0.2c1,0.2,1.8,0.4,2.5,0.8c0.7,0.4,1.2,1,1.5,1.7c0.3,0.7,0.5,1.6,0.5,2.7c0,0,0,0,0,0.1
	C19.6,120.1,19.3,121.3,18.9,122.4z"/>
<path d="M45.2,115.3c-0.5,1.5-1.3,2.8-2.2,3.9c-1,1.1-2.1,2-3.5,2.7c-1.4,0.7-2.9,1.2-4.6,1.5c-3.4,0.6-6,0.3-8-1.2
	c-1.9-1.4-2.9-4-2.9-7.7c0-4.8,0-9.6,0-14.4c1.8-0.4,3.7-0.8,5.5-1.2c0,4.8,0,9.5,0,14.3c0,2.1,0.5,3.5,1.4,4.4c1,0.9,2.3,1.1,4,0.8
	c1.7-0.3,3-1.1,4-2.2c1-1.2,1.4-2.8,1.4-4.8c0-4.8,0-9.6,0-14.4c1.9-0.3,3.7-0.6,5.6-0.8c0,4.7,0,9.5,0,14.2
	C45.9,112.1,45.7,113.8,45.2,115.3z"/>
<path d="M71.6,118.9c0-5.5,0-11,0-16.5c-2.4,3.7-4.8,7.4-7.2,11.1c0,0-0.1,0-0.1,0c-2.4-3.4-4.7-6.8-7.1-10.1c0,5.5,0,10.9,0,16.4
	c-1.8,0.2-3.7,0.4-5.5,0.6c0-8.4,0-16.8,0-25.2c2-0.2,4-0.4,6-0.6c2.2,3.4,4.5,6.7,6.7,10.1c2.2-3.7,4.5-7.4,6.7-11
	c2-0.1,4-0.1,6.1-0.1c0,8.4,0,16.8,0,25.2C75.3,118.8,73.5,118.9,71.6,118.9z"/>
<path d="M103.3,119.9c0-5.5,0-11,0-16.5c-2.4,3.4-4.8,6.8-7.2,10.2c0,0-0.1,0-0.1,0c-2.4-3.7-4.7-7.4-7.1-11c0,5.5,0,10.9,0,16.4
	c-1.8-0.1-3.7-0.1-5.6-0.1c0-8.4,0-16.8,0-25.2c2,0,4,0.1,6.1,0.1c2.2,3.6,4.5,7.3,6.7,11c2.2-3.4,4.5-6.8,6.7-10.1
	c2,0.2,4,0.4,6,0.6c0,8.4,0,16.8,0,25.2C107,120.2,105.1,120,103.3,119.9z"/>
<path d="M114.9,121.2c0-8.4,0-16.8,0-25.2c6.4,0.9,12.7,2.1,19,3.4c0,1.6,0,3.3,0,4.9c-4.5-1-9-1.9-13.5-2.6c0,1.7,0,3.4,0,5.1
	c4,0.7,7.9,1.4,11.9,2.3c0,1.6,0,3.3,0,4.9c-3.9-0.8-7.9-1.6-11.9-2.3c0,1.8,0,3.5,0,5.3c4.6,0.8,9.1,1.6,13.7,2.6
	c0,1.6,0,3.3,0,4.9C127.8,123.3,121.4,122.1,114.9,121.2z"/>
<path d="M154.1,130.1c-1.8-3.2-3.5-6.5-5.3-9.7c-1.4-0.4-2.9-0.8-4.3-1.2c0,2.7,0,5.4,0,8.1c-1.8-0.5-3.7-1-5.5-1.4
	c0-8.4,0-16.8,0-25.2c3.8,0.9,7.6,2,11.4,3.1c2.9,0.9,5.2,2.3,6.9,4.3c1.6,2,2.4,4.3,2.4,6.9c0,0,0,0,0,0.1c0,2-0.5,3.5-1.5,4.5
	c-1,1-2.2,1.5-3.8,1.6c2,3.6,4,7.3,6,11C158.4,131.4,156.3,130.7,154.1,130.1z M154.2,113.5c0-1.2-0.4-2.2-1.1-3.1
	c-0.8-0.8-1.8-1.5-3.1-1.8c-1.8-0.5-3.6-1-5.4-1.5c0,2.4,0,4.8,0,7.2c1.8,0.5,3.7,1,5.5,1.6c1.3,0.4,2.4,0.4,3.1,0
	C153.9,115.4,154.2,114.6,154.2,113.5C154.2,113.5,154.2,113.5,154.2,113.5z"/>
</svg>
