<?xml version="1.0" encoding="utf-8"?>
<!-- Generator: Adobe Illustrator 18.1.1, SVG Export Plug-In . SVG Version: 6.00 Build 0)  -->
<svg version="1.1" id="Layer_1" xmlns="http://www.w3.org/2000/svg" xmlns:xlink="http://www.w3.org/1999/xlink" x="0px" y="0px"
	 viewBox="10.9 268.4 601.1 216.1" enable-background="new 10.9 268.4 601.1 216.1" xml:space="preserve">
<g>
	<path d="M49,309.3C57.2,312,63.6,322,63.6,332c0,15.4-11.8,25.4-25.4,25.4c-14.5,0-27.2-10-27.2-25.4c0-9.1,3.6-17.3,10-27.2
		l17.3-27.2h21.8L49,309.3z M37.2,335.6c1.8,0,3.6-1.8,3.6-3.6c0-1.8-1.8-3.6-3.6-3.6s-3.6,1.8-3.6,3.6
		C33.6,333.8,34.5,335.6,37.2,335.6z"/>
</g>
<g>
	<path d="M268.8,402.8c0,10.9-1.8,21.8-6.4,31.8c-4.5,10-10,19.1-17.3,26.3c-7.3,7.3-16.3,13.6-26.3,17.3c-10,4.5-20.9,6.4-31.8,6.4
		c-11.8,0-21.8-1.8-31.8-6.4c-10-4.5-19.1-10-26.3-17.3c-7.3-7.3-13.6-16.3-18.2-26.3c-4.5-10-6.4-20.9-6.4-31.8
		c0-9.1,0.9-17.3,3.6-24.5s6.4-15.4,11.8-23.6l57.2-83.5h34.5L148,361c-3.6,5.4-6.4,10-8.2,13.6c-1.8,4.5-3.6,8.2-4.5,10.9
		c-0.9,3.6-1.8,6.4-1.8,9.1s0,5.4,0,7.3c0,7.3,1.8,14.5,4.5,20.9c2.7,6.4,7.3,12.7,11.8,17.3c4.5,4.5,10.9,9.1,17.3,11.8
		c6.4,2.7,13.6,4.5,20.9,4.5s14.5-1.8,20.9-4.5c6.4-2.7,11.8-6.4,17.3-11.8s9.1-10.9,11.8-17.3s4.5-13.6,4.5-20.9
		c0-6.4-0.9-12.7-3.6-18.2c-2.7-5.4-5.4-10.9-9.1-15.4c-3.6-4.5-8.2-8.2-13.6-11.8s-10.9-5.4-17.3-6.4c-0.9,0.9-1.8,1.8-2.7,2.7
		c-0.9,0.9-1.8,1.8-1.8,2.7c5.4,0.9,10.9,2.7,16.3,5.4c4.5,2.7,9.1,6.4,12.7,10.9c3.6,4.5,6.4,9.1,9.1,14.5
		c1.8,5.4,2.7,10.9,2.7,17.3c0,6.4-0.9,12.7-3.6,18.2c-2.7,5.4-5.4,10.9-10,15.4c-4.5,4.5-9.1,8.2-15.4,10s-11.8,3.6-18.2,3.6
		c-6.4,0-12.7-0.9-19.1-3.6s-10.9-6.4-15.4-10.9c-4.5-4.5-8.2-9.1-10.9-15.4c-2.7-5.4-3.6-11.8-3.6-18.2c0-4.5,0.9-9.1,1.8-13.6
		c0.9-3.6,2.7-7.3,3.6-10.9c1.8-3.6,2.7-6.4,4.5-9.1c1.8-2.7,3.6-4.5,4.5-6.4c7.3-10,14.5-20,21.8-30.9
		c7.3-10.9,14.5-20.9,20.9-29.1c7.3-10.9,14.5-20.9,21.8-30.9h33.6l-37.2,54.5c8.2,2.7,15.4,7.3,21.8,11.8
		c6.4,5.4,11.8,10.9,17.3,17.3c4.5,6.4,8.2,13.6,10.9,21.8C267.9,385.6,268.8,393.7,268.8,402.8z M208.8,402.8
		c0-5.4-2.7-10.9-6.4-15.4c-3.6-4.5-9.1-6.4-15.4-6.4c-6.4,0-11.8,1.8-15.4,6.4c-3.6,4.5-5.4,9.1-5.4,15.4c0,2.7,0.9,5.4,1.8,8.2
		c0.9,2.7,2.7,4.5,4.5,7.3c1.8,1.8,4.5,3.6,7.3,4.5s5.4,1.8,8.2,1.8s5.4-0.9,8.2-1.8s4.5-2.7,6.4-4.5c1.8-1.8,3.6-4.5,4.5-7.3
		C207.9,408.3,208.8,405.5,208.8,402.8z"/>
	<path d="M494.9,376.5c0,14.5-2.7,29.1-8.2,41.8c-5.4,12.7-13.6,24.5-23.6,34.5c-10,10-20.9,17.3-34.5,22.7
		c-13.6,5.4-27.2,8.2-41.8,8.2s-29.1-2.7-41.8-8.2c-12.7-5.4-24.5-13.6-34.5-22.7c-10-10-17.3-20.9-22.7-34.5
		c-5.4-12.7-8.2-27.2-8.2-41.8s2.7-29.1,8.2-41.8c5.4-12.7,13.6-24.5,22.7-34.5c10-10,21.8-18.2,34.5-23.6
		c12.7-5.4,27.2-8.2,41.8-8.2s29.1,2.7,41.8,8.2c13.6,5.4,25.4,13.6,34.5,23.6c10,10,17.3,20.9,22.7,34.5
		C492.1,347.4,494.9,361,494.9,376.5z M467.6,376.5c0-10.9-1.8-21.8-6.4-31.8c-4.5-10-10-18.2-17.3-25.4
		c-7.3-7.3-15.4-12.7-25.4-17.3c-10-4.5-20-7.3-31.8-7.3c-10.9,0-21.8,1.8-31.8,6.4c-10,4.5-18.2,10-25.4,17.3
		c-7.3,7.3-12.7,16.3-17.3,25.4c-4.5,9.1-6.4,20-6.4,31.8c0,10.9,1.8,21.8,6.4,30.9c4.5,10,10,18.2,17.3,25.4
		c7.3,7.3,15.4,12.7,25.4,17.3c10,4.5,20,6.4,31.8,6.4c10.9,0,21.8-1.8,31.8-6.4c10-4.5,18.2-10,25.4-17.3
		c7.3-7.3,12.7-15.4,17.3-25.4C465.8,397.4,467.6,387.4,467.6,376.5z M461.3,376.5c0,10-1.8,20-5.4,28.1
		c-3.6,9.1-9.1,16.3-15.4,23.6c-6.4,6.4-14.5,11.8-23.6,15.4c-9.1,3.6-18.2,5.4-29.1,5.4c-10,0-20-1.8-29.1-5.4
		c-9.1-3.6-17.3-9.1-23.6-15.4c-6.4-6.4-11.8-14.5-15.4-23.6c-3.6-9.1-5.4-18.2-5.4-29.1c0-10,1.8-20,5.4-29.1
		c3.6-9.1,9.1-16.3,15.4-23.6c6.4-6.4,14.5-11.8,23.6-15.4c9.1-3.6,18.2-5.4,29.1-5.4c10,0,20,1.8,29.1,5.4
		c9.1,3.6,17.3,9.1,23.6,16.3c6.4,6.4,11.8,14.5,15.4,23.6S461.3,365.6,461.3,376.5z M434,376.5c0-6.4-0.9-12.7-3.6-18.2
		c-2.7-5.4-5.4-10.9-10-14.5c-4.5-4.5-9.1-7.3-14.5-10c-5.4-2.7-11.8-3.6-18.2-3.6c-6.4,0-11.8,0.9-18.2,3.6
		c-5.4,2.7-10.9,5.4-14.5,10c-4.5,4.5-7.3,9.1-10,14.5c-2.7,5.4-3.6,11.8-3.6,18.2s0.9,11.8,3.6,18.2c2.7,5.4,5.4,10.9,10,14.5
		c4.5,4.5,9.1,7.3,14.5,10c5.4,2.7,11.8,3.6,18.2,3.6c6.4,0,12.7-0.9,18.2-3.6s10.9-5.4,14.5-10c4.5-4.5,7.3-9.1,10-14.5
		C433.1,388.3,434,381.9,434,376.5z"/>
</g>
<g>
	<path d="M609.3,437.3c0,6.4-0.9,12.7-3.6,18.2c-2.7,5.4-6.4,10.9-10.9,14.5c-4.5,4.5-10,7.3-15.4,10c-6.4,2.7-11.8,3.6-18.2,3.6
		s-12.7-0.9-18.2-2.7c-5.4-1.8-10.9-4.5-15.4-8.2c-4.5-3.6-9.1-7.3-11.8-12.7c-3.6-4.5-5.4-10-6.4-16.3l19.1-5.4
		c0,3.6,1.8,7.3,3.6,10.9c1.8,3.6,4.5,6.4,7.3,8.2c2.7,1.8,6.4,3.6,10,5.4c3.6,0.9,7.3,1.8,11.8,1.8c4.5,0,8.2-0.9,11.8-1.8
		c3.6-1.8,6.4-3.6,9.1-5.4c2.7-2.7,4.5-5.4,6.4-9.1s2.7-7.3,2.7-10.9c0-6.4-0.9-10.9-3.6-14.5c-2.7-3.6-6.4-6.4-10-9.1
		s-8.2-4.5-12.7-6.4c-4.5-1.8-9.1-3.6-12.7-5.4c-3.6-1.8-7.3-4.5-10-7.3c-2.7-2.7-3.6-7.3-3.6-12.7c0-3.6,0.9-6.4,1.8-9.1
		s2.7-5.4,5.4-7.3c1.8-1.8,4.5-3.6,8.2-4.5c3.6-0.9,6.4-1.8,10-1.8c2.7,0,6.4,0.9,9.1,1.8c2.7,0.9,5.4,2.7,7.3,4.5
		c1.8,1.8,3.6,4.5,5.4,6.4c1.8,2.7,2.7,5.4,2.7,8.2l-17.3,5.4c0-1.8-0.9-3.6-1.8-4.5c-0.9-1.8-2.7-1.8-4.5-1.8s-2.7,0-3.6,0.9
		c-0.9,0.9-1.8,1.8-1.8,3.6c0,2.7,0.9,4.5,3.6,5.4c2.7,1.8,6.4,2.7,10,4.5c3.6,1.8,8.2,3.6,12.7,5.4s9.1,4.5,12.7,8.2
		c3.6,3.6,7.3,7.3,10,12.7C608.4,422.8,609.3,429.1,609.3,437.3z M588.4,377.4c-0.9-7.3-4.5-12.7-9.1-16.3
		c-5.4-4.5-11.8-6.4-19.1-6.4c-3.6,0-7.3,0.9-10.9,1.8c-3.6,0.9-6.4,3.6-8.2,5.4c-2.7,2.7-4.5,5.4-5.4,8.2
		c-1.8,3.6-1.8,6.4-1.8,10.9c0,5.4,0.9,10,3.6,13.6c2.7,3.6,6.4,6.4,10,8.2c3.6,2.7,8.2,4.5,12.7,6.4c4.5,1.8,9.1,3.6,12.7,6.4
		c3.6,2.7,7.3,5.4,10,8.2c2.7,3.6,3.6,8.2,3.6,13.6c0,3.6-0.9,7.3-1.8,10c-1.8,2.7-3.6,5.4-5.4,8.2c-2.7,1.8-5.4,3.6-8.2,5.4
		c-3.6,0.9-6.4,1.8-10,1.8c-3.6,0-7.3-0.9-10.9-1.8c-3.6-0.9-6.4-2.7-9.1-4.5c-2.7-1.8-4.5-4.5-6.4-7.3s-2.7-6.4-2.7-10l18.2-5.4
		c0,3.6,0.9,6.4,3.6,8.2c2.7,1.8,4.5,2.7,7.3,2.7c1.8,0,3.6-0.9,5.4-1.8c1.8-0.9,2.7-2.7,2.7-4.5c0-2.7-0.9-4.5-3.6-6.4
		c-2.7-1.8-6.4-3.6-10-5.4c-3.6-1.8-8.2-3.6-12.7-5.4c-4.5-1.8-9.1-4.5-12.7-8.2c-3.6-3.6-7.3-7.3-10-11.8
		c-2.7-4.5-3.6-10.9-3.6-18.2c0-6.4,0.9-11.8,3.6-17.3c1.8-5.4,5.4-10,9.1-14.5c3.6-4.5,9.1-7.3,14.5-10s11.8-3.6,19.1-3.6
		c6.4,0,11.8,0.9,17.3,2.7c5.4,1.8,10,4.5,14.5,7.3c4.5,2.7,8.2,7.3,10.9,11.8c2.7,4.5,5.4,9.1,6.4,14.5L588.4,377.4z"/>
</g>
</svg>
