<?xml version="1.0" encoding="utf-8"?>
<!-- Generator: Adobe Illustrator 18.1.1, SVG Export Plug-In . SVG Version: 6.00 Build 0)  -->
<svg version="1.1" id="Layer_1" xmlns="http://www.w3.org/2000/svg" xmlns:xlink="http://www.w3.org/1999/xlink" x="0px" y="0px"
	 viewBox="11.5 263.4 600.5 226.7" enable-background="new 11.5 263.4 600.5 226.7" xml:space="preserve">
<g>
	<path d="M51.9,302.8c8.6,2.9,15.4,13.5,15.4,24c0,16.3-12.5,26.9-26.9,26.9c-15.4,0-28.8-10.6-28.8-26.9c0-9.6,3.8-18.3,10.6-28.8
		l18.3-28.8h23.1L51.9,302.8z M39.4,330.7c1.9,0,3.8-1.9,3.8-3.8s-1.9-3.8-3.8-3.8c-1.9,0-3.8,1.9-3.8,3.8S36.5,330.7,39.4,330.7z"
		/>
</g>
<g>
	<path d="M231.5,266.3l-73,222.9h-31.7l52.8-159.5h-69.2v-29.8h79.7l1.9-6.7h-81.7v-26.9H231.5z M197,488.2h-31.7l73-222.9H269
		L197,488.2z"/>
	<path d="M488.1,376.8c0,15.4-2.9,30.7-8.6,44.2c-5.8,13.5-14.4,25.9-24,36.5c-9.6,10.6-22.1,18.3-36.5,24
		c-13.5,5.8-28.8,8.6-44.2,8.6s-30.7-2.9-44.2-8.6s-25.9-14.4-36.5-24c-10.6-10.6-18.3-22.1-24-36.5c-5.8-13.5-8.6-28.8-8.6-44.2
		s2.9-30.7,8.6-44.2c5.8-13.5,14.4-25.9,24-36.5c10.6-10.6,22.1-18.3,36.5-24c13.5-5.8,28.8-8.6,44.2-8.6s30.7,2.9,44.2,8.6
		c13.5,5.8,25.9,14.4,36.5,24c10.6,10.6,18.3,22.1,24,36.5C485.2,346,488.1,361.4,488.1,376.8z M459.2,376.8
		c0-11.5-1.9-23.1-6.7-33.6s-10.6-19.2-18.3-26.9c-7.7-7.7-16.3-13.5-26.9-18.3c-10.6-4.8-21.1-6.7-33.6-6.7
		c-11.5,0-23.1,1.9-33.6,6.7c-10.6,4.8-19.2,10.6-26.9,18.3c-7.7,7.7-13.5,17.3-18.3,26.9s-6.7,21.1-6.7,33.6
		c0,11.5,1.9,23.1,6.7,32.7c4.8,10.6,10.6,19.2,18.3,26.9c7.7,7.7,16.3,13.5,26.9,18.3c10.6,4.8,21.1,6.7,33.6,6.7
		c11.5,0,23.1-1.9,33.6-6.7c10.6-4.8,19.2-10.6,26.9-18.3c7.7-7.7,13.5-16.3,18.3-26.9C456.4,398.9,459.2,388.3,459.2,376.8z
		 M451.6,376.8c0,10.6-1.9,21.1-5.8,29.8c-3.8,9.6-9.6,17.3-16.3,25c-6.7,6.7-15.4,12.5-25,16.3c-9.6,3.8-19.2,5.8-30.7,5.8
		c-10.6,0-21.1-1.9-30.7-5.8c-9.6-3.8-18.3-9.6-25-16.3c-6.7-6.7-12.5-15.4-16.3-25s-5.8-19.2-5.8-30.7c0-10.6,1.9-21.1,5.8-30.7
		c3.8-9.6,9.6-17.3,16.3-25c6.7-6.7,15.4-12.5,25-16.3s19.2-5.8,30.7-5.8c10.6,0,21.1,1.9,30.7,5.8s18.3,9.6,25,17.3
		s12.5,15.4,16.3,25S451.6,365.3,451.6,376.8z M422.7,376.8c0-6.7-1-13.5-3.8-19.2c-2.9-5.8-5.8-11.5-10.6-15.4
		c-4.8-4.8-9.6-7.7-15.4-10.6s-12.5-3.8-19.2-3.8c-6.7,0-12.5,1-19.2,3.8c-5.8,2.9-11.5,5.8-15.4,10.6c-4.8,4.8-7.7,9.6-10.6,15.4
		c-2.9,5.8-3.8,12.5-3.8,19.2s1,12.5,3.8,19.2c2.9,5.8,5.8,11.5,10.6,15.4c4.8,4.8,9.6,7.7,15.4,10.6c5.8,2.9,12.5,3.8,19.2,3.8
		c6.7,0,13.5-1,19.2-3.8c5.8-2.9,11.5-5.8,15.4-10.6c4.8-4.8,7.7-9.6,10.6-15.4C421.8,390.2,422.7,383.5,422.7,376.8z"/>
</g>
<g>
	<path d="M610.1,441.2c0,6.7-1,13.5-3.8,19.2s-6.7,11.5-11.5,15.4c-4.8,4.8-10.6,7.7-16.3,10.6c-6.7,2.9-12.5,3.8-19.2,3.8
		s-13.5-1-19.2-2.9c-5.8-1.9-11.5-4.8-16.3-8.6c-4.8-3.8-9.6-7.7-12.5-13.5c-3.8-4.8-5.8-10.6-6.7-17.3l20.2-5.8
		c0,3.8,1.9,7.7,3.8,11.5c1.9,3.8,4.8,6.7,7.7,8.6c2.9,1.9,6.7,3.8,10.6,5.8c3.8,1,7.7,1.9,12.5,1.9s8.6-1,12.5-1.9
		c3.8-1.9,6.7-3.8,9.6-5.8c2.9-2.9,4.8-5.8,6.7-9.6s2.9-7.7,2.9-11.5c0-6.7-1-11.5-3.8-15.4s-6.7-6.7-10.6-9.6
		c-3.8-2.9-8.6-4.8-13.5-6.7c-4.8-1.9-9.6-3.8-13.5-5.8c-3.8-1.9-7.7-4.8-10.6-7.7s-3.8-7.7-3.8-13.5c0-3.8,1-6.7,1.9-9.6
		c1-2.9,2.9-5.8,5.8-7.7c1.9-1.9,4.8-3.8,8.6-4.8c3.8-1,6.7-1.9,10.6-1.9c2.9,0,6.7,1,9.6,1.9s5.8,2.9,7.7,4.8s3.8,4.8,5.8,6.7
		c1.9,2.9,2.9,5.8,2.9,8.6l-18.3,5.8c0-1.9-1-3.8-1.9-4.8c-1-1.9-2.9-1.9-4.8-1.9s-2.9,0-3.8,1s-1.9,1.9-1.9,3.8
		c0,2.9,1,4.8,3.8,5.8c2.9,1.9,6.7,2.9,10.6,4.8c3.8,1.9,8.6,3.8,13.5,5.8s9.6,4.8,13.5,8.6c3.8,3.8,7.7,7.7,10.6,13.5
		C609.1,425.8,610.1,432.5,610.1,441.2z M588,377.7c-1-7.7-4.8-13.5-9.6-17.3c-5.8-4.8-12.5-6.7-20.2-6.7c-3.8,0-7.7,1-11.5,1.9
		s-6.7,3.8-8.6,5.8c-2.9,2.9-4.8,5.8-5.8,8.6c-1.9,3.8-1.9,6.7-1.9,11.5c0,5.8,1,10.6,3.8,14.4c2.9,3.8,6.7,6.7,10.6,8.6
		c3.8,2.9,8.6,4.8,13.5,6.7s9.6,3.8,13.5,6.7s7.7,5.8,10.6,8.6c2.9,3.8,3.8,8.6,3.8,14.4c0,3.8-1,7.7-1.9,10.6
		c-1.9,2.9-3.8,5.8-5.8,8.6c-2.9,1.9-5.8,3.8-8.6,5.8c-3.8,1-6.7,1.9-10.6,1.9c-3.8,0-7.7-1-11.5-1.9c-3.8-1-6.7-2.9-9.6-4.8
		s-4.8-4.8-6.7-7.7c-1.9-2.9-2.9-6.7-2.9-10.6l19.2-5.8c0,3.8,1,6.7,3.8,8.6c2.9,1.9,4.8,2.9,7.7,2.9c1.9,0,3.8-1,5.8-1.9
		c1.9-1,1.9-5.8,1.9-7.7c0-2.9-1-4.8-3.8-6.7s-6.7-3.8-10.6-5.8c-3.8-1.9-8.6-3.8-13.5-5.8s-9.6-4.8-13.5-8.6
		c-3.8-3.8-7.7-7.7-10.6-12.5s-3.8-11.5-3.8-19.2c0-6.7,1-12.5,3.8-18.3c1.9-5.8,5.8-10.6,9.6-15.4s9.6-7.7,15.4-10.6
		c5.8-2.9,12.5-3.8,20.2-3.8c6.7,0,12.5,1,18.3,2.9s10.6,4.8,15.4,7.7s8.6,7.7,11.5,12.5c2.9,4.8,5.8,9.6,6.7,15.4L588,377.7z"/>
</g>
</svg>
