<?xml version="1.0" encoding="utf-8"?>
<!-- Generator: Adobe Illustrator 18.1.1, SVG Export Plug-In . SVG Version: 6.00 Build 0)  -->
<svg version="1.1" id="Layer_1" xmlns="http://www.w3.org/2000/svg" xmlns:xlink="http://www.w3.org/1999/xlink" x="0px" y="0px"
	 viewBox="10.7 273.9 600.4 211.2" enable-background="new 10.7 273.9 600.4 211.2" xml:space="preserve">
<g>
	<path d="M48.3,307c8.1,2.7,14.3,12.5,14.3,22.4c0,15.2-11.6,25.1-25.1,25.1c-14.3,0-26.8-9.8-26.8-25.1c0-8.9,3.6-17,9.8-26.8
		l17-26.8h21.5L48.3,307z M36.7,332.9c1.8,0,3.6-1.8,3.6-3.6c0-1.8-1.8-3.6-3.6-3.6s-3.6,1.8-3.6,3.6
		C33.1,331.1,34,332.9,36.7,332.9z"/>
</g>
<g>
	<path d="M105.6,355.3c0-11.6,1.8-21.5,6.3-31.3c4.5-9.8,9.8-17.9,17-25.9c7.2-7.2,16.1-13.4,25.9-17c9.8-4.5,20.6-6.3,31.3-6.3
		s21.5,1.8,31.3,6.3s18.8,9.8,25.9,17c7.2,7.2,13.4,16.1,17.9,25.9s6.3,20.6,6.3,31.3c0,8.9-0.9,17-3.6,24.2
		c-1.8,7.2-6.3,15.2-11.6,23.3l-55.5,81.4h-34l62.6-88.6c3.6-5.4,6.3-9.8,8.1-13.4s3.6-8.1,4.5-10.7c0.9-3.6,1.8-6.3,1.8-8.9
		s0-5.4,0-7.2c0-7.2-1.8-14.3-4.5-20.6s-7.2-11.6-11.6-17c-4.5-4.5-10.7-8.9-17-11.6c-6.3-2.7-13.4-4.5-20.6-4.5
		c-7.2,0-14.3,1.8-20.6,4.5c-6.3,2.7-12.5,6.3-17,11.6c-4.5,4.5-8.9,10.7-11.6,17c-2.7,6.3-4.5,13.4-4.5,20.6
		c0,6.3,0.9,12.5,3.6,17.9c1.8,5.4,5.4,10.7,8.9,15.2c3.6,4.5,8.1,8.1,13.4,11.6c5.4,3.6,10.7,5.4,17,6.3c0.9-0.9,1.8-1.8,2.7-2.7
		c0.9-0.9,1.8-1.8,1.8-2.7c-5.4-0.9-10.7-2.7-16.1-5.4c-5.4-2.7-8.9-6.3-12.5-9.8c-3.6-4.5-6.3-8.9-8.9-14.3
		c-1.8-5.4-2.7-10.7-2.7-17s0.9-12.5,3.6-17.9c2.7-5.4,5.4-10.7,9.8-15.2c4.5-4.5,8.9-8.1,15.2-9.8c5.4-2.7,11.6-3.6,17.9-3.6
		c6.3,0,12.5,0.9,18.8,3.6c5.4,2.7,10.7,6.3,15.2,10.7c4.5,4.5,8.1,8.9,10.7,15.2c2.7,6.3,3.6,11.6,3.6,17.9c0,4.5-0.9,8.9-1.8,13.4
		c-0.9,3.6-2.7,7.2-3.6,10.7c-1.8,3.6-2.7,6.3-4.5,8.9c-1.8,2.7-3.6,4.5-4.5,6.3c-7.2,9.8-14.3,19.7-21.5,30.4s-14.3,20.6-20.6,28.6
		c-7.2,10.7-14.3,20.6-21.5,30.4h-33.1l36.7-53.7c-8.1-2.7-15.2-7.2-21.5-11.6c-6.3-5.4-11.6-10.7-17-17s-8.1-13.4-10.7-21.5
		C107.4,371.4,105.6,363.3,105.6,355.3z M165.5,355.3c0,5.4,2.7,10.7,6.3,15.2c4.5,4.5,8.9,6.3,15.2,6.3s11.6-1.8,15.2-6.3
		c3.6-4.5,5.4-8.9,5.4-15.2c0-2.7-0.9-6.3-1.8-8.1c-0.9-2.7-2.7-4.5-4.5-6.3c-1.8-1.8-4.5-3.6-7.2-4.5s-5.4-1.8-8.1-1.8
		s-5.4,0.9-8.1,1.8c-2.7,0.9-4.5,2.7-6.3,4.5c-1.8,1.8-3.6,4.5-4.5,7.2C166.4,349.9,165.5,352.6,165.5,355.3z"/>
	<path d="M489.4,379.4c0,14.3-2.7,28.6-8.1,41.2c-5.4,12.5-13.4,24.2-22.4,34s-20.6,17-34,22.4c-13.4,5.4-26.8,8.1-41.2,8.1
		c-14.3,0-28.6-2.7-41.2-8.1c-12.5-5.4-24.2-13.4-34-22.4c-9.8-9.8-17-20.6-22.4-34c-5.4-12.5-8.1-26.8-8.1-41.2s2.7-28.6,8.1-41.2
		c5.4-12.5,13.4-24.2,22.4-34c9.8-9.8,20.6-17,34-22.4c12.5-5.4,26.8-8.1,41.2-8.1c14.3,0,28.6,2.7,41.2,8.1
		c12.5,5.4,24.2,13.4,34,22.4c9.8,9.8,17,20.6,22.4,34C486.7,351.7,489.4,365.1,489.4,379.4z M462.6,379.4c0-10.7-1.8-21.5-6.3-31.3
		c-4.5-9.8-9.8-17.9-17-25.1s-15.2-12.5-25.1-17c-9.8-4.5-20.6-6.3-31.3-6.3s-21.5,1.8-31.3,6.3c-9.8,4.5-17.9,9.8-25.1,17
		c-7.2,7.2-12.5,16.1-17,25.1c-4.5,8.9-5.4,20.6-5.4,31.3s1.8,21.5,6.3,30.4c4.5,9.8,9.8,17.9,17,25.1c7.2,7.2,15.2,12.5,25.1,17
		c9.8,4.5,19.7,6.3,31.3,6.3c10.7,0,21.5-1.8,31.3-6.3c9.8-4.5,17.9-9.8,25.1-17c7.2-7.2,12.5-15.2,17-25.1
		C459.9,400.9,462.6,391.1,462.6,379.4z M455.4,379.4c0,9.8-1.8,19.7-5.4,27.7c-3.6,8.9-8.9,16.1-15.2,23.3
		c-6.3,6.3-14.3,11.6-23.3,15.2c-8.9,3.6-17.9,5.4-28.6,5.4c-9.8,0-19.7-1.8-28.6-5.4c-8.9-3.6-17-8.9-23.3-15.2
		c-6.3-6.3-11.6-14.3-15.2-23.3c-3.6-8.9-5.4-17.9-5.4-28.6c0-9.8,1.8-19.7,5.4-28.6c3.6-8.9,8.9-16.1,15.2-23.3
		c6.3-6.3,14.3-11.6,23.3-15.2c8.9-3.6,17.9-5.4,28.6-5.4c9.8,0,19.7,1.8,28.6,5.4c8.9,3.6,17,8.9,23.3,16.1
		c6.3,6.3,11.6,14.3,15.2,23.3C453.6,359.8,455.4,369.6,455.4,379.4z M428.6,379.4c0-6.3-0.9-12.5-3.6-17.9
		c-2.7-5.4-5.4-10.7-9.8-14.3c-4.5-4.5-8.9-7.2-14.3-9.8c-5.4-2.7-11.6-3.6-17.9-3.6c-6.3,0-11.6,0.9-17.9,3.6
		c-5.4,2.7-10.7,5.4-14.3,9.8c-4.5,4.5-7.2,8.9-9.8,14.3c-2.7,5.4-3.6,11.6-3.6,17.9c0,6.3,0.9,11.6,3.6,17.9
		c2.7,5.4,5.4,10.7,9.8,14.3c4.5,4.5,8.9,7.2,14.3,9.8s11.6,3.6,17.9,3.6c6.3,0,12.5-0.9,17.9-3.6s10.7-5.4,14.3-9.8
		c4.5-4.5,7.2-8.9,9.8-14.3S428.6,385.7,428.6,379.4z"/>
</g>
<g>
	<path d="M609.3,439.4c0,6.3-0.9,12.5-3.6,17.9c-2.7,5.4-6.3,10.7-10.7,14.3s-9.8,7.2-15.2,9.8c-6.3,2.7-11.6,3.6-17.9,3.6
		s-12.5-0.9-17.9-2.7c-5.4-1.8-10.7-4.5-15.2-8.1c-4.5-3.6-8.9-7.2-11.6-12.5c-3.6-4.5-5.4-9.8-6.3-16.1l18.8-5.4
		c0,3.6,1.8,7.2,3.6,10.7c1.8,2.7,4.5,6.3,7.2,8.1s6.3,3.6,9.8,5.4s7.2,1.8,11.6,1.8c4.5,0,8.1-0.9,11.6-1.8
		c3.6-1.8,6.3-3.6,8.9-5.4c2.7-2.7,4.5-5.4,6.3-8.9s2.7-7.2,2.7-10.7c0-6.3-0.9-10.7-3.6-14.3c-2.7-3.6-6.3-7.2-9.8-8.9
		c-3.6-2.7-8.1-4.5-12.5-6.3c-4.5-1.8-8.9-3.6-12.5-5.4c-3.6-1.8-7.2-4.5-9.8-7.2s-3.6-7.2-3.6-12.5c0-3.6,0.9-6.3,1.8-8.9
		c0.9-2.7,2.7-5.4,5.4-7.2c1.8-1.8,4.5-3.6,8.1-4.5s6.3-1.8,9.8-1.8c2.7,0,6.3,0.9,8.9,1.8c2.7,0.9,5.4,2.7,7.2,4.5
		c1.8,1.8,3.6,4.5,5.4,6.3c1.8,2.7,2.7,5.4,2.7,8.1l-17,5.4c0-1.8-0.9-3.6-1.8-4.5c-0.9-1.8-2.7-1.8-4.5-1.8s-2.7,0-3.6,0.9
		c-0.9,0.9-1.8,1.8-1.8,3.6c0,2.7,0.9,4.5,3.6,5.4c2.7,1.8,6.3,2.7,9.8,4.5s8.1,3.6,12.5,5.4c4.5,1.8,8.9,4.5,12.5,8.1
		c3.6,3.6,7.2,7.2,9.8,12.5C611.1,427.8,609.3,432.2,609.3,439.4z M588.7,381.2c-0.9-7.2-4.5-12.5-8.9-16.1
		c-5.4-4.5-11.6-6.3-18.8-6.3c-3.6,0-7.2,0.9-10.7,1.8c-3.6,0.9-6.3,3.6-8.1,5.4c-2.7,2.7-4.5,5.4-5.4,8.1
		c-1.8,3.6-1.8,6.3-1.8,10.7c0,5.4,0.9,9.8,3.6,13.4c2.7,3.6,6.3,6.3,9.8,8.1c3.6,2.7,8.1,4.5,12.5,6.3c4.5,1.8,8.9,3.6,12.5,6.3
		c3.6,2.7,7.2,5.4,9.8,8.1c2.7,3.6,3.6,8.1,3.6,13.4c0,3.6-0.9,7.2-1.8,9.8c-1.8,2.7-3.6,5.4-5.4,8.1c-2.7,1.8-5.4,3.6-8.1,5.4
		c-3.6-0.9-7.2-0.9-10.7-0.9s-7.2-0.9-10.7-1.8c-3.6-0.9-6.3-2.7-8.9-4.5s-4.5-4.5-6.3-7.2c-1.8-2.7-2.7-6.3-2.7-9.8l17.9-5.4
		c0,3.6,0.9,6.3,3.6,8.1c2.7,1.8,4.5,2.7,7.2,2.7c1.8,0,3.6-0.9,5.4-1.8c1.8-0.9,2.7-2.7,2.7-4.5c0-2.7-0.9-4.5-3.6-6.3
		c-2.7-1.8-6.3-3.6-9.8-5.4c-3.6-1.8-8.1-3.6-12.5-5.4c-4.5-1.8-8.9-4.5-12.5-8.1s-7.2-7.2-9.8-11.6c-2.7-4.5-3.6-10.7-3.6-17.9
		c0-6.3,0.9-11.6,3.6-17c1.8-5.4,5.4-9.8,8.9-14.3s8.9-7.2,14.3-9.8c5.4-2.7,11.6-3.6,18.8-3.6c6.3,0,11.6,0.9,17,2.7
		c5.4,1.8,9.8,4.5,14.3,7.2s8.1,7.2,10.7,11.6c2.7,4.5,5.4,8.9,6.3,14.3L588.7,381.2z"/>
</g>
</svg>
