<?xml version="1.0" encoding="utf-8"?>
<!-- Generator: Adobe Illustrator 18.1.1, SVG Export Plug-In . SVG Version: 6.00 Build 0)  -->
<svg version="1.1" id="Layer_1" xmlns="http://www.w3.org/2000/svg" xmlns:xlink="http://www.w3.org/1999/xlink" x="0px" y="0px"
	 viewBox="0 283.6 614.8 223.8" enable-background="new 0 283.6 614.8 223.8" xml:space="preserve">
<g>
	<path d="M40.6,328.9c8.5,3.8,14.2,13.2,14.2,24.6c0,16.1-12.3,26.4-26.4,26.4C13.2,379.9,0,369.6,0,353.5c0-9.4,3.8-17.9,10.4-28.3
		l17.9-28.3H51L40.6,328.9z M27.4,357.3c1.9,0,3.8-1.9,3.8-3.8s-1.9-4.7-3.8-4.7c-1.9,0-3.8,0.9-3.8,3.8
		C23.6,355.4,25.5,357.3,27.4,357.3z"/>
</g>
<g>
	<path d="M255.9,436.6c0,9.4-1.9,18.9-4.7,27.4c-3.8,8.5-8.5,16.1-15.1,22.7c-6.6,6.6-14.2,11.3-23.6,15.1s-19.8,5.7-32.1,5.7
		c-12.3,0-22.7-1.9-32.1-5.7s-17.9-8.5-24.6-15.1s-11.3-14.2-15.1-22.7c-3.8-8.5-5.7-17.9-5.7-28.3c0-5.7,0.9-11.3,1.9-16.1
		c0.9-4.7,2.8-9.4,4.7-13.2s3.8-6.6,5.7-9.4c1.9-2.8,4.7-4.7,6.6-6.6c-3.8-5.7-5.7-11.3-7.6-17.9c-1.9-6.6-2.8-13.2-2.8-19.8
		c0-9.4,1.9-18.9,5.7-27.4c3.8-8.5,8.5-16.1,15.1-22.7c6.6-6.6,14.2-11.3,22.7-15.1c6.6-1.9,15.1-3.8,25.5-3.8
		c9.4,0,18.9,1.9,27.4,5.7c8.5,3.8,16.1,8.5,22.7,15.1c6.6,6.6,11.3,14.2,15.1,22.7c3.8,8.5,5.7,17.9,5.7,27.4
		c0,6.6-0.9,13.2-2.8,19.8c-1.9,6.6-4.7,12.3-8.5,17.9c1.9,1.9,3.8,3.8,5.7,6.6c1.9,2.8,3.8,6.6,5.7,10.4c1.9,3.8,2.8,8.5,4.7,13.2
		C255,427.2,255.9,431.9,255.9,436.6z M226.7,433.8c0-8.5-1.9-16.1-6.6-20.8c-3.8-4.7-9.4-9.4-15.1-12.3c-5.7-2.8-12.3-5.7-19.8-7.6
		c-7.6-1.9-13.2-4.7-19.8-7.6c-5.7-2.8-11.3-6.6-15.1-11.3c-3.8-4.7-6.6-11.3-6.6-18.9c0-4.7,0.9-9.4,2.8-14.2
		c1.9-4.7,4.7-8.5,7.6-11.3c2.8-3.8,6.6-5.7,11.3-7.6c4.7-1.9,8.5-2.8,14.2-2.8c4.7,0,9.4,0.9,14.2,2.8c4.7,1.9,8.5,4.7,11.3,7.6
		c2.8,3.8,5.7,7.6,7.6,11.3c1.9,4.7,2.8,9.4,2.8,14.2c0,5.7-1.9,11.3-4.7,17l1.9,0.9l0.9,0.9c0.9,0,0.9,0.9,0.9,0.9
		c1.9-2.8,2.8-6.6,3.8-9.4c0.9-3.8,1.9-6.6,1.9-10.4c0-5.7-0.9-11.3-3.8-16.1c-1.9-4.7-4.7-9.4-8.5-13.2c-3.8-3.8-8.5-6.6-13.2-9.4
		c-3.8-3.8-9.4-4.7-15.1-4.7s-11.3,0.9-16.1,2.8c-4.7,1.9-9.4,4.7-13.2,9.4c-3.8,3.8-6.6,8.5-8.5,13.2c-1.9,4.7-3.8,10.4-3.8,16.1
		c0,9.4,1.9,16.1,5.7,21.7c3.8,5.7,8.5,9.4,15.1,13.2c5.7,3.8,13.2,5.7,19.8,8.5c6.6,2.8,14.2,4.7,19.8,7.6
		c6.6,2.8,11.3,6.6,15.1,11.3c3.8,4.7,6.6,11.3,6.6,18.9c0,6.6-0.9,12.3-2.8,17c-1.9,4.7-4.7,9.4-8.5,12.3
		c-3.8,2.8-8.5,5.7-13.2,7.6c-4.7,1.9-10.4,2.8-16.1,2.8c-5.7,0-11.3-0.9-17-2.8c-4.7-1.9-9.4-4.7-13.2-7.6
		c-3.8-3.8-6.6-7.6-9.4-12.3c-2.8-4.7-2.8-10.4-2.8-17c0-4.7,0.9-8.5,1.9-11.3c1.9-2.8,3.8-5.7,5.7-7.6l-5.7-1.9
		c-2.8,1.9-4.7,4.7-6.6,8.5c0,2.8-0.9,7.6-0.9,12.3c0,6.6,0.9,12.3,3.8,17.9c2.8,5.7,6.6,10.4,10.4,14.2c4.7,3.8,9.4,6.6,16.1,9.4
		c5.7,1.9,12.3,2.8,17.9,2.8c6.6,0,13.2-0.9,18.9-2.8c5.7-1.9,10.4-5.7,15.1-9.4c3.8-3.8,7.6-8.5,9.4-14.2
		C225.7,447,226.7,440.4,226.7,433.8z M191.7,435.7c0-3.8-1.9-6.6-5.7-8.5s-8.5-2.8-14.2-2.8c-1.9,0.9-2.8,2.8-3.8,4.7
		c-0.9,1.9-1.9,4.7-1.9,7.6c0,3.8,0.9,6.6,3.8,8.5s5.7,3.8,9.4,3.8s6.6-0.9,8.5-3.8C190.8,443.2,191.7,440.4,191.7,435.7z
		 M187.9,354.4c0-2.8-0.9-4.7-1.9-5.7c-1.9-1.9-3.8-1.9-5.7-1.9c-1.9,0-3.8,0.9-5.7,1.9c-1.9,1.9-1.9,3.8-1.9,5.7
		c0,1.9,0.9,3.8,1.9,5.7c1.9,1.9,3.8,1.9,5.7,1.9c1.9,0,3.8-0.9,5.7-1.9C187,358.2,187.9,356.3,187.9,354.4z"/>
	<path d="M491.1,396c0,15.1-2.8,30.2-8.5,43.4c-5.7,13.2-14.2,25.5-23.6,35.9c-9.4,10.4-21.7,17.9-35.9,23.6
		c-14.2,5.7-28.3,8.5-43.4,8.5c-15.1,0-30.2-2.8-43.4-8.5c-13.2-5.7-25.5-14.2-35.9-23.6c-10.4-10.4-17.9-21.7-23.6-35.9
		c-5.7-13.2-8.5-28.3-8.5-43.4s2.8-30.2,8.5-43.4c5.7-13.2,14.2-25.5,23.6-35.9c10.4-10.4,21.7-17.9,35.9-23.6
		c13.2-5.7,28.3-8.5,43.4-8.5c15.1,0,30.2,2.8,43.4,8.5c13.2,5.7,25.5,14.2,35.9,23.6c10.4,10.4,17.9,21.7,23.6,35.9
		C488.3,365.8,491.1,380.9,491.1,396z M462.8,396c0-11.3-1.9-22.7-6.6-33.1c-4.7-10.4-10.4-18.9-17.9-26.4
		c-7.6-7.6-16.1-13.2-26.4-17.9c-10.4-4.7-20.8-6.6-33.1-6.6c-11.3,0-22.7,1.9-33.1,6.6s-18.9,10.4-26.4,17.9
		c-7.6,7.6-13.2,16.1-17,26.4s-6.6,20.8-6.6,33.1c0,11.3,1.9,22.7,6.6,32.1c4.7,10.4,10.4,18.9,17.9,26.4
		c7.6,7.6,16.1,13.2,26.4,17.9c10.4,4.7,20.8,6.6,33.1,6.6c11.3,0,22.7-1.9,33.1-6.6s18.9-10.4,26.4-17.9
		c7.6-7.6,13.2-16.1,17.9-26.4C460.9,417.7,462.8,407.3,462.8,396z M455.2,396c0,10.4-1.9,20.8-5.7,29.3c-3.8,9.4-9.4,17-16.1,24.6
		c-6.6,6.6-15.1,12.3-24.6,16.1c-9.4,3.8-18.9,5.7-30.2,5.7c-10.4,0-20.8-1.9-30.2-5.7c-9.4-3.8-17.9-9.4-24.6-16.1
		c-6.6-7.6-12.3-15.1-16.1-24.6s-5.7-18.9-5.7-30.2c0-10.4,1.9-20.8,5.7-30.2c3.8-9.4,9.4-17,16.1-24.6c6.6-6.6,15.1-12.3,24.6-16.1
		c9.4-3.8,18.9-5.7,30.2-5.7c10.4,0,20.8,1.9,30.2,5.7c9.4,3.8,17.9,9.4,24.6,17c6.6,6.6,12.3,15.1,16.1,24.6
		C453.3,375.2,455.2,384.7,455.2,396z M427.8,396c0-6.6-0.9-13.2-3.8-18.9c-2.8-5.7-5.7-11.3-10.4-15.1c-4.7-4.7-9.4-7.6-15.1-10.4
		c-5.7-2.8-12.3-3.8-18.9-3.8c-6.6,0-12.3,0.9-18.9,3.8c-5.7,2.8-11.3,5.7-15.1,10.4c-4.7,4.7-7.6,9.4-10.4,15.1
		c-2.8,5.7-3.8,12.3-3.8,18.9s0.9,12.3,3.8,18.9c2.8,5.7,5.7,11.3,10.4,15.1c4.7,4.7,9.4,7.6,15.1,10.4c5.7,2.8,12.3,3.8,18.9,3.8
		c6.6,0,13.2-0.9,18.9-3.8s11.3-5.7,15.1-10.4c4.7-4.7,7.6-9.4,10.4-15.1C425.9,408.3,427.8,402.6,427.8,396z"/>
</g>
<g>
	<path d="M612,459.3c0,6.6-0.9,13.2-3.8,18.9c-2.8,5.7-6.6,11.3-11.3,15.1s-10.4,7.6-16.1,10.4c-6.6,2.8-12.3,3.8-18.9,3.8
		c-6.6,0-13.2-0.9-18.9-2.8c-5.7-1.9-11.3-4.7-16.1-8.5s-9.4-7.6-12.3-13.2c-3.8-4.7-5.7-10.4-6.6-17l19.8-5.7
		c0,3.8,1.9,7.6,3.8,11.3c1.9,2.8,4.7,6.6,7.6,8.5s6.6,3.8,10.4,5.7c3.8,1.9,7.6,1.9,12.3,1.9c4.7,0,8.5-0.9,12.3-1.9
		c3.8-1.9,6.6-3.8,9.4-5.7c2.8-2.8,4.7-5.7,6.6-9.4c1.9-3.8,2.8-7.6,2.8-11.3c0-6.6-0.9-11.3-3.8-15.1c-2.8-3.8-6.6-7.6-10.4-9.4
		c-3.8-2.8-8.5-4.7-13.2-6.6s-9.4-3.8-13.2-5.7s-7.6-4.7-10.4-7.6c-2.8-2.8-3.8-7.6-3.8-13.2c0-3.8,0.9-6.6,1.9-9.4s2.8-5.7,5.7-7.6
		c1.9-1.9,4.7-3.8,8.5-4.7c3.8-0.9,6.6-1.9,10.4-1.9c2.8,0,6.6,0.9,9.4,1.9c2.8,0.9,5.7,2.8,7.6,4.7s3.8,4.7,5.7,6.6
		c1.9,2.8,2.8,5.7,2.8,8.5l-17.9,5.7c0-1.9-0.9-3.8-1.9-4.7c-0.9-1.9-2.8-1.9-4.7-1.9s-2.8,0-3.8,0.9c-0.9,0.9-1.9,1.9-1.9,3.8
		c0,2.8,0.9,4.7,3.8,5.7c2.8,1.9,6.6,2.8,10.4,4.7c3.8,1.9,8.5,3.8,13.2,5.7s9.4,4.7,13.2,8.5s7.6,7.6,10.4,13.2
		C613.9,447,612,450.8,612,459.3z M590.3,396.9c-0.9-7.6-4.7-13.2-9.4-17c-5.7-4.7-12.3-6.6-19.8-6.6c-3.8,0-7.6,0.9-11.3,1.9
		c-3.8,0.9-6.6,3.8-8.5,5.7c-2.8,2.8-4.7,5.7-5.7,8.5c-1.9,3.8-1.9,6.6-1.9,11.3c0,5.7,0.9,10.4,3.8,14.2c2.8,3.8,6.6,6.6,10.4,8.5
		c3.8,2.8,8.5,4.7,13.2,6.6c4.7,1.9,9.4,3.8,13.2,6.6c3.8,2.8,7.6,5.7,10.4,8.5c2.8,3.8,3.8,8.5,3.8,14.2c0,3.8-0.9,7.6-1.9,10.4
		c-1.9,2.8-3.8,5.7-5.7,8.5c-2.8,1.9-5.7,3.8-8.5,5.7c-3.8,0.9-6.6,1.9-10.4,1.9c-3.8,0-7.6-0.9-11.3-1.9c-3.8-0.9-6.6-2.8-9.4-4.7
		c-2.8-1.9-4.7-4.7-6.6-7.6s-2.8-6.6-2.8-10.4l18.9-5.7c0,3.8,0.9,6.6,3.8,8.5c2.8,1.9,4.7,2.8,7.6,2.8c1.9,0,3.8-0.9,5.7-1.9
		c1.9-0.9,2.8-2.8,2.8-4.7c0-2.8-0.9-4.7-3.8-6.6c-2.8-1.9-6.6-3.8-10.4-5.7c-3.8-1.9-8.5-3.8-13.2-5.7c-4.7-1.9-9.4-4.7-13.2-8.5
		c-3.8-3.8-7.6-7.6-10.4-12.3c-2.8-4.7-3.8-11.3-3.8-18.9c0-6.6,0.9-12.3,3.8-17.9c1.9-5.7,5.7-10.4,9.4-15.1s9.4-7.6,15.1-10.4
		c5.7-2.8,12.3-3.8,19.8-3.8c6.6,0,12.3,0.9,17.9,2.8s10.4,4.7,15.1,7.6s8.5,7.6,11.3,12.3c2.8,4.7,5.7,9.4,6.6,15.1L590.3,396.9z"
		/>
</g>
</svg>
