<?xml version="1.0" encoding="utf-8"?>
<!-- Generator: Adobe Illustrator 18.1.1, SVG Export Plug-In . SVG Version: 6.00 Build 0)  -->
<svg version="1.1" id="Layer_1" xmlns="http://www.w3.org/2000/svg" xmlns:xlink="http://www.w3.org/1999/xlink" x="0px" y="0px"
	 viewBox="0 0 13.4 13.4" enable-background="new 0 0 13.4 13.4" xml:space="preserve">
<path d="M12.6,0H0.7C0.3,0,0,0.3,0,0.7v11.9c0,0.4,0.3,0.7,0.7,0.7h6.4V8.2H5.4v-2h1.7V4.7C7.1,3,8.2,2,9.7,2c0.7,0,1.4,0.1,1.6,0.1
	v1.8l-1.1,0c-0.8,0-1,0.4-1,1v1.3h2l-0.3,2H9.2v5.2h3.4c0.4,0,0.7-0.3,0.7-0.7V0.7C13.4,0.3,13,0,12.6,0z"/>
</svg>
