<?xml version="1.0" encoding="utf-8"?>
<!-- Generator: Adobe Illustrator 18.1.1, SVG Export Plug-In . SVG Version: 6.00 Build 0)  -->
<svg version="1.1" id="Layer_1" xmlns="http://www.w3.org/2000/svg" xmlns:xlink="http://www.w3.org/1999/xlink" x="0px" y="0px"
	 viewBox="0 0 13.1 13.1" enable-background="new 0 0 13.1 13.1" xml:space="preserve">
<path d="M1.7,0h9.7c0.9,0,1.7,0.7,1.7,1.7v9.7c0,1-0.8,1.7-1.7,1.7H1.7c-0.9,0-1.7-0.7-1.7-1.7V1.7C0,0.7,0.8,0,1.7,0L1.7,0z
	 M9.5,1.5C9.2,1.5,8.9,1.7,8.9,2v1.4c0,0.3,0.3,0.6,0.6,0.6H11c0.3,0,0.6-0.3,0.6-0.6V2c0-0.3-0.3-0.6-0.6-0.6H9.5L9.5,1.5z
	 M11.6,5.5h-1.1c0.1,0.3,0.2,0.7,0.2,1.1c0,2.2-1.8,3.9-4.1,3.9S2.5,8.9,2.5,6.7c0-0.4,0.1-0.8,0.2-1.1H1.5v5.5
	c0,0.3,0.2,0.5,0.5,0.5h9.1c0.3,0,0.5-0.2,0.5-0.5L11.6,5.5L11.6,5.5z M6.6,4C5.1,4,3.9,5.1,3.9,6.5s1.2,2.5,2.6,2.5
	s2.6-1.1,2.6-2.6S8,4,6.6,4z"/>
</svg>
