<?xml version="1.0" encoding="utf-8"?>
<!-- Generator: Adobe Illustrator 18.1.1, SVG Export Plug-In . SVG Version: 6.00 Build 0)  -->
<svg version="1.1" id="Layer_1" xmlns="http://www.w3.org/2000/svg" xmlns:xlink="http://www.w3.org/1999/xlink" x="0px" y="0px"
	 viewBox="0 0 16.4 13.3" enable-background="new 0 0 16.4 13.3" xml:space="preserve">
<g id="twitter_3_">
	<g>
		<path d="M16.4,1.6c-0.3,0.2-1.1,0.5-1.9,0.5C15,1.9,15.7,1,15.9,0.3C15.4,0.6,14.4,1,13.8,1l0,0c-0.6-0.6-1.5-1-2.5-1
			C9.5,0,8,1.5,8,3.4c0,0.3,0,0.5,0.1,0.7l0,0C5.5,4,2.6,2.8,0.9,0.6c-1,1.8-0.1,3.7,1,4.5C1.5,5.1,0.8,5,0.5,4.7
			C0.4,5.9,1,7.4,3.1,8C2.7,8.2,2,8.2,1.7,8.1c0.1,1,1.5,2.3,3,2.3C4.1,11,2.3,12.2,0,11.8c1.6,0.9,3.4,1.5,5.3,1.5
			c5.4,0,9.7-4.4,9.5-9.9v0c0,0,0,0,0-0.1s0,0,0-0.1C15.2,3,15.9,2.4,16.4,1.6z"/>
	</g>
</g>
</svg>
